<svg id="Camada_1" data-name="Camada 1" xmlns="http://www.w3.org/2000/svg" xmlns:xlink="http://www.w3.org/1999/xlink" viewBox="0 0 1080 828"><defs><style>.cls-1{fill:none;}.cls-2,.cls-3,.cls-4,.cls-5,.cls-6,.cls-7,.cls-8{fill:#232323;}.cls-10,.cls-11,.cls-12,.cls-13,.cls-17,.cls-18,.cls-19,.cls-2,.cls-20,.cls-22,.cls-23,.cls-24,.cls-25,.cls-26,.cls-27,.cls-29,.cls-30,.cls-31,.cls-32,.cls-33,.cls-34,.cls-35,.cls-36,.cls-38,.cls-39,.cls-41,.cls-42,.cls-43,.cls-44,.cls-45,.cls-46,.cls-47,.cls-6,.cls-7,.cls-8{fill-rule:evenodd;}.cls-14,.cls-3,.cls-33,.cls-7{opacity:0.2;}.cls-16,.cls-41,.cls-5,.cls-8{opacity:0.05;}.cls-17,.cls-6{opacity:0.1;}.cls-44,.cls-9{fill:#6e5a4a;}.cls-10{fill:#f5dccb;}.cls-11{fill:#363636;}.cls-12{fill:#e8c69d;}.cls-13,.cls-40{fill:#fff;}.cls-15,.cls-18{fill:#77604c;}.cls-19{fill:#ad3b3b;}.cls-20{fill:#ebcfae;}.cls-21,.cls-24{fill:#373737;}.cls-22{fill:#ebebeb;}.cls-23{fill:#e8c6ab;}.cls-25{fill:#202020;}.cls-26{fill:#212121;}.cls-27{fill:#4f7f83;}.cls-28,.cls-29{fill:#5d5446;}.cls-30,.cls-37{fill:#b29549;}.cls-31{fill:#7c8f9d;}.cls-32{fill:#edd9c1;}.cls-34{fill:#eddab8;}.cls-35{fill:#ceae8a;}.cls-36{fill:#edd7c5;}.cls-38{fill:#77604b;}.cls-39{fill:#ebd3bf;}.cls-42{fill:#f4d9b9;}.cls-43{fill:#605f5c;}.cls-45{fill:#e8c39f;}.cls-46{fill:#a5b8c1;}.cls-47{fill:#64a5df;}.cls-48{clip-path:url(#clip-path);}.cls-49{fill:#e21b1b;}</style><clipPath id="clip-path"><rect class="cls-1" x="1094.42" y="-65.62" width="1093.58" height="893.62"/></clipPath></defs><title>image</title><path class="cls-2" d="M632.19,265c-65.47,30-85.1,46-92.87,53.14-12,11.06-18.58,52.28-25.63,87.28H809.91c-7-35-13.67-76.22-25.63-87.28-7.76-7.18-26.68-22.75-92.15-52.74Z"/><path class="cls-2" d="M632.19,265c-65.47,30-85.1,46-92.87,53.14-12,11.06-18.58,52.28-25.63,87.28H809.91c-7-35-13.67-76.22-25.63-87.28-7.76-7.18-26.68-22.75-92.15-52.74Z"/><path class="cls-2" d="M630,205.19V281c17.48,21.59,46.08,22.37,63.57,0V205.19C693.59,164.25,630,164.25,630,205.19Z"/><path class="cls-2" d="M595.52,157.53c5.59-1.93,12.72,4.71,15.9,14.83s1.24,19.87-4.36,21.8-12.72-4.71-15.91-14.83S589.92,159.46,595.52,157.53Z"/><path class="cls-2" d="M727.81,157.53c-5.6-1.93-12.73,4.71-15.92,14.83s-1.23,19.87,4.37,21.8,12.73-4.71,15.91-14.83S733.4,159.46,727.81,157.53Z"/><path class="cls-2" d="M630,255.94l-2.78,11.3L635,326l27-28.55Z"/><path class="cls-3" d="M630,241.9v2.4s16.24,20.13,31.72,20.86,31.85-19.5,31.85-19.5V242"/><path class="cls-2" d="M661.85,69.08c-97.79,0-60.31,139.94-53.92,150.66,7,11.83,38.13,37.89,53.92,37.89s46.88-26.06,53.93-37.89C722.17,209,759.65,69.08,661.85,69.08Z"/><path class="cls-4" d="M731.29,164.94c5.1-26,1.81-86.64-17.59-84.63-18-19.14-80.86-22.67-98.07-2-39.4,7.92-21.12,87-21.12,87a169.68,169.68,0,0,0,4.66,20.64q4-.3,7.93-.51c-2.85-5.44-5.22-11-6.13-15.13a103.86,103.86,0,0,1-1.6-12.71c.56-14.22,10.41-55.62,27.37-58.87,6.61-1.27,23.13,14.27,34,14.25,11.39-.31,25.69-16,33.06-14.92,17.63,2.49,32.58,40.51,32.42,58.87,0,2.36-2.86,16.45-7.13,26.42,2.84-.15,5.67-.34,8.49-.55A169.71,169.71,0,0,0,731.37,165Z"/><path class="cls-2" d="M693.59,255.94l2.19,11.11-7.31,59.58L662,297.49Z"/><polyline class="cls-5" points="630.02 255.94 661.97 297.49 693.59 255.94 693.59 254.95 661.97 296.31 630.02 254.95 630.02 255.94"/><polygon class="cls-6" points="655.83 325.33 667.77 325.33 667.83 325.73 655.77 325.73 655.83 325.33"/><path class="cls-2" d="M664.24,203.11c-1.36,0-2.38,2.07-2.38,2.07s-1-2.09-2.39-2.07c-5.6.06-28.58,2.42-35.27,11.31,0,0,32.49-.58,34.28-1.13s3.38-4.23,3.38-4.23,1.6,3.68,3.38,4.23,34.27,1.13,34.27,1.13C692.82,205.53,669.84,203.17,664.24,203.11Z"/><path class="cls-2" d="M372.93,265c-65.46,30-85.1,46-92.86,53.14-12,11.06-18.58,52.28-25.64,87.28H550.65c-7-35-13.67-76.22-25.63-87.28-7.76-7.18-26.68-22.75-92.15-52.74Z"/><path class="cls-2" d="M372.93,265c-65.46,30-85.1,46-92.86,53.14-12,11.06-18.58,52.28-25.64,87.28H550.65c-7-35-13.67-76.22-25.63-87.28-7.76-7.18-26.68-22.75-92.15-52.74Z"/><path class="cls-2" d="M370.76,205.19V281c17.48,21.59,46.09,22.37,63.57,0V205.19C434.33,164.25,370.76,164.25,370.76,205.19Z"/><path class="cls-2" d="M336.26,157.53c5.59-1.93,12.72,4.71,15.91,14.83s1.23,19.87-4.37,21.8-12.72-4.71-15.91-14.83S330.66,159.46,336.26,157.53Z"/><path class="cls-2" d="M468.55,157.53c-5.6-1.93-12.73,4.71-15.91,14.83s-1.23,19.87,4.36,21.8,12.73-4.71,15.92-14.83S474.15,159.46,468.55,157.53Z"/><path class="cls-3" d="M370.76,241.9v2.4s16.24,20.13,31.73,20.86,31.84-19.5,31.84-19.5V242"/><path class="cls-2" d="M402.6,69.08c-97.8,0-60.31,139.94-53.93,150.66,7.05,11.83,38.13,37.89,53.93,37.89s46.88-26.06,53.92-37.89C462.91,209,500.39,69.08,402.6,69.08Z"/><path class="cls-4" d="M446.47,72.35c-33-27.15-84-11-99.43,11.67-19.27,28.31-12.46,71.3-7.89,103.6,0-.05,0-.09,0-.14.06.33.12.66.2,1a11.88,11.88,0,0,0,.72,1.22c.17.3,1.36,0,1.76-.23A.53.53,0,0,0,342,189c.18-2.86,0-8.51,0-8.57-.36-4.44-1.29-8.72-1.91-13.07,3.09-20.36,12.24-24.64,17-49.21q1.53-2.46,3.24-4.78a39.3,39.3,0,0,1,4.25-5,26.59,26.59,0,0,0,2.41-1.73c17.77-6.8,36.1,1.36,52.88,8.51,6.41,2.74,7.36-9.16,14.44-9.74,3-.24,9.27,10.46,11.81,10.14,25.19-3.1,14.66,36.79,18.56,55.22-.54,3.2-1.11,6.39-1.38,9.68,0,.06-.17,5.71,0,8.57a.5.5,0,0,0,.22.43c.4.2,1.59.53,1.76.23a11.88,11.88,0,0,0,.72-1.22,17.34,17.34,0,0,0,.42-3.5c.2-1.61.47-3.33.68-5.07C472.28,160,481.65,80.92,446.47,72.35ZM396.4,99l-1.64-.52c.81.21,1.63.43,2.45.67Z"/><polygon class="cls-6" points="396.57 325.33 408.51 325.33 408.57 325.73 396.52 325.73 396.57 325.33"/><path class="cls-4" d="M421.47,81.8S393,61.09,367.58,72.24s-47.78,15.4-53.37,8c0,0-15.76,34.52,13.72,52.57s63,3.72,72.7-7.43S426,96.14,434.68,99.86,421.47,81.8,421.47,81.8Z"/><path class="cls-2" d="M228.05,402c-65.46,30-85.1,46-92.86,53.14-12,11.06-18.58,52.28-25.64,87.28H405.78c-7.06-35-13.68-76.22-25.64-87.28-7.76-7.18-26.68-22.75-92.15-52.73Z"/><path class="cls-2" d="M228.05,402c-65.46,30-85.1,46-92.86,53.14-12,11.06-18.58,52.28-25.64,87.28H405.78c-7.06-35-13.68-76.22-25.64-87.28-7.76-7.18-26.68-22.75-92.15-52.73Z"/><path class="cls-2" d="M225.88,342.2V418c17.48,21.59,46.09,22.37,63.57,0V342.2C289.45,301.27,225.88,301.27,225.88,342.2Z"/><path class="cls-2" d="M191.38,294.54c5.6-1.93,12.72,4.71,15.91,14.83s1.23,19.88-4.37,21.8-12.72-4.71-15.9-14.83S185.78,296.47,191.38,294.54Z"/><path class="cls-2" d="M323.67,294.54c-5.6-1.93-12.72,4.71-15.91,14.83s-1.23,19.88,4.36,21.8,12.73-4.71,15.92-14.83S329.27,296.47,323.67,294.54Z"/><path class="cls-2" d="M257.83,434.5s-44.36,11.06-44.36,13.86,16.88,94,16.88,94h60.23l6.9-93.62Z"/><polygon class="cls-2" points="225.88 402.97 225.88 418.01 239.69 542.39 215.94 542.39 189.82 486.99 214.76 469.63 184.29 454.75 212.31 409.32 225.88 402.97"/><polygon class="cls-2" points="289.45 403.04 289.45 418.01 275.51 542.39 299.25 542.39 325.37 486.99 300.44 469.63 330.91 454.75 306.01 410.72 289.45 403.04"/><path class="cls-2" d="M244,449.88l7.7,12.46h11.93l7.71-12.46L257.83,434.5Z"/><polygon class="cls-2" points="251.69 462.34 240.73 542.39 274.6 542.39 263.63 462.34 251.69 462.34"/><path class="cls-2" d="M225.88,393l-2.78,11.29,7.78,58.8,26.95-28.55Z"/><path class="cls-3" d="M225.88,378.91v2.4s16.24,20.13,31.73,20.86,31.84-19.49,31.84-19.49V379"/><path class="cls-2" d="M257.72,206.1c-97.8,0-60.31,139.94-53.92,150.66,7,11.82,38.12,37.88,53.92,37.88s46.88-26.06,53.93-37.88C318,346,355.51,206.1,257.72,206.1Z"/><path class="cls-2" d="M289.45,393l2.19,11.1-7.3,59.58L257.83,434.5Z"/><polyline class="cls-5" points="225.88 392.96 257.83 434.5 289.45 392.96 289.45 391.97 257.83 433.32 225.88 391.97 225.88 392.96"/><polygon class="cls-6" points="251.69 462.34 263.63 462.34 263.69 462.75 251.64 462.75 251.69 462.34"/><path class="cls-4" d="M321.32,309.66c-.5,1.91-1,3.61-1,3.61s-8.76,31.18-16.26,40.84c-14.51,18.7-33.45,30.29-46.36,30.36-12.69.08-31.38-10.44-46.05-28.73-5.8-7.23-16.46-39.81-16.63-42.47a39.23,39.23,0,0,0-.84-5c-2-.06-2,13.83-2,13.83,3,16.18,5,26.84,11.13,35.72,9.71,14.18,37.13,36.6,53.77,36.6s44.07-22.42,53.78-36.6C317,348.89,318.64,337,322,320.17,322,320.17,322.84,309.79,321.32,309.66Z"/><path class="cls-2" d="M287.71,351.47c-2.26-5-20.5-11.7-23.78-13s-5.61,3.14-5.61,3.14-2.32-4.4-5.6-3.14-21.53,8-23.79,13-3.35,8.42-3.35,11.83v15.52s3.24.22,5.1-1.25,4-5.66,4-10.86a10.55,10.55,0,0,1,8.11-10.34c4.7-1,15.55-2.88,15.55-6,0,3.08,11.61,5.21,15.55,6A10.45,10.45,0,0,1,282,366.71c0,5.2,2.12,9.39,4,10.86s5.1,1.25,5.1,1.25V363.3C291.06,359.89,290,356.45,287.71,351.47Z"/><path class="cls-2" d="M288.78,330.79c.54,0,1.12-.05,1.7-.1,15.91-1.39,19.83-8.86,21.61-18.29,2-10.36,2.1-14,4.66-14.92,1.87-.7,2.33-3,2.28-5.72s-.15-3-3.25-4.11c-2.46-.89-16-2.18-26.23-1.51l0,2.79c8-.46,15.77.55,18,2.07,5.11,3.46,3.62,20.13-.69,28.39-3,5.74-10.89,8.65-18,8.78Zm-29.73-39.2c-3.51.09-17.88-4.24-28.1-5.16-.72-.07-1.47-.13-2.24-.17l0,2.8c8.31.39,16.91,2.36,19.85,7,4.84,7.6-3.85,26.19-11.7,30.33a20,20,0,0,1-8.84,1.94l0,2.63c13.76,0,18.84-10.34,20.54-13.8,3.19-6.51,2.54-15.48,10.41-15.49s6.83,8.78,9.64,15.28c1.52,3.51,6,14.27,20.26,13.85l0-2.62a19.67,19.67,0,0,1-9.33-1.9c-7.61-4.1-15.22-22.64-9.93-30.26,3.18-4.6,11.71-6.62,19.95-7.08l0-2.79c-.63,0-1.25.08-1.86.15C278.49,287.16,267.33,291.37,259.05,291.59Zm-30.34-5.33c-10.09-.56-23.45.77-25.92,1.65-3.18,1.15-3.27,1.44-3.5,4.14s.12,5,1.94,5.7c2.51.95,2.42,4.55,3.8,14.91,1.23,9.42,4.71,16.86,20.54,18.18.81.07,1.6.1,2.36.11l0-2.63c-7.28.06-15.37-2.82-18.1-8.7-3.82-8.24-4.36-24.9,1-28.39,2.3-1.51,9.93-2.55,17.82-2.17Z"/><path class="cls-2" d="M134.45,375c6-11.58,54-21.79,73.54,19.37s9.72,55.56,20.51,70.09S213.84,591.4,153.56,591c-64.44-.39-78.49-107.93-65.67-129.72S89.51,375,134.45,375Z"/><path class="cls-2" d="M181.73,566.36c-.54.9-54.22,1.79-54.81,2.68-16.86,25.12-53.28,29.75-82.24,36.52s-29.93,45-30,70.44h281c-.05-25.47-.59-63.57-30-70.44S197.72,592.63,181.73,566.36Z"/><path class="cls-2" d="M183.37,568.85v13.83L169.66,676H140.44l-13.59-92.32V569.16s0-.09.07-.12c.6-.89,54.26-1.78,54.81-2.67C182.25,567.21,182.79,568,183.37,568.85Z"/><path class="cls-2" d="M127,506.34v72c14.11,30.15,39.43,30.93,56.3,0v-72C183.33,467.44,127,467.44,127,506.34Z"/><path class="cls-2" d="M229.44,472.7c-5.63-2.65-13.57,3.84-17.74,14.49s-3,21.43,2.61,24.07,13.57-3.84,17.75-14.49S235.06,475.34,229.44,472.7Z"/><path class="cls-2" d="M81,472.7c5.62-2.65,13.56,3.84,17.74,14.49s3,21.43-2.62,24.07-13.56-3.84-17.74-14.49S75.36,475.34,81,472.7Z"/><path class="cls-7" d="M127,542.17v2s17.67,18.43,27.89,18.43S183.33,544,183.33,544v-1.8Z"/><path class="cls-2" d="M155.24,556.17c-17.48,0-54.42-30.1-65.83-73.21-11.53-43.53,10.18-106,65.83-106s77.35,62.44,65.82,106C209.64,526.07,172.72,556.17,155.24,556.17Z"/><path class="cls-2" d="M166.55,431c13.65,29.91,19.19,38.74,37.35,30.84s14.7,14.23,11.4,30c16.08-21.32,14.19-41.57,9.19-62.16-5.48-22.56-33.12-56.88-59-56.25-14.09-1.55-35.41.28-58.09,17.36C67.76,420.59,81,487.59,91.65,495.49c-10.33-62.05,15-49.42,32.43-81.88C129.81,399.34,151.71,398.46,166.55,431Z"/><polygon class="cls-2" points="140.66 675.98 116.92 675.98 115.29 676.01 90.8 652.67 115.73 635.3 85.26 620.41 105.44 587.68 113.27 574.99 126.85 568.63 126.85 583.68 140.44 676.01 140.66 675.98"/><polygon class="cls-2" points="194.36 634.3 219.28 651.67 194.74 676.01 193.17 675.98 169.43 675.98 169.66 676.01 183.37 582.68 183.37 567.72 199.93 575.4 207.23 588.34 224.82 619.42 194.36 634.3"/><path class="cls-2" d="M729.19,235c3.31-11.57,29.67-21.78,40.43,19.37S775,310,780.89,324.5s-8.06,127-41.2,126.6c-35.42-.39-43.15-107.93-36.1-129.72S704.48,235,729.19,235Z"/><path class="cls-2" d="M845.76,235c-3.31-11.57-29.67-21.78-40.42,19.37S800,310,794.06,324.5s8.06,127,41.2,126.6c35.42-.39,43.15-107.93,36.1-129.72S870.47,235,845.76,235Z"/><path class="cls-2" d="M816.15,403.86c-.55.89-54.22,1.79-54.82,2.67-16.85,25.12-53.27,29.76-82.24,36.52-28.81,6.73-29.93,45-30,70.45h281c0-25.47-.58-63.58-30-70.45S832.14,430.12,816.15,403.86Z"/><path class="cls-2" d="M817.78,406.35v13.83L804.07,513.5H774.85l-13.58-92.32V406.65a.67.67,0,0,1,.07-.11c.6-.89,54.26-1.78,54.81-2.68C816.67,404.71,817.2,405.54,817.78,406.35Z"/><path class="cls-2" d="M761.45,343.83v72.05c14.1,30.14,39.42,30.93,56.3,0V343.83C817.75,304.93,761.45,304.93,761.45,343.83Z"/><path class="cls-2" d="M863.86,310.19c-5.63-2.64-13.57,3.85-17.75,14.49s-3,21.44,2.62,24.08,13.57-3.84,17.75-14.49S869.48,312.84,863.86,310.19Z"/><path class="cls-2" d="M715.39,310.19C721,307.55,729,314,733.14,324.68s3,21.44-2.62,24.08-13.57-3.84-17.75-14.49S709.78,312.84,715.39,310.19Z"/><path class="cls-7" d="M761.45,379.67v2s17.66,18.43,27.89,18.43,28.41-18.63,28.41-18.63v-1.8Z"/><path class="cls-2" d="M789.66,393.67c-17.49,0-54.42-30.1-65.83-73.21-11.53-43.54,10.18-106,65.83-106s77.35,62.44,65.82,106C844.06,363.57,807.13,393.67,789.66,393.67Z"/><path class="cls-2" d="M858.91,267.17c-5.48-22.56-33.12-56.88-59-56.25a73.7,73.7,0,0,0-12.62-.28,73.81,73.81,0,0,0-12.63.28c-25.92-.63-53.56,33.69-59,56.25-4.41,18.14-6.39,36,4.19,54.59,1.91,5.61,4.16,9.63,6.31,11.22-2.38-14.27-2.87-24.58-2-32.41,2-3.09,5.69-4.05,12.09-1.26,18.15,7.89,23.69-.94,37.35-30.84,4.19-9.18,7.41-20,13.73-20s9.54,10.82,13.73,20c13.65,29.9,19.19,38.73,37.35,30.84,6.4-2.79,10.1-1.83,12.09,1.26.86,7.83.38,18.14-2,32.41,2.15-1.59,4.4-5.61,6.3-11.22C865.3,303.18,863.31,285.31,858.91,267.17Z"/><polygon class="cls-2" points="775.08 513.47 751.34 513.47 749.71 513.5 725.21 490.17 750.15 472.8 719.68 457.9 739.85 425.18 747.69 412.48 761.26 406.13 761.26 421.18 774.85 513.5 775.08 513.47"/><polygon class="cls-2" points="828.78 471.8 853.7 489.16 829.16 513.5 827.59 513.47 803.84 513.47 804.07 513.5 817.78 420.18 817.78 405.22 834.35 412.9 841.65 425.83 859.23 456.92 828.78 471.8"/><path class="cls-2" d="M887.58,535.8c-65.47,30-85.1,46-92.87,53.14-12,11.06-18.58,52.28-25.63,87.28H1065.3c-7-35-13.67-76.22-25.63-87.28-7.76-7.18-26.68-22.75-92.15-52.74Z"/><path class="cls-2" d="M887.58,535.8c-65.47,30-85.1,46-92.87,53.14-12,11.06-18.58,52.28-25.63,87.28H1065.3c-7-35-13.67-76.22-25.63-87.28-7.76-7.18-26.68-22.75-92.15-52.74Z"/><path class="cls-2" d="M885.41,476v75.81c17.48,21.59,46.09,22.37,63.57,0V476C949,435.09,885.41,435.09,885.41,476Z"/><path class="cls-2" d="M850.91,428.37c5.59-1.93,12.72,4.71,15.9,14.83s1.24,19.87-4.36,21.8-12.72-4.71-15.91-14.83S845.31,430.3,850.91,428.37Z"/><path class="cls-2" d="M983.2,428.37c-5.6-1.93-12.73,4.71-15.91,14.83s-1.23,19.87,4.36,21.8,12.73-4.71,15.91-14.83S988.79,430.3,983.2,428.37Z"/><path class="cls-2" d="M903.52,583.71l7.7,12.46h11.94l7.7-12.46-13.5-15.38Z"/><polygon class="cls-2" points="911.22 596.17 900.26 676.22 934.13 676.22 923.16 596.17 911.22 596.17"/><path class="cls-2" d="M885.41,526.78l-2.78,11.3,7.78,58.8,27-28.55Z"/><path class="cls-3" d="M885.41,512.74v2.4s16.24,20.13,31.73,20.86S949,516.5,949,516.5v-3.68"/><path class="cls-2" d="M917.25,339.92c-97.8,0-60.32,139.94-53.93,150.66,7,11.83,38.13,37.89,53.93,37.89s46.88-26.06,53.92-37.89C977.56,479.86,1015,339.92,917.25,339.92Z"/><path class="cls-4" d="M874.58,343.19c33-27.15,98.15-23.27,113.55-.64-6.21,22.74-1.66,83.61-6.23,115.91v-.14c0,.33-.11.66-.19,1a10.35,10.35,0,0,1-.73,1.22c-.16.3-1.35,0-1.75-.23a.5.5,0,0,1-.22-.43c-.18-2.86,0-8.51,0-8.57.36-4.44,1.29-8.72,1.91-13.07-3.09-20.36-12.24-24.64-17-49.21q-1.53-2.46-3.24-4.78a39.3,39.3,0,0,0-4.25-5A25.26,25.26,0,0,1,954,377.5c-17.77-6.8-17.19-1.75-34,5.41-6.41,2.73-24.44,8-31.52,7.43-3-.24-13.42-1.26-13.65-3.93-13.29,21.46-14.65,36.79-18.55,55.22.53,3.2,1.11,6.39,1.38,9.68,0,.06.17,5.71,0,8.57a.53.53,0,0,1-.22.43c-.4.2-1.6.53-1.76.23a11.88,11.88,0,0,1-.72-1.22,17.34,17.34,0,0,1-.42-3.5c-.2-1.61-.47-3.33-.68-5.07C848.77,430.8,839.4,351.76,874.58,343.19Zm50.06,26.69,1.65-.52c-.82.21-1.63.43-2.45.67Z"/><path class="cls-2" d="M949,526.78l2.19,11.11-7.3,59.58-26.51-29.14Z"/><polyline class="cls-5" points="885.41 526.78 917.36 568.33 948.98 526.78 948.98 525.79 917.36 567.15 885.41 525.79 885.41 526.78"/><polygon class="cls-6" points="911.22 596.17 923.16 596.17 923.22 596.57 911.17 596.57 911.22 596.17"/><path class="cls-2" d="M500.22,408.35c-65.47,30-85.1,46-92.87,53.14-12,11.05-18.58,52.28-25.63,87.28H677.94c-7.05-35-13.67-76.23-25.63-87.28-7.76-7.18-26.68-22.75-92.15-52.74Z"/><path class="cls-2" d="M500.22,408.35c-65.47,30-85.1,46-92.87,53.14-12,11.05-18.58,52.28-25.63,87.28H677.94c-7.05-35-13.67-76.23-25.63-87.28-7.76-7.18-26.68-22.75-92.15-52.74Z"/><path class="cls-2" d="M498.05,348.58v75.81c17.48,21.59,46.08,22.37,63.57,0V348.58C561.62,307.64,498.05,307.64,498.05,348.58Z"/><path class="cls-2" d="M463.55,300.92c5.59-1.93,12.72,4.71,15.9,14.82s1.24,19.88-4.36,21.81-12.72-4.71-15.91-14.83S458,302.85,463.55,300.92Z"/><path class="cls-2" d="M595.84,300.92c-5.6-1.93-12.73,4.71-15.91,14.82s-1.24,19.88,4.36,21.81,12.73-4.71,15.91-14.83S601.43,302.85,595.84,300.92Z"/><path class="cls-2" d="M516.16,456.25l7.7,12.46H535.8l7.7-12.46L530,440.87Z"/><polygon class="cls-2" points="523.86 468.71 512.9 548.77 546.76 548.77 535.8 468.71 523.86 468.71"/><path class="cls-2" d="M498.05,399.33l-2.78,11.3,7.77,58.8,27-28.56Z"/><path class="cls-3" d="M498.05,385.29v2.39s16.24,20.14,31.72,20.87,31.85-19.5,31.85-19.5v-3.68"/><path class="cls-2" d="M529.88,212.47c-97.79,0-60.31,139.94-53.92,150.66C483,375,514.09,401,529.88,401s46.88-26.06,53.93-37.89C590.2,352.41,627.68,212.47,529.88,212.47Z"/><path class="cls-4" d="M575,215.74c-33.69-31.05-99.67,8.6-115.07,31.22,6.22,22.75,3.19,51.75,7.76,84,0-.05,0-.09,0-.14.06.32.12.66.2,1a10.74,10.74,0,0,0,.72,1.21c.17.31,1.36,0,1.76-.22a.5.5,0,0,0,.21-.44c.19-2.85,0-8.5,0-8.56-.36-4.44.24-9-.38-13.31,3.09-20.36.59-21.21,11.24-41.55a80.18,80.18,0,0,1,7.38-9.29c17.77-6.81,24,4.53,40.74,11.68,6.42,2.73,16.08,2.92,23.18,2.92,11.06,0,21.77-12.68,22-15.35,13.3,21.46,14.66,36.79,18.56,55.22-.54,3.19-1.11,6.39-1.38,9.68,0,.06-.17,5.71,0,8.56a.53.53,0,0,0,.22.44c.39.2,1.59.53,1.75.22a9.46,9.46,0,0,0,.73-1.21,17.34,17.34,0,0,0,.42-3.5c.2-1.61.47-3.34.68-5.07C600.8,303.35,610.17,224.31,575,215.74Zm-50.05,26.69-1.65-.52c.81.21,1.63.43,2.45.67Z"/><path class="cls-4" d="M211.93,200.52c34.51-31.05,102.11,8.59,117.89,31.22-6.37,22.74-3.27,51.74-7.95,84.05,0-.05,0-.1,0-.14-.06.32-.12.65-.21,1a9.08,9.08,0,0,1-.74,1.21c-.16.3-1.39,0-1.79-.23a.51.51,0,0,1-.23-.43c-.18-2.85,0-8.5,0-8.56.37-4.45-.25-9,.39-13.31-3.17-20.36-.61-21.22-11.52-41.56a82.16,82.16,0,0,0-7.55-9.29c-18.22-6.8-24.56,4.53-41.75,11.69-6.57,2.73-16.47,2.92-23.75,2.92-11.32,0-22.3-12.69-22.53-15.35-13.61,21.45-15,36.78-19,55.21.55,3.2,1.14,6.4,1.41,9.69,0,.06.18,5.71,0,8.56a.5.5,0,0,1-.22.43c-.4.2-1.63.53-1.8.23a10.26,10.26,0,0,1-.74-1.21,16.75,16.75,0,0,1-.43-3.5c-.21-1.61-.48-3.34-.69-5.08C185.47,288.13,175.88,209.08,211.93,200.52Zm51.28,26.68,1.69-.51c-.84.21-1.67.43-2.51.67Z"/><path class="cls-2" d="M561.62,399.33l2.19,11.11L556.5,470,530,440.87Z"/><polyline class="cls-5" points="498.05 399.33 530 440.87 561.62 399.33 561.62 398.34 530 439.7 498.05 398.34 498.05 399.33"/><polygon class="cls-6" points="523.86 468.71 535.8 468.71 535.86 469.12 523.8 469.12 523.86 468.71"/><path class="cls-2" d="M702.78,423.66c6.93-12.58,62.18-23.67,84.71,21s11.19,60.39,23.62,76.18.73,52-7.91,55.19-5.17,15.7-1,21.08c18,23-8,61.72-77.45,61.32C650.57,658.05,636,613,655,599c6.2-4.59,8.61-13.39,1.81-21.14s-22.46-36.64-7.7-60.32S651,423.63,702.78,423.66Z"/><path class="cls-2" d="M755.15,607.78c-.55.9-54.22,1.79-54.82,2.68-16.85,25.12-53.27,36.12-82.24,42.89s-29.93,45-30,70.45h281c0-25.47-.58-63.58-30-70.45S771.14,634.05,755.15,607.78Z"/><path class="cls-2" d="M700.45,554.13v72c14.1,30.14,39.42,30.92,56.3,0v-72C756.75,515.23,700.45,515.23,700.45,554.13Z"/><path class="cls-2" d="M802.85,520.49c-5.62-2.64-13.56,3.85-17.74,14.49s-3,21.44,2.62,24.08,13.57-3.84,17.74-14.49S808.48,523.14,802.85,520.49Z"/><path class="cls-2" d="M654.39,520.49C660,517.85,668,524.33,672.14,535s3,21.44-2.62,24.08-13.57-3.84-17.75-14.49S648.77,523.14,654.39,520.49Z"/><path class="cls-7" d="M700.45,590v2s17.66,18.43,27.89,18.43,28.41-18.63,28.41-18.63V590Z"/><path class="cls-2" d="M728.65,604c-17.48,0-54.41-30.11-65.82-73.21-11.53-43.54,10.18-106,65.82-106s77.36,62.44,65.83,106C783.06,573.86,746.13,604,728.65,604Z"/><path class="cls-2" d="M715.56,478.77c-13.66,29.9-19.2,38.73-37.35,30.83s-14.71,14.24-11.41,30c-16.07-21.32-14.18-41.57-9.19-62.15,5.49-22.56,33.12-56.89,59-56.25,14.09-1.55,35.41.28,58.09,17.35,39.6,29.82,26.37,96.81,15.71,104.71,10.33-62-15-49.41-32.43-81.87C752.3,447.14,730.4,446.26,715.56,478.77Z"/><rect class="cls-4" x="724.92" y="649.39" width="5.77" height="74.41"/><polygon class="cls-2" points="700.45 610.4 680.36 629.59 705.91 671.01 727.96 649.15 700.45 610.4"/><polygon class="cls-2" points="756.75 610.26 776.84 630.26 750.01 671.01 727.96 649.15 756.75 610.26"/><path class="cls-2" d="M759.17,553.21c.55,0,1.12-.06,1.71-.11,16-1.39,19.91-8.89,21.7-18.36,2-10.41,2.11-14,4.68-15,1.88-.71,2.34-3,2.29-5.75s-.15-3-3.27-4.12c-2.46-.9-16.1-2.19-26.34-1.52l0,2.8c8.06-.46,15.84.56,18.09,2.08,5.13,3.47,3.63,20.22-.69,28.51-3,5.76-10.94,8.69-18.09,8.81Zm-29.86-39.37c-3.52.09-17.95-4.26-28.21-5.18-.73-.07-1.48-.13-2.25-.17l0,2.81c8.34.39,17,2.37,19.93,7,4.86,7.63-3.87,26.3-11.75,30.46a20,20,0,0,1-8.88,2l-.05,2.64c13.82,0,18.92-10.39,20.63-13.86C721.9,533,721.23,524,729.14,524s6.86,8.82,9.69,15.35c1.52,3.52,6,14.33,20.34,13.91l0-2.64a19.51,19.51,0,0,1-9.36-1.9c-7.65-4.12-15.3-22.74-10-30.39,3.19-4.62,11.76-6.64,20-7.11l0-2.8c-.63,0-1.25.08-1.86.14C748.84,509.39,737.62,513.62,729.31,513.84Zm-30.46-5.35c-10.14-.57-23.56.77-26,1.66-3.19,1.15-3.29,1.44-3.51,4.15s.12,5,2,5.73c2.51,1,2.43,4.57,3.81,15,1.24,9.46,4.73,16.94,20.64,18.26.81.07,1.59.1,2.36.11l.05-2.64c-7.31.06-15.44-2.83-18.17-8.73-3.84-8.29-4.38-25,1-28.52,2.31-1.52,10-2.56,17.9-2.18Z"/><polygon class="cls-8" points="700.45 610.4 727.96 649.15 756.75 610.26 756.72 609.43 727.96 648.06 700.45 609.43 700.45 610.4"/><path class="cls-2" d="M332.62,590.74c-65.47,30-85.11,46-92.87,53.14-12,11.06-18.58,52.28-25.64,87.28H510.34c-7.06-35-13.67-76.22-25.64-87.28-7.76-7.18-26.67-22.75-92.14-52.73Z"/><path class="cls-2" d="M332.62,590.74c-65.47,30-85.11,46-92.87,53.14-12,11.06-18.58,52.28-25.64,87.28H510.34c-7.06-35-13.67-76.22-25.64-87.28-7.76-7.18-26.67-22.75-92.14-52.73Z"/><path class="cls-2" d="M330.44,531v75.81c17.48,21.59,46.09,22.37,63.57,0V531C394,490,330.44,490,330.44,531Z"/><path class="cls-2" d="M295.94,483.31c5.6-1.93,12.72,4.71,15.91,14.83s1.24,19.88-4.37,21.8-12.72-4.71-15.9-14.83S290.34,485.24,295.94,483.31Z"/><path class="cls-2" d="M428.23,483.31c-5.6-1.93-12.72,4.71-15.91,14.83s-1.23,19.88,4.37,21.8,12.72-4.71,15.91-14.83S433.83,485.24,428.23,483.31Z"/><path class="cls-2" d="M362.39,623.27S318,634.33,318,637.13s16.88,94,16.88,94h60.23l6.9-93.62Z"/><polygon class="cls-2" points="330.44 591.74 330.44 606.78 344.25 731.16 320.51 731.16 294.39 675.76 319.32 658.4 288.85 643.51 316.87 598.09 330.44 591.74"/><polygon class="cls-2" points="394.01 591.81 394.01 606.78 380.07 731.16 403.81 731.16 429.93 675.76 405 658.4 435.47 643.51 410.57 599.49 394.01 591.81"/><path class="cls-2" d="M348.56,638.65l7.7,12.46H368.2l7.7-12.46-13.51-15.38Z"/><polygon class="cls-2" points="356.26 651.11 345.3 731.16 379.16 731.16 368.2 651.11 356.26 651.11"/><path class="cls-2" d="M330.44,581.73,327.66,593l7.78,58.8,26.95-28.55Z"/><path class="cls-3" d="M330.44,567.68v2.4s16.24,20.13,31.73,20.86S394,571.44,394,571.44v-3.68"/><path class="cls-2" d="M412.59,400.6c14.55,2.42,22.59,12.84,26,27,9,36.81-9.8,116.66-74.8,117.61-33.51.5-57.65-8.41-66.44-36.75s-12.41-74,6.71-99.59C328.15,376.65,378.63,376.35,412.59,400.6Z"/><path class="cls-2" d="M362.28,394.87c-97.79,0-60.31,139.94-53.92,150.66,7,11.82,38.12,37.88,53.92,37.88s46.88-26.06,53.93-37.88C422.6,534.81,460.08,394.87,362.28,394.87Z"/><path class="cls-2" d="M315,438.82c17.41,11.07,30.89-5.44,46.61,1.64s58.27-27,67.55,47.82c14.88-54.24-7.67-93-64.42-95.58-60.61-2.75-85.15,54.95-68.4,108.83C295.22,472.34,302.05,453.24,315,438.82Z"/><path class="cls-2" d="M314,434c2.74,7.75,21.49,9.38,28.52,8.57,11.33-1.23,21.1-7.35,32-10.21"/><path class="cls-9" d="M313.39,434c-1.13,9.1,17.22,11,22.94,11.28a49.45,49.45,0,0,0,18.38-2.85c3.73-1.26,7.33-2.85,11-4.3,3.36-1.34,7.12-2.31,9.63-5a1,1,0,0,0-.45-1.72c-5.66-1.67-12.46,2.44-17.65,4.4-5.78,2.19-11.66,4.24-17.91,4.38-9,.21-17.69-1.37-24.94-6.72-.44-.33-.93.13-1,.57Z"/><path class="cls-2" d="M392.48,525.16c.55,0,1.12-.06,1.7-.11,15.91-1.39,19.83-8.86,21.62-18.28,2-10.37,2.09-14,4.65-14.92,1.88-.71,2.34-3,2.28-5.73s-.15-3-3.25-4.1c-2.46-.89-16-2.18-26.23-1.51l0,2.79c8-.46,15.77.55,18,2.07,5.11,3.45,3.62,20.13-.69,28.39-3,5.73-10.89,8.65-18,8.77ZM362.75,486c-3.51.09-17.88-4.24-28.1-5.16-.72-.07-1.47-.13-2.23-.17l-.05,2.79c8.31.4,16.91,2.36,19.86,7,4.83,7.6-3.85,26.18-11.71,30.32a19.73,19.73,0,0,1-8.84,1.94l-.05,2.63c13.76,0,18.85-10.34,20.54-13.79,3.2-6.51,2.54-15.48,10.41-15.5s6.84,8.79,9.65,15.29c1.51,3.5,6,14.27,20.25,13.85l0-2.63a19.48,19.48,0,0,1-9.32-1.89c-7.61-4.1-15.23-22.64-9.94-30.26,3.18-4.61,11.72-6.62,19.95-7.08l0-2.79c-.63,0-1.25.08-1.85.14C382.19,481.53,371,485.73,362.75,486Zm-30.33-5.33c-10.09-.56-23.46.76-25.93,1.65-3.17,1.15-3.27,1.44-3.5,4.14s.12,5,1.95,5.7c2.5.94,2.42,4.55,3.79,14.9,1.23,9.43,4.71,16.87,20.55,18.18.81.08,1.59.1,2.35.11l.05-2.63c-7.28.07-15.37-2.81-18.09-8.69-3.83-8.24-4.36-24.91,1-28.4,2.29-1.5,9.92-2.54,17.81-2.17Z"/><path class="cls-2" d="M394,581.73l2.2,11.1-7.31,59.58-26.51-29.14Z"/><polyline class="cls-5" points="330.44 581.73 362.39 623.27 394.01 581.73 394.01 580.74 362.39 622.09 330.44 580.74 330.44 581.73"/><polygon class="cls-6" points="356.26 651.11 368.2 651.11 368.25 651.51 356.2 651.51 356.26 651.11"/><path class="cls-2" d="M495.58,631.44c-65.47,30-85.11,46-92.87,53.14-12,11-18.58,52.28-25.64,87.27H673.3c-7.06-35-13.68-76.22-25.64-87.27-7.76-7.18-26.67-22.75-92.14-52.74Z"/><path class="cls-2" d="M495.57,631.44c-65.46,30-85.1,46-92.86,53.14-12,11-18.58,52.28-25.64,87.27H673.3c-7.06-35-13.68-76.22-25.64-87.27-7.76-7.18-26.67-22.75-92.14-52.74Z"/><path class="cls-2" d="M493.4,571.66v75.82c17.48,21.59,46.09,22.37,63.57,0V571.66C557,530.73,493.4,530.73,493.4,571.66Z"/><path class="cls-2" d="M458.9,524c5.6-1.93,12.72,4.71,15.91,14.82s1.24,19.88-4.37,21.81-12.72-4.71-15.9-14.83S453.3,525.93,458.9,524Z"/><path class="cls-2" d="M591.19,524c-5.6-1.93-12.72,4.71-15.91,14.82s-1.23,19.88,4.37,21.81,12.72-4.71,15.91-14.83S596.79,525.93,591.19,524Z"/><path class="cls-2" d="M525.35,664S481,675,481,677.83s16.88,94,16.88,94H558.1l6.9-93.62Z"/><polygon class="cls-2" points="493.4 632.43 493.4 647.48 507.21 771.86 483.47 771.86 457.35 716.46 482.28 699.09 451.81 684.21 479.83 638.79 493.4 632.43"/><polygon class="cls-2" points="556.97 632.51 556.97 647.48 543.03 771.86 566.77 771.86 592.89 716.46 567.96 699.09 598.43 684.21 573.53 640.19 556.97 632.51"/><path class="cls-2" d="M511.52,679.34l7.7,12.46h11.94l7.7-12.46L525.35,664Z"/><polygon class="cls-2" points="519.22 691.8 508.26 771.86 542.12 771.86 531.16 691.8 519.22 691.8"/><path class="cls-2" d="M493.4,622.42l-2.78,11.29,7.78,58.81,27-28.56Z"/><path class="cls-3" d="M493.4,608.38v2.39s16.24,20.14,31.73,20.86S557,612.14,557,612.14v-3.68"/><path class="cls-2" d="M525.24,435.56c-97.79,0-60.31,139.94-53.92,150.66,7,11.82,38.12,37.88,53.92,37.88s46.88-26.06,53.93-37.88C585.56,575.5,623,435.56,525.24,435.56Z"/><path class="cls-4" d="M569.11,438.83c-33-27.15-84-11-99.43,11.66-19.27,28.32-12.45,71.31-7.89,103.61V554c0,.32.11.65.2,1a9,9,0,0,0,.72,1.21c.16.31,1.36,0,1.75-.23a.49.49,0,0,0,.22-.43c.18-2.85,0-8.5,0-8.56-.36-4.45-1.29-8.73-1.91-13.07,3.09-20.37,12.24-24.65,17-49.21,1-1.64,2.1-3.23,3.23-4.78a38.62,38.62,0,0,1,4.25-5,25.77,25.77,0,0,0,2.41-1.73c17.78-6.8,36.1,1.35,52.88,8.51,6.42,2.73,13.62,6,20.69,5.39a5.76,5.76,0,0,0,5.57-5c8,25.13,14.65,36.79,18.55,55.21-.53,3.2-1.11,6.4-1.37,9.69,0,.06-.18,5.71,0,8.56a.48.48,0,0,0,.21.43c.4.21,1.6.54,1.76.23a11.71,11.71,0,0,0,.72-1.21,17.43,17.43,0,0,0,.42-3.5c.2-1.61.47-3.34.68-5.08C594.93,526.44,604.29,447.39,569.11,438.83Zm-50.06,26.68c-.55-.18-1.1-.34-1.65-.51.82.21,1.64.43,2.45.67Z"/><path class="cls-2" d="M557,622.42l2.2,11.11-7.31,59.58L525.35,664Z"/><polyline class="cls-5" points="493.4 622.42 525.35 663.96 556.97 622.42 556.97 621.43 525.35 662.79 493.4 621.43 493.4 622.42"/><polygon class="cls-6" points="519.22 691.8 531.16 691.8 531.21 692.21 519.16 692.21 519.22 691.8"/><path class="cls-10" d="M632.19,265c-65.47,30-85.1,46-92.87,53.14-12,11.06-18.58,52.28-25.63,87.28H809.91c-7-35-13.67-76.22-25.63-87.28-7.76-7.18-26.68-22.75-92.15-52.74Z"/><path class="cls-11" d="M632.19,265c-65.47,30-85.1,46-92.87,53.14-12,11.06-18.58,52.28-25.63,87.28H809.91c-7-35-13.67-76.22-25.63-87.28-7.76-7.18-26.68-22.75-92.15-52.74Z"/><path class="cls-12" d="M630,205.19V281c17.48,21.59,46.08,22.37,63.57,0V205.19C693.59,164.25,630,164.25,630,205.19Z"/><path class="cls-12" d="M595.52,157.53c5.59-1.93,12.72,4.71,15.9,14.83s1.24,19.87-4.36,21.8-12.72-4.71-15.91-14.83S589.92,159.46,595.52,157.53Z"/><path class="cls-12" d="M727.81,157.53c-5.6-1.93-12.73,4.71-15.92,14.83s-1.23,19.87,4.37,21.8,12.73-4.71,15.91-14.83S733.4,159.46,727.81,157.53Z"/><path class="cls-13" d="M630,255.94l-2.78,11.3L635,326l27-28.55Z"/><path class="cls-14" d="M630,241.9v2.4s16.24,20.13,31.72,20.86,31.85-19.5,31.85-19.5V242"/><path class="cls-12" d="M661.85,69.08c-97.79,0-60.31,139.94-53.92,150.66,7,11.83,38.13,37.89,53.92,37.89s46.88-26.06,53.93-37.89C722.17,209,759.65,69.08,661.85,69.08Z"/><path class="cls-15" d="M731.29,164.94c5.1-26,1.81-86.64-17.59-84.63-18-19.14-80.86-22.67-98.07-2-39.4,7.92-21.12,87-21.12,87a169.68,169.68,0,0,0,4.66,20.64q4-.3,7.93-.51c-2.85-5.44-5.22-11-6.13-15.13a103.86,103.86,0,0,1-1.6-12.71c.56-14.22,10.41-55.62,27.37-58.87,6.61-1.27,23.13,14.27,34,14.25,11.39-.31,25.69-16,33.06-14.92,17.63,2.49,32.58,40.51,32.42,58.87,0,2.36-2.86,16.45-7.13,26.42,2.84-.15,5.67-.34,8.49-.55A169.71,169.71,0,0,0,731.37,165Z"/><path class="cls-13" d="M693.59,255.94l2.19,11.11-7.31,59.58L662,297.49Z"/><polyline class="cls-16" points="630.02 255.94 661.97 297.49 693.59 255.94 693.59 254.95 661.97 296.31 630.02 254.95 630.02 255.94"/><polygon class="cls-17" points="655.83 325.33 667.77 325.33 667.83 325.73 655.77 325.73 655.83 325.33"/><path class="cls-18" d="M664.24,203.11c-1.36,0-2.38,2.07-2.38,2.07s-1-2.09-2.39-2.07c-5.6.06-28.58,2.42-35.27,11.31,0,0,32.49-.58,34.28-1.13s3.38-4.23,3.38-4.23,1.6,3.68,3.38,4.23,34.27,1.13,34.27,1.13C692.82,205.53,669.84,203.17,664.24,203.11Z"/><path class="cls-10" d="M372.93,265c-65.46,30-85.1,46-92.86,53.14-12,11.06-18.58,52.28-25.64,87.28H550.65c-7-35-13.67-76.22-25.63-87.28-7.76-7.18-26.68-22.75-92.15-52.74Z"/><path class="cls-19" d="M372.93,265c-65.46,30-85.1,46-92.86,53.14-12,11.06-18.58,52.28-25.64,87.28H550.65c-7-35-13.67-76.22-25.63-87.28-7.76-7.18-26.68-22.75-92.15-52.74Z"/><path class="cls-20" d="M370.76,205.19V281c17.48,21.59,46.09,22.37,63.57,0V205.19C434.33,164.25,370.76,164.25,370.76,205.19Z"/><path class="cls-20" d="M336.26,157.53c5.59-1.93,12.72,4.71,15.91,14.83s1.23,19.87-4.37,21.8-12.72-4.71-15.91-14.83S330.66,159.46,336.26,157.53Z"/><path class="cls-20" d="M468.55,157.53c-5.6-1.93-12.73,4.71-15.91,14.83s-1.23,19.87,4.36,21.8,12.73-4.71,15.92-14.83S474.15,159.46,468.55,157.53Z"/><path class="cls-14" d="M370.76,241.9v2.4s16.24,20.13,31.73,20.86,31.84-19.5,31.84-19.5V242"/><path class="cls-20" d="M402.6,69.08c-97.8,0-60.31,139.94-53.93,150.66,7.05,11.83,38.13,37.89,53.93,37.89s46.88-26.06,53.92-37.89C462.91,209,500.39,69.08,402.6,69.08Z"/><path class="cls-21" d="M446.47,72.35c-33-27.15-84-11-99.43,11.67-19.27,28.31-12.46,71.3-7.89,103.6,0-.05,0-.09,0-.14.06.33.12.66.2,1a11.88,11.88,0,0,0,.72,1.22c.17.3,1.36,0,1.76-.23A.53.53,0,0,0,342,189c.18-2.86,0-8.51,0-8.57-.36-4.44-1.29-8.72-1.91-13.07,3.09-20.36,12.24-24.64,17-49.21q1.53-2.46,3.24-4.78a39.3,39.3,0,0,1,4.25-5,26.59,26.59,0,0,0,2.41-1.73c17.77-6.8,36.1,1.36,52.88,8.51,6.41,2.74,7.36-9.16,14.44-9.74,3-.24,9.27,10.46,11.81,10.14,25.19-3.1,14.66,36.79,18.56,55.22-.54,3.2-1.11,6.39-1.38,9.68,0,.06-.17,5.71,0,8.57a.5.5,0,0,0,.22.43c.4.2,1.59.53,1.76.23a11.88,11.88,0,0,0,.72-1.22,17.34,17.34,0,0,0,.42-3.5c.2-1.61.47-3.33.68-5.07C472.28,160,481.65,80.92,446.47,72.35ZM396.4,99l-1.64-.52c.81.21,1.63.43,2.45.67Z"/><polygon class="cls-17" points="396.57 325.33 408.51 325.33 408.57 325.73 396.52 325.73 396.57 325.33"/><path class="cls-21" d="M421.47,81.8S393,61.09,367.58,72.24s-47.78,15.4-53.37,8c0,0-15.76,34.52,13.72,52.57s63,3.72,72.7-7.43S426,96.14,434.68,99.86,421.47,81.8,421.47,81.8Z"/><path class="cls-10" d="M228.05,402c-65.46,30-85.1,46-92.86,53.14-12,11.06-18.58,52.28-25.64,87.28H405.78c-7.06-35-13.68-76.22-25.64-87.28-7.76-7.18-26.68-22.75-92.15-52.73Z"/><path class="cls-22" d="M228.05,402c-65.46,30-85.1,46-92.86,53.14-12,11.06-18.58,52.28-25.64,87.28H405.78c-7.06-35-13.68-76.22-25.64-87.28-7.76-7.18-26.68-22.75-92.15-52.73Z"/><path class="cls-23" d="M225.88,342.2V418c17.48,21.59,46.09,22.37,63.57,0V342.2C289.45,301.27,225.88,301.27,225.88,342.2Z"/><path class="cls-23" d="M191.38,294.54c5.6-1.93,12.72,4.71,15.91,14.83s1.23,19.88-4.37,21.8-12.72-4.71-15.9-14.83S185.78,296.47,191.38,294.54Z"/><path class="cls-23" d="M323.67,294.54c-5.6-1.93-12.72,4.71-15.91,14.83s-1.23,19.88,4.36,21.8,12.73-4.71,15.92-14.83S329.27,296.47,323.67,294.54Z"/><path class="cls-24" d="M257.83,434.5s-44.36,11.06-44.36,13.86,16.88,94,16.88,94h60.23l6.9-93.62Z"/><polygon class="cls-25" points="225.88 402.97 225.88 418.01 239.69 542.39 215.94 542.39 189.82 486.99 214.76 469.63 184.29 454.75 212.31 409.32 225.88 402.97"/><polygon class="cls-26" points="289.45 403.04 289.45 418.01 275.51 542.39 299.25 542.39 325.37 486.99 300.44 469.63 330.91 454.75 306.01 410.72 289.45 403.04"/><path class="cls-27" d="M244,449.88l7.7,12.46h11.93l7.71-12.46L257.83,434.5Z"/><polygon class="cls-27" points="251.69 462.34 240.73 542.39 274.6 542.39 263.63 462.34 251.69 462.34"/><path class="cls-24" d="M225.88,393l-2.78,11.29,7.78,58.8,26.95-28.55Z"/><path class="cls-14" d="M225.88,378.91v2.4s16.24,20.13,31.73,20.86,31.84-19.49,31.84-19.49V379"/><path class="cls-23" d="M257.72,206.1c-97.8,0-60.31,139.94-53.92,150.66,7,11.82,38.12,37.88,53.92,37.88s46.88-26.06,53.93-37.88C318,346,355.51,206.1,257.72,206.1Z"/><path class="cls-24" d="M289.45,393l2.19,11.1-7.3,59.58L257.83,434.5Z"/><polyline class="cls-16" points="225.88 392.96 257.83 434.5 289.45 392.96 289.45 391.97 257.83 433.32 225.88 391.97 225.88 392.96"/><polygon class="cls-17" points="251.69 462.34 263.63 462.34 263.69 462.75 251.64 462.75 251.69 462.34"/><path class="cls-28" d="M321.32,309.66c-.5,1.91-1,3.61-1,3.61s-8.76,31.18-16.26,40.84c-14.51,18.7-33.45,30.29-46.36,30.36-12.69.08-31.38-10.44-46.05-28.73-5.8-7.23-16.46-39.81-16.63-42.47a39.23,39.23,0,0,0-.84-5c-2-.06-2,13.83-2,13.83,3,16.18,5,26.84,11.13,35.72,9.71,14.18,37.13,36.6,53.77,36.6s44.07-22.42,53.78-36.6C317,348.89,318.64,337,322,320.17,322,320.17,322.84,309.79,321.32,309.66Z"/><path class="cls-29" d="M287.71,351.47c-2.26-5-20.5-11.7-23.78-13s-5.61,3.14-5.61,3.14-2.32-4.4-5.6-3.14-21.53,8-23.79,13-3.35,8.42-3.35,11.83v15.52s3.24.22,5.1-1.25,4-5.66,4-10.86a10.55,10.55,0,0,1,8.11-10.34c4.7-1,15.55-2.88,15.55-6,0,3.08,11.61,5.21,15.55,6A10.45,10.45,0,0,1,282,366.71c0,5.2,2.12,9.39,4,10.86s5.1,1.25,5.1,1.25V363.3C291.06,359.89,290,356.45,287.71,351.47Z"/><path class="cls-27" d="M288.78,330.79c.54,0,1.12-.05,1.7-.1,15.91-1.39,19.83-8.86,21.61-18.29,2-10.36,2.1-14,4.66-14.92,1.87-.7,2.33-3,2.28-5.72s-.15-3-3.25-4.11c-2.46-.89-16-2.18-26.23-1.51l0,2.79c8-.46,15.77.55,18,2.07,5.11,3.46,3.62,20.13-.69,28.39-3,5.74-10.89,8.65-18,8.78Zm-29.73-39.2c-3.51.09-17.88-4.24-28.1-5.16-.72-.07-1.47-.13-2.24-.17l0,2.8c8.31.39,16.91,2.36,19.85,7,4.84,7.6-3.85,26.19-11.7,30.33a20,20,0,0,1-8.84,1.94l0,2.63c13.76,0,18.84-10.34,20.54-13.8,3.19-6.51,2.54-15.48,10.41-15.49s6.83,8.78,9.64,15.28c1.52,3.51,6,14.27,20.26,13.85l0-2.62a19.67,19.67,0,0,1-9.33-1.9c-7.61-4.1-15.22-22.64-9.93-30.26,3.18-4.6,11.71-6.62,19.95-7.08l0-2.79c-.63,0-1.25.08-1.86.15C278.49,287.16,267.33,291.37,259.05,291.59Zm-30.34-5.33c-10.09-.56-23.45.77-25.92,1.65-3.18,1.15-3.27,1.44-3.5,4.14s.12,5,1.94,5.7c2.51.95,2.42,4.55,3.8,14.91,1.23,9.42,4.71,16.86,20.54,18.18.81.07,1.6.1,2.36.11l0-2.63c-7.28.06-15.37-2.82-18.1-8.7-3.82-8.24-4.36-24.9,1-28.39,2.3-1.51,9.93-2.55,17.82-2.17Z"/><path class="cls-30" d="M134.45,375c6-11.58,54-21.79,73.54,19.37s9.72,55.56,20.51,70.09S213.84,591.4,153.56,591c-64.44-.39-78.49-107.93-65.67-129.72S89.51,375,134.45,375Z"/><path class="cls-31" d="M181.73,566.36c-.54.9-54.22,1.79-54.81,2.68-16.86,25.12-53.28,29.75-82.24,36.52s-29.93,45-30,70.44h281c-.05-25.47-.59-63.57-30-70.44S197.72,592.63,181.73,566.36Z"/><path class="cls-13" d="M183.37,568.85v13.83L169.66,676H140.44l-13.59-92.32V569.16s0-.09.07-.12c.6-.89,54.26-1.78,54.81-2.67C182.25,567.21,182.79,568,183.37,568.85Z"/><path class="cls-32" d="M127,506.34v72c14.11,30.15,39.43,30.93,56.3,0v-72C183.33,467.44,127,467.44,127,506.34Z"/><path class="cls-32" d="M229.44,472.7c-5.63-2.65-13.57,3.84-17.74,14.49s-3,21.43,2.61,24.07,13.57-3.84,17.75-14.49S235.06,475.34,229.44,472.7Z"/><path class="cls-32" d="M81,472.7c5.62-2.65,13.56,3.84,17.74,14.49s3,21.43-2.62,24.07-13.56-3.84-17.74-14.49S75.36,475.34,81,472.7Z"/><path class="cls-33" d="M127,542.17v2s17.67,18.43,27.89,18.43S183.33,544,183.33,544v-1.8Z"/><path class="cls-32" d="M155.24,556.17c-17.48,0-54.42-30.1-65.83-73.21-11.53-43.53,10.18-106,65.83-106s77.35,62.44,65.82,106C209.64,526.07,172.72,556.17,155.24,556.17Z"/><path class="cls-30" d="M166.55,431c13.65,29.91,19.19,38.74,37.35,30.84s14.7,14.23,11.4,30c16.08-21.32,14.19-41.57,9.19-62.16-5.48-22.56-33.12-56.88-59-56.25-14.09-1.55-35.41.28-58.09,17.36C67.76,420.59,81,487.59,91.65,495.49c-10.33-62.05,15-49.42,32.43-81.88C129.81,399.34,151.71,398.46,166.55,431Z"/><polygon class="cls-22" points="140.66 675.98 116.92 675.98 115.29 676.01 90.8 652.67 115.73 635.3 85.26 620.41 105.44 587.68 113.27 574.99 126.85 568.63 126.85 583.68 140.44 676.01 140.66 675.98"/><polygon class="cls-22" points="194.36 634.3 219.28 651.67 194.74 676.01 193.17 675.98 169.43 675.98 169.66 676.01 183.37 582.68 183.37 567.72 199.93 575.4 207.23 588.34 224.82 619.42 194.36 634.3"/><path class="cls-29" d="M729.19,235c3.31-11.57,29.67-21.78,40.43,19.37S775,310,780.89,324.5s-8.06,127-41.2,126.6c-35.42-.39-43.15-107.93-36.1-129.72S704.48,235,729.19,235Z"/><path class="cls-29" d="M845.76,235c-3.31-11.57-29.67-21.78-40.42,19.37S800,310,794.06,324.5s8.06,127,41.2,126.6c35.42-.39,43.15-107.93,36.1-129.72S870.47,235,845.76,235Z"/><path class="cls-19" d="M816.15,403.86c-.55.89-54.22,1.79-54.82,2.67-16.85,25.12-53.27,29.76-82.24,36.52-28.81,6.73-29.93,45-30,70.45h281c0-25.47-.58-63.58-30-70.45S832.14,430.12,816.15,403.86Z"/><path class="cls-19" d="M817.78,406.35v13.83L804.07,513.5H774.85l-13.58-92.32V406.65a.67.67,0,0,1,.07-.11c.6-.89,54.26-1.78,54.81-2.68C816.67,404.71,817.2,405.54,817.78,406.35Z"/><path class="cls-34" d="M761.45,343.83v72.05c14.1,30.14,39.42,30.93,56.3,0V343.83C817.75,304.93,761.45,304.93,761.45,343.83Z"/><path class="cls-34" d="M863.86,310.19c-5.63-2.64-13.57,3.85-17.75,14.49s-3,21.44,2.62,24.08,13.57-3.84,17.75-14.49S869.48,312.84,863.86,310.19Z"/><path class="cls-34" d="M715.39,310.19C721,307.55,729,314,733.14,324.68s3,21.44-2.62,24.08-13.57-3.84-17.75-14.49S709.78,312.84,715.39,310.19Z"/><path class="cls-33" d="M761.45,379.67v2s17.66,18.43,27.89,18.43,28.41-18.63,28.41-18.63v-1.8Z"/><path class="cls-34" d="M789.66,393.67c-17.49,0-54.42-30.1-65.83-73.21-11.53-43.54,10.18-106,65.83-106s77.35,62.44,65.82,106C844.06,363.57,807.13,393.67,789.66,393.67Z"/><path class="cls-29" d="M858.91,267.17c-5.48-22.56-33.12-56.88-59-56.25a73.7,73.7,0,0,0-12.62-.28,73.81,73.81,0,0,0-12.63.28c-25.92-.63-53.56,33.69-59,56.25-4.41,18.14-6.39,36,4.19,54.59,1.91,5.61,4.16,9.63,6.31,11.22-2.38-14.27-2.87-24.58-2-32.41,2-3.09,5.69-4.05,12.09-1.26,18.15,7.89,23.69-.94,37.35-30.84,4.19-9.18,7.41-20,13.73-20s9.54,10.82,13.73,20c13.65,29.9,19.19,38.73,37.35,30.84,6.4-2.79,10.1-1.83,12.09,1.26.86,7.83.38,18.14-2,32.41,2.15-1.59,4.4-5.61,6.3-11.22C865.3,303.18,863.31,285.31,858.91,267.17Z"/><polygon class="cls-22" points="775.08 513.47 751.34 513.47 749.71 513.5 725.21 490.17 750.15 472.8 719.68 457.9 739.85 425.18 747.69 412.48 761.26 406.13 761.26 421.18 774.85 513.5 775.08 513.47"/><polygon class="cls-22" points="828.78 471.8 853.7 489.16 829.16 513.5 827.59 513.47 803.84 513.47 804.07 513.5 817.78 420.18 817.78 405.22 834.35 412.9 841.65 425.83 859.23 456.92 828.78 471.8"/><path class="cls-10" d="M887.58,535.8c-65.47,30-85.1,46-92.87,53.14-12,11.06-18.58,52.28-25.63,87.28H1065.3c-7-35-13.67-76.22-25.63-87.28-7.76-7.18-26.68-22.75-92.15-52.74Z"/><path class="cls-13" d="M887.58,535.8c-65.47,30-85.1,46-92.87,53.14-12,11.06-18.58,52.28-25.63,87.28H1065.3c-7-35-13.67-76.22-25.63-87.28-7.76-7.18-26.68-22.75-92.15-52.74Z"/><path class="cls-35" d="M885.41,476v75.81c17.48,21.59,46.09,22.37,63.57,0V476C949,435.09,885.41,435.09,885.41,476Z"/><path class="cls-20" d="M850.91,428.37c5.59-1.93,12.72,4.71,15.9,14.83s1.24,19.87-4.36,21.8-12.72-4.71-15.91-14.83S845.31,430.3,850.91,428.37Z"/><path class="cls-20" d="M983.2,428.37c-5.6-1.93-12.73,4.71-15.91,14.83s-1.23,19.87,4.36,21.8,12.73-4.71,15.91-14.83S988.79,430.3,983.2,428.37Z"/><path class="cls-24" d="M903.52,583.71l7.7,12.46h11.94l7.7-12.46-13.5-15.38Z"/><polygon class="cls-24" points="911.22 596.17 900.26 676.22 934.13 676.22 923.16 596.17 911.22 596.17"/><path class="cls-22" d="M885.41,526.78l-2.78,11.3,7.78,58.8,27-28.55Z"/><path class="cls-14" d="M885.41,512.74v2.4s16.24,20.13,31.73,20.86S949,516.5,949,516.5v-3.68"/><path class="cls-35" d="M917.25,339.92c-97.8,0-60.32,139.94-53.93,150.66,7,11.83,38.13,37.89,53.93,37.89s46.88-26.06,53.92-37.89C977.56,479.86,1015,339.92,917.25,339.92Z"/><path class="cls-21" d="M874.58,343.19c33-27.15,98.15-23.27,113.55-.64-6.21,22.74-1.66,83.61-6.23,115.91v-.14c0,.33-.11.66-.19,1a10.35,10.35,0,0,1-.73,1.22c-.16.3-1.35,0-1.75-.23a.5.5,0,0,1-.22-.43c-.18-2.86,0-8.51,0-8.57.36-4.44,1.29-8.72,1.91-13.07-3.09-20.36-12.24-24.64-17-49.21q-1.53-2.46-3.24-4.78a39.3,39.3,0,0,0-4.25-5A25.26,25.26,0,0,1,954,377.5c-17.77-6.8-17.19-1.75-34,5.41-6.41,2.73-24.44,8-31.52,7.43-3-.24-13.42-1.26-13.65-3.93-13.29,21.46-14.65,36.79-18.55,55.22.53,3.2,1.11,6.39,1.38,9.68,0,.06.17,5.71,0,8.57a.53.53,0,0,1-.22.43c-.4.2-1.6.53-1.76.23a11.88,11.88,0,0,1-.72-1.22,17.34,17.34,0,0,1-.42-3.5c-.2-1.61-.47-3.33-.68-5.07C848.77,430.8,839.4,351.76,874.58,343.19Zm50.06,26.69,1.65-.52c-.82.21-1.63.43-2.45.67Z"/><path class="cls-22" d="M949,526.78l2.19,11.11-7.3,59.58-26.51-29.14Z"/><polyline class="cls-16" points="885.41 526.78 917.36 568.33 948.98 526.78 948.98 525.79 917.36 567.15 885.41 525.79 885.41 526.78"/><polygon class="cls-17" points="911.22 596.17 923.16 596.17 923.22 596.57 911.17 596.57 911.22 596.17"/><path class="cls-10" d="M500.22,408.35c-65.47,30-85.1,46-92.87,53.14-12,11.05-18.58,52.28-25.63,87.28H677.94c-7.05-35-13.67-76.23-25.63-87.28-7.76-7.18-26.68-22.75-92.15-52.74Z"/><path class="cls-31" d="M500.22,408.35c-65.47,30-85.1,46-92.87,53.14-12,11.05-18.58,52.28-25.63,87.28H677.94c-7.05-35-13.67-76.23-25.63-87.28-7.76-7.18-26.68-22.75-92.15-52.74Z"/><path class="cls-36" d="M498.05,348.58v75.81c17.48,21.59,46.08,22.37,63.57,0V348.58C561.62,307.64,498.05,307.64,498.05,348.58Z"/><path class="cls-36" d="M463.55,300.92c5.59-1.93,12.72,4.71,15.9,14.82s1.24,19.88-4.36,21.81-12.72-4.71-15.91-14.83S458,302.85,463.55,300.92Z"/><path class="cls-36" d="M595.84,300.92c-5.6-1.93-12.73,4.71-15.91,14.82s-1.24,19.88,4.36,21.81,12.73-4.71,15.91-14.83S601.43,302.85,595.84,300.92Z"/><path class="cls-24" d="M516.16,456.25l7.7,12.46H535.8l7.7-12.46L530,440.87Z"/><polygon class="cls-24" points="523.86 468.71 512.9 548.77 546.76 548.77 535.8 468.71 523.86 468.71"/><path class="cls-22" d="M498.05,399.33l-2.78,11.3,7.77,58.8,27-28.56Z"/><path class="cls-14" d="M498.05,385.29v2.39s16.24,20.14,31.72,20.87,31.85-19.5,31.85-19.5v-3.68"/><path class="cls-36" d="M529.88,212.47c-97.79,0-60.31,139.94-53.92,150.66C483,375,514.09,401,529.88,401s46.88-26.06,53.93-37.89C590.2,352.41,627.68,212.47,529.88,212.47Z"/><path class="cls-37" d="M575,215.74c-33.69-31.05-99.67,8.6-115.07,31.22,6.22,22.75,3.19,51.75,7.76,84,0-.05,0-.09,0-.14.06.32.12.66.2,1a10.74,10.74,0,0,0,.72,1.21c.17.31,1.36,0,1.76-.22a.5.5,0,0,0,.21-.44c.19-2.85,0-8.5,0-8.56-.36-4.44.24-9-.38-13.31,3.09-20.36.59-21.21,11.24-41.55a80.18,80.18,0,0,1,7.38-9.29c17.77-6.81,24,4.53,40.74,11.68,6.42,2.73,16.08,2.92,23.18,2.92,11.06,0,21.77-12.68,22-15.35,13.3,21.46,14.66,36.79,18.56,55.22-.54,3.19-1.11,6.39-1.38,9.68,0,.06-.17,5.71,0,8.56a.53.53,0,0,0,.22.44c.39.2,1.59.53,1.75.22a9.46,9.46,0,0,0,.73-1.21,17.34,17.34,0,0,0,.42-3.5c.2-1.61.47-3.34.68-5.07C600.8,303.35,610.17,224.31,575,215.74Zm-50.05,26.69-1.65-.52c.81.21,1.63.43,2.45.67Z"/><path class="cls-28" d="M211.93,200.52c34.51-31.05,102.11,8.59,117.89,31.22-6.37,22.74-3.27,51.74-7.95,84.05,0-.05,0-.1,0-.14-.06.32-.12.65-.21,1a9.08,9.08,0,0,1-.74,1.21c-.16.3-1.39,0-1.79-.23a.51.51,0,0,1-.23-.43c-.18-2.85,0-8.5,0-8.56.37-4.45-.25-9,.39-13.31-3.17-20.36-.61-21.22-11.52-41.56a82.16,82.16,0,0,0-7.55-9.29c-18.22-6.8-24.56,4.53-41.75,11.69-6.57,2.73-16.47,2.92-23.75,2.92-11.32,0-22.3-12.69-22.53-15.35-13.61,21.45-15,36.78-19,55.21.55,3.2,1.14,6.4,1.41,9.69,0,.06.18,5.71,0,8.56a.5.5,0,0,1-.22.43c-.4.2-1.63.53-1.8.23a10.26,10.26,0,0,1-.74-1.21,16.75,16.75,0,0,1-.43-3.5c-.21-1.61-.48-3.34-.69-5.08C185.47,288.13,175.88,209.08,211.93,200.52Zm51.28,26.68,1.69-.51c-.84.21-1.67.43-2.51.67Z"/><path class="cls-22" d="M561.62,399.33l2.19,11.11L556.5,470,530,440.87Z"/><polyline class="cls-16" points="498.05 399.33 530 440.87 561.62 399.33 561.62 398.34 530 439.7 498.05 398.34 498.05 399.33"/><polygon class="cls-17" points="523.86 468.71 535.8 468.71 535.86 469.12 523.8 469.12 523.86 468.71"/><path class="cls-38" d="M702.78,423.66c6.93-12.58,62.18-23.67,84.71,21s11.19,60.39,23.62,76.18.73,52-7.91,55.19-5.17,15.7-1,21.08c18,23-8,61.72-77.45,61.32C650.57,658.05,636,613,655,599c6.2-4.59,8.61-13.39,1.81-21.14s-22.46-36.64-7.7-60.32S651,423.63,702.78,423.66Z"/><path class="cls-27" d="M755.15,607.78c-.55.9-54.22,1.79-54.82,2.68-16.85,25.12-53.27,36.12-82.24,42.89s-29.93,45-30,70.45h281c0-25.47-.58-63.58-30-70.45S771.14,634.05,755.15,607.78Z"/><path class="cls-39" d="M700.45,554.13v72c14.1,30.14,39.42,30.92,56.3,0v-72C756.75,515.23,700.45,515.23,700.45,554.13Z"/><path class="cls-39" d="M802.85,520.49c-5.62-2.64-13.56,3.85-17.74,14.49s-3,21.44,2.62,24.08,13.57-3.84,17.74-14.49S808.48,523.14,802.85,520.49Z"/><path class="cls-39" d="M654.39,520.49C660,517.85,668,524.33,672.14,535s3,21.44-2.62,24.08-13.57-3.84-17.75-14.49S648.77,523.14,654.39,520.49Z"/><path class="cls-33" d="M700.45,590v2s17.66,18.43,27.89,18.43,28.41-18.63,28.41-18.63V590Z"/><path class="cls-39" d="M728.65,604c-17.48,0-54.41-30.11-65.82-73.21-11.53-43.54,10.18-106,65.82-106s77.36,62.44,65.83,106C783.06,573.86,746.13,604,728.65,604Z"/><path class="cls-18" d="M715.56,478.77c-13.66,29.9-19.2,38.73-37.35,30.83s-14.71,14.24-11.41,30c-16.07-21.32-14.18-41.57-9.19-62.15,5.49-22.56,33.12-56.89,59-56.25,14.09-1.55,35.41.28,58.09,17.35,39.6,29.82,26.37,96.81,15.71,104.71,10.33-62-15-49.41-32.43-81.87C752.3,447.14,730.4,446.26,715.56,478.77Z"/><rect class="cls-40" x="724.92" y="649.39" width="5.77" height="74.41"/><polygon class="cls-13" points="700.45 610.4 680.36 629.59 705.91 671.01 727.96 649.15 700.45 610.4"/><polygon class="cls-13" points="756.75 610.26 776.84 630.26 750.01 671.01 727.96 649.15 756.75 610.26"/><path class="cls-27" d="M759.17,553.21c.55,0,1.12-.06,1.71-.11,16-1.39,19.91-8.89,21.7-18.36,2-10.41,2.11-14,4.68-15,1.88-.71,2.34-3,2.29-5.75s-.15-3-3.27-4.12c-2.46-.9-16.1-2.19-26.34-1.52l0,2.8c8.06-.46,15.84.56,18.09,2.08,5.13,3.47,3.63,20.22-.69,28.51-3,5.76-10.94,8.69-18.09,8.81Zm-29.86-39.37c-3.52.09-17.95-4.26-28.21-5.18-.73-.07-1.48-.13-2.25-.17l0,2.81c8.34.39,17,2.37,19.93,7,4.86,7.63-3.87,26.3-11.75,30.46a20,20,0,0,1-8.88,2l-.05,2.64c13.82,0,18.92-10.39,20.63-13.86C721.9,533,721.23,524,729.14,524s6.86,8.82,9.69,15.35c1.52,3.52,6,14.33,20.34,13.91l0-2.64a19.51,19.51,0,0,1-9.36-1.9c-7.65-4.12-15.3-22.74-10-30.39,3.19-4.62,11.76-6.64,20-7.11l0-2.8c-.63,0-1.25.08-1.86.14C748.84,509.39,737.62,513.62,729.31,513.84Zm-30.46-5.35c-10.14-.57-23.56.77-26,1.66-3.19,1.15-3.29,1.44-3.51,4.15s.12,5,2,5.73c2.51,1,2.43,4.57,3.81,15,1.24,9.46,4.73,16.94,20.64,18.26.81.07,1.59.1,2.36.11l.05-2.64c-7.31.06-15.44-2.83-18.17-8.73-3.84-8.29-4.38-25,1-28.52,2.31-1.52,10-2.56,17.9-2.18Z"/><polygon class="cls-41" points="700.45 610.4 727.96 649.15 756.75 610.26 756.72 609.43 727.96 648.06 700.45 609.43 700.45 610.4"/><path class="cls-10" d="M332.62,590.74c-65.47,30-85.11,46-92.87,53.14-12,11.06-18.58,52.28-25.64,87.28H510.34c-7.06-35-13.67-76.22-25.64-87.28-7.76-7.18-26.67-22.75-92.14-52.73Z"/><path class="cls-11" d="M332.62,590.74c-65.47,30-85.11,46-92.87,53.14-12,11.06-18.58,52.28-25.64,87.28H510.34c-7.06-35-13.67-76.22-25.64-87.28-7.76-7.18-26.67-22.75-92.14-52.73Z"/><path class="cls-42" d="M330.44,531v75.81c17.48,21.59,46.09,22.37,63.57,0V531C394,490,330.44,490,330.44,531Z"/><path class="cls-42" d="M295.94,483.31c5.6-1.93,12.72,4.71,15.91,14.83s1.24,19.88-4.37,21.8-12.72-4.71-15.9-14.83S290.34,485.24,295.94,483.31Z"/><path class="cls-42" d="M428.23,483.31c-5.6-1.93-12.72,4.71-15.91,14.83s-1.23,19.88,4.37,21.8,12.72-4.71,15.91-14.83S433.83,485.24,428.23,483.31Z"/><path class="cls-13" d="M362.39,623.27S318,634.33,318,637.13s16.88,94,16.88,94h60.23l6.9-93.62Z"/><polygon class="cls-43" points="330.44 591.74 330.44 606.78 344.25 731.16 320.51 731.16 294.39 675.76 319.32 658.4 288.85 643.51 316.87 598.09 330.44 591.74"/><polygon class="cls-43" points="394.01 591.81 394.01 606.78 380.07 731.16 403.81 731.16 429.93 675.76 405 658.4 435.47 643.51 410.57 599.49 394.01 591.81"/><path class="cls-19" d="M348.56,638.65l7.7,12.46H368.2l7.7-12.46-13.51-15.38Z"/><polygon class="cls-19" points="356.26 651.11 345.3 731.16 379.16 731.16 368.2 651.11 356.26 651.11"/><path class="cls-22" d="M330.44,581.73,327.66,593l7.78,58.8,26.95-28.55Z"/><path class="cls-14" d="M330.44,567.68v2.4s16.24,20.13,31.73,20.86S394,571.44,394,571.44v-3.68"/><path class="cls-44" d="M412.59,400.6c14.55,2.42,22.59,12.84,26,27,9,36.81-9.8,116.66-74.8,117.61-33.51.5-57.65-8.41-66.44-36.75s-12.41-74,6.71-99.59C328.15,376.65,378.63,376.35,412.59,400.6Z"/><path class="cls-42" d="M362.28,394.87c-97.79,0-60.31,139.94-53.92,150.66,7,11.82,38.12,37.88,53.92,37.88s46.88-26.06,53.93-37.88C422.6,534.81,460.08,394.87,362.28,394.87Z"/><path class="cls-44" d="M315,438.82c17.41,11.07,30.89-5.44,46.61,1.64s58.27-27,67.55,47.82c14.88-54.24-7.67-93-64.42-95.58-60.61-2.75-85.15,54.95-68.4,108.83C295.22,472.34,302.05,453.24,315,438.82Z"/><path class="cls-9" d="M313.39,434c-1.13,9.1,17.22,11,22.94,11.28a49.45,49.45,0,0,0,18.38-2.85c3.73-1.26,7.33-2.85,11-4.3,3.36-1.34,7.12-2.31,9.63-5a1,1,0,0,0-.45-1.72c-5.66-1.67-12.46,2.44-17.65,4.4-5.78,2.19-11.66,4.24-17.91,4.38-9,.21-17.69-1.37-24.94-6.72-.44-.33-.93.13-1,.57Z"/><path class="cls-19" d="M392.48,525.16c.55,0,1.12-.06,1.7-.11,15.91-1.39,19.83-8.86,21.62-18.28,2-10.37,2.09-14,4.65-14.92,1.88-.71,2.34-3,2.28-5.73s-.15-3-3.25-4.1c-2.46-.89-16-2.18-26.23-1.51l0,2.79c8-.46,15.77.55,18,2.07,5.11,3.45,3.62,20.13-.69,28.39-3,5.73-10.89,8.65-18,8.77ZM362.75,486c-3.51.09-17.88-4.24-28.1-5.16-.72-.07-1.47-.13-2.23-.17l-.05,2.79c8.31.4,16.91,2.36,19.86,7,4.83,7.6-3.85,26.18-11.71,30.32a19.73,19.73,0,0,1-8.84,1.94l-.05,2.63c13.76,0,18.85-10.34,20.54-13.79,3.2-6.51,2.54-15.48,10.41-15.5s6.84,8.79,9.65,15.29c1.51,3.5,6,14.27,20.25,13.85l0-2.63a19.48,19.48,0,0,1-9.32-1.89c-7.61-4.1-15.23-22.64-9.94-30.26,3.18-4.61,11.72-6.62,19.95-7.08l0-2.79c-.63,0-1.25.08-1.85.14C382.19,481.53,371,485.73,362.75,486Zm-30.33-5.33c-10.09-.56-23.46.76-25.93,1.65-3.17,1.15-3.27,1.44-3.5,4.14s.12,5,1.95,5.7c2.5.94,2.42,4.55,3.79,14.9,1.23,9.43,4.71,16.87,20.55,18.18.81.08,1.59.1,2.35.11l.05-2.63c-7.28.07-15.37-2.81-18.09-8.69-3.83-8.24-4.36-24.91,1-28.4,2.29-1.5,9.92-2.54,17.81-2.17Z"/><path class="cls-22" d="M394,581.73l2.2,11.1-7.31,59.58-26.51-29.14Z"/><polyline class="cls-16" points="330.44 581.73 362.39 623.27 394.01 581.73 394.01 580.74 362.39 622.09 330.44 580.74 330.44 581.73"/><polygon class="cls-17" points="356.26 651.11 368.2 651.11 368.25 651.51 356.2 651.51 356.26 651.11"/><path class="cls-10" d="M495.58,631.44c-65.47,30-85.11,46-92.87,53.14-12,11-18.58,52.28-25.64,87.27H673.3c-7.06-35-13.68-76.22-25.64-87.27-7.76-7.18-26.67-22.75-92.14-52.74Z"/><path class="cls-11" d="M495.57,631.44c-65.46,30-85.1,46-92.86,53.14-12,11-18.58,52.28-25.64,87.27H673.3c-7.06-35-13.68-76.22-25.64-87.27-7.76-7.18-26.67-22.75-92.14-52.74Z"/><path class="cls-45" d="M493.4,571.66v75.82c17.48,21.59,46.09,22.37,63.57,0V571.66C557,530.73,493.4,530.73,493.4,571.66Z"/><path class="cls-45" d="M458.9,524c5.6-1.93,12.72,4.71,15.91,14.82s1.24,19.88-4.37,21.81-12.72-4.71-15.9-14.83S453.3,525.93,458.9,524Z"/><path class="cls-45" d="M591.19,524c-5.6-1.93-12.72,4.71-15.91,14.82s-1.23,19.88,4.37,21.81,12.72-4.71,15.91-14.83S596.79,525.93,591.19,524Z"/><path class="cls-46" d="M525.35,664S481,675,481,677.83s16.88,94,16.88,94H558.1l6.9-93.62Z"/><polygon class="cls-25" points="493.4 632.43 493.4 647.48 507.21 771.86 483.47 771.86 457.35 716.46 482.28 699.09 451.81 684.21 479.83 638.79 493.4 632.43"/><polygon class="cls-26" points="556.97 632.51 556.97 647.48 543.03 771.86 566.77 771.86 592.89 716.46 567.96 699.09 598.43 684.21 573.53 640.19 556.97 632.51"/><path class="cls-47" d="M511.52,679.34l7.7,12.46h11.94l7.7-12.46L525.35,664Z"/><polygon class="cls-47" points="519.22 691.8 508.26 771.86 542.12 771.86 531.16 691.8 519.22 691.8"/><path class="cls-13" d="M493.4,622.42l-2.78,11.29,7.78,58.81,27-28.56Z"/><path class="cls-14" d="M493.4,608.38v2.39s16.24,20.14,31.73,20.86S557,612.14,557,612.14v-3.68"/><path class="cls-45" d="M525.24,435.56c-97.79,0-60.31,139.94-53.92,150.66,7,11.82,38.12,37.88,53.92,37.88s46.88-26.06,53.93-37.88C585.56,575.5,623,435.56,525.24,435.56Z"/><path class="cls-28" d="M569.11,438.83c-33-27.15-84-11-99.43,11.66-19.27,28.32-12.45,71.31-7.89,103.61V554c0,.32.11.65.2,1a9,9,0,0,0,.72,1.21c.16.31,1.36,0,1.75-.23a.49.49,0,0,0,.22-.43c.18-2.85,0-8.5,0-8.56-.36-4.45-1.29-8.73-1.91-13.07,3.09-20.37,12.24-24.65,17-49.21,1-1.64,2.1-3.23,3.23-4.78a38.62,38.62,0,0,1,4.25-5,25.77,25.77,0,0,0,2.41-1.73c17.78-6.8,36.1,1.35,52.88,8.51,6.42,2.73,13.62,6,20.69,5.39a5.76,5.76,0,0,0,5.57-5c8,25.13,14.65,36.79,18.55,55.21-.53,3.2-1.11,6.4-1.37,9.69,0,.06-.18,5.71,0,8.56a.48.48,0,0,0,.21.43c.4.21,1.6.54,1.76.23a11.71,11.71,0,0,0,.72-1.21,17.43,17.43,0,0,0,.42-3.5c.2-1.61.47-3.34.68-5.08C594.93,526.44,604.29,447.39,569.11,438.83Zm-50.06,26.68c-.55-.18-1.1-.34-1.65-.51.82.21,1.64.43,2.45.67Z"/><path class="cls-13" d="M557,622.42l2.2,11.11-7.31,59.58L525.35,664Z"/><polyline class="cls-16" points="493.4 622.42 525.35 663.96 556.97 622.42 556.97 621.43 525.35 662.79 493.4 621.43 493.4 622.42"/><polygon class="cls-17" points="519.22 691.8 531.16 691.8 531.21 692.21 519.16 692.21 519.22 691.8"/><g class="cls-48"><path class="cls-49" d="M1532.07,625.4c-4.65-11.55-15.93-20.9-8.33-29.44,6.66-5.16,14.32-7.06,22.32-7.4s16.5,1.27,24.84,2.71,16.71,3.2,24.59,3.17c2,0,3.92-.09,5.85-.27a37.75,37.75,0,0,0,5.7-1,33,33,0,0,0,10.8-4.88c-1.36-6.52-2.63-13-3.91-19.57,27.42,2.21,56.15,7.53,84.3,12l8.83-2.11,4.41-1.08,4.43-1q8.85-2,17.69-4.11,8.88-1.9,17.74-3.93l4.43-1,4.44-.94,8.88-1.91,8.88-2,9.14-1.79q9.15-1.81,18.29-3.76c12-2.76,24.86-4.9,37.45-7.46-2.07-7.07-3.41-13.63,1.49-16.61a63.39,63.39,0,0,1,8.33-2c1.46-.25,2.95-.47,4.48-.65s3.16-.26,4.78-.34c6.5-.32,13.46-.17,20.72.18,3.64.18,7.35.41,11.11.66l5.7.39c1.92.13,3.93.34,5.91.5,8,.7,16.07,1.34,24.25,1.68l14.25-3.72c3.62-4.3,4.39-11.18,4.86-15.44a332.58,332.58,0,0,1,41.47,4.53l31.72-7,16-3.54,16.36-3.39,32.93-6.86,33.77-6.71,8.48-1.7c2.82-.57,5.66-1.13,8.57-1.68l17.33-3.32,34.94-6.71,71.88-13.5,74.07-14,37.93-7.32,19.06-3.69,19.32-3.88,38.81-7.84,39.36-8.34,9.85-2.09c3.3-.7,6.64-1.48,10-2.22l19.95-4.5,20-4.51,5-1.13,5.09-1.2,10.18-2.41c22.73-9.69,45.15-19.91,67.14-29,22-9.32,43.61-17.54,64.93-23.85,31.92-6.84,68.88-10,106.15-13.26s74.79-6.73,106.75-12.93c-7.66-16.26-4.46-32.79,3.1-49.22,1.9-4.09,4.06-8.25,6.4-12.42s4.88-8.33,7.5-12.47,5.36-8.24,8.05-12.47l8-12.56c2.63-4.18,5.2-8.31,7.58-12.46s4.58-8.38,6.55-12.52a123.53,123.53,0,0,0,5.13-12.32c.71-2,1.35-4.05,1.89-6.08s1-4.07,1.33-6.09c2.83-16.16-.58-31.47-14-45.89l13.66-3.93c4.66-1.5,9.45-3.07,14.22-4.72,2.39-.82,4.77-1.66,7.12-2.52s4.61-1.85,6.86-2.8c4.5-1.9,8.83-3.86,12.84-5.87,7.89-4.2,14.45-8.67,18.55-13.18s5.54-9.36,3.56-14a313.91,313.91,0,0,1-15.17-44.32,248.91,248.91,0,0,1-7.77-47.62c-.21-4-.45-8.12-.51-12.17s0-8.13.17-12.17q.14-3,.37-6c.16-2,.32-4,.5-6.08.34-4.07.83-8.13,1.46-12.15a224,224,0,0,1,5.09-24c.28-1,.58-2,.87-2.94s.55-2,.83-3c.57-2,1.17-4,1.83-6,1.28-4,2.87-7.76,4.28-11.75a27.33,27.33,0,0,1,6.41-6.67l1-.71.95-.74c.65-.49,1.31-1,2-1.41,1.37-.92,2.82-1.78,4.33-2.59s3.09-1.59,4.7-2.33,3.1-1.55,4.7-2.28c3.16-1.48,6.48-2.8,9.62-4.14s6-2.78,8.71-4.13c1.36-.67,2.66-1.34,3.87-2a36.17,36.17,0,0,0,3.16-2.17c3.81-2.91,5.92-5.89,4.83-9.23-.2-7-4.72-10-11.4-11.06-.84-.13-1.71-.23-2.61-.31a1.62,1.62,0,0,1-.61-.12l-.57-.18-1.15-.33c-1.55-.44-3.14-.83-4.77-1.2-3.27-.74-6.65-1.38-10-2s-6.64-1.34-9.76-2.16a56.89,56.89,0,0,1-8.92-3.12c-5.39-2.49-9.51-5.93-11.38-11-15,9.6-30.41,18.75-47,27.78-1,.56-2,1.18-3.1,1.71l-3.23,1.64c-2.15,1.11-4.27,2.23-6.37,3.38-1,.59-2.2,1.09-3.3,1.65l-3.32,1.64c-2.23,1.09-4.35,2.26-6.61,3.35s-4.61,2.15-6.89,3.25-4.48,2.26-6.92,3.29-4.75,2.14-7.11,3.24c-1.19.54-2.31,1.12-3.55,1.64l-3.7,1.57a886.66,886.66,0,0,1-135.55,46.38,1177.31,1177.31,0,0,1-167.6,30.09c-7.56.73-15.05,1.56-22.68,2.22l-11.45,1-5.74.48-5.79.4c-7.72.52-15.43,1.1-23.26,1.46l-11.71.61-12.37.41c-16.61.5-33,1.14-50.33,1.1l-25.73.11c-8.71-.06-17.62-.24-26.44-.38a186.61,186.61,0,0,1-24.38,5.17c-10.38,1.51-22.73,2.91-36.8,4.19-3.53.31-7.09.65-10.91.92l-11.76.8q-12.08.78-25.33,1.46l-6.69.34-6.9.31-14.36.54q-14.64.52-30.26.95c-10.53.28-21.57.5-32.78.71l-34.82.54-75.59.78-19.91.17-20.51.26-20.74.22-10.44.1-10.7.21-43.17.75-44.44,1.22c-14.75.29-30.11,1.08-45.26,1.67l-22.78.94c-3.76.12-7.66.38-11.51.6l-11.57.68-23.08,1.35-11.51.67c-1.92.12-3.82.2-5.76.35l-5.83.46-46.33,3.66-5.75.45c-1.91.16-3.87.39-5.8.58L1732-7.13l-23,2.36c-7.64.8-15.2,1.52-22.79,2.38L1663.48.42l-11.25,1.4L1641.1,3.37l-22,3.07c-7.26,1.07-14.43,2.23-21.56,3.32l-10.63,1.66-5.27.82-5.23.9C1465,31.65,1374.23,55.21,1321.15,68c-6.17,2.23-12.36,4.34-18.46,6.66q-10.67,3.09-21.55,6.4c-3.62,1.11-7.27,2.21-10.91,3.37l-10.93,3.62q-11,3.67-22,7.54-11,4-22,8.25c-3.67,1.41-7.35,2.81-11,4.27l-10.93,4.51c-7.27,3-14.54,6.11-21.75,9.3s-14.3,6.56-21.38,9.92c-3.54,1.69-7.08,3.34-10.57,5.1l-10.39,5.29c-6.89,3.57-13.74,7.13-20.44,10.82s-13.25,7.52-19.72,11.33c-3.23,1.91-6.45,3.8-9.61,5.76l-9.35,5.93q-9.26,5.94-18.12,12T1035,200.42c-5.53,4.13-10.92,8.24-16,12.52-10.24,8.5-19.86,16.87-28.39,25.54-29,35.08-54.31,74.2-77.37,113,12.16-.83,24.15-1.1,35.54-1.2,5.71,0,11.28,0,16.73.14s10.82.44,16,.78c-4.69,2.6-9.46,5.13-14,7.81s-9.13,5.32-13.54,8-8.72,5.28-12.77,8-7.9,5.38-11.51,8-7,5.31-10,7.92a84.85,84.85,0,0,0-8,7.84c-4.63,5.18-7.77,10.19-8.93,15a138.4,138.4,0,0,0-8.51,13.15,104.62,104.62,0,0,0-5.76,11.52,61.44,61.44,0,0,0-3.29,10,37,37,0,0,0-.95,8.62c.14,10.63,5.71,17.84,14.63,23.29s21.17,9.06,35,12.74,29,7.08,43.92,11.91c16.78,1.77,24.19,13.41,33.08,24.11s19.17,20.51,40.55,19.45l-14.13,8.73c-4.26,2.66-8.27,5-12.15,7.57l-12,7.75c-4.22,2.74-8.83,5.63-13.94,9.11a6,6,0,0,0,5.76,2.68,12.58,12.58,0,0,0,3.68-1,29.66,29.66,0,0,0,4.16-2.11c5.8-3.47,12.48-9.36,19.15-14.63s13.42-9.81,18.89-10.91,9.73,1.32,11.79,10.16c-12.21,3.57-21.84,11.32-30.53,20.12-4.33,4.4-8.69,8.81-13,13.19A93.22,93.22,0,0,1,1005,610.93c6.59,3.9,14.49,3.29,22.85.54a123.37,123.37,0,0,0,12.93-5.32c4.39-2.09,8.8-4.41,13.12-6.68,17.46-8.94,33.74-16.77,41.2-5.12-1.65,2.92-7.35,4.94-14.8,6.75s-16.69,3.37-25,5.71-16,5.07-20.15,9.16-5,9.32.1,16.32c2,2.81,8,.94,14.53-2.43a212.69,212.69,0,0,0,19-11.21q-4.83,4.64-9.13,9.22c-2.88,3-5.57,6.06-8,9.12a145.1,145.1,0,0,0-12.27,17.62c-6.33,11.46-9.34,21.67-8.26,30s6.14,14.61,15.54,18.11a48.14,48.14,0,0,0,7.88,2.1,72.63,72.63,0,0,0,9.64,1.09,137.93,137.93,0,0,0,24.5-1.24,105.5,105.5,0,0,1-15.69,8.5l-9.13,4.07-9.3,4.29c-12.53,5.74-24.34,12.59-31.22,21.39.17.12.36.16.55.27,4.74-3.18,12.13-6.63,19.34-10,3.57-1.73,7.24-3.33,10.45-5a59.66,59.66,0,0,0,8.15-4.71c-5.13,3.76-10.37,7.45-15.47,11.27l-15.26,11.53c5.16,2.08,10.45,4,15.81,5.77a131.7,131.7,0,0,0,14.82-5.18,64,64,0,0,0,13.16-7.08l-10.14,7.31c-3.36,2.46-6.64,5-10,7.51,6.53,1.94,13.15,3.69,19.77,5.25s13.38,3,20,4.24c4.82-.27,9.73-.4,14.63-.43s9.92.13,14.79.28,9.72.4,14.4.62l6.89.33,6.7.37a220.47,220.47,0,0,0,23,.32c6.48-.35,11.64-1.24,14.81-3.25a1749.77,1749.77,0,0,1,168.4-76.74C1415.56,662.94,1473.63,643.07,1532.07,625.4Z"/></g></svg>