<svg id="Camada_1" data-name="Camada 1" xmlns="http://www.w3.org/2000/svg" viewBox="0 0 1080 379.67"><defs><style>.cls-1{fill:#232323;}.cls-2{fill:#fff;}</style></defs><title>image</title><path class="cls-1" d="M377.72,248.56c.75-12.3,4.16-23.69,11.56-33.7a54.88,54.88,0,0,1,34.59-21.78c4.17-.83,8.44-1.2,12.66-1.79a55.31,55.31,0,0,1,10.61,0c19.11,2.44,33.28,12.36,43.39,28.73-5.8,3.57-12.09,5.95-18.14,8.82-2.8,1.33-5.31,3.71-8.45,3.82-3.67.13-3.75-4.1-5.88-6.06-15.27-14-37.18-8.55-45.12,10.73a26.38,26.38,0,0,0-2.37,12.43,9.81,9.81,0,0,0,.05,5.63,31.78,31.78,0,0,0,21.7,30.66,13.34,13.34,0,0,0,4,.53,21.88,21.88,0,0,0,8.57,0c6.44-.44,11-4.26,15.26-8.55a36.3,36.3,0,0,0,6.13-7.9c.52-.94,1.66-1.85,1.15-2.89s-1.82-.42-2.77-.43c-7.58-.08-15.16-.28-22.73-.07-3.27.1-4-1-3.88-4,.21-6.44,0-12.88,0-19.32.69-.83,1.64-.53,2.49-.53q27.13,0,54.28,0c.84,0,1.79-.3,2.48.53q0,33.71,0,67.4c-3.94,1.09-8,.21-11.94.5-2.11.16-4.27-.39-6.34.37l-8.91,0c-1.18-3-.19-6.18-.57-9.25-.1-.78.75-2.21-1.11-2.11-6.76,6.82-15.06,10.58-24.38,12.33-1.26.54-2.7-.18-3.94.55h-7.29c-1.24-.73-2.68,0-3.94-.55A57.91,57.91,0,0,1,397,297.5c-11.92-10.77-18-24.09-19.23-39.87A48.22,48.22,0,0,1,377.72,248.56Z"/><path class="cls-1" d="M1053.48,192.26c0,24.69.41,49.38-.14,74.05-.34,14.63-4.85,28-17.72,36.86-6.95,4.78-15,6.77-23.23,7.9-1.74.63-3.65-.31-5.36.58l-10.35,0c-1.28-.64-2.71-.07-4-.49a44.21,44.21,0,0,1-26.42-10.54c-6.24-5.38-9.56-12.72-11.5-20.72-.69-2.83-.61-5.69-1-8.52a9.92,9.92,0,0,1-.22-3.39c0-24.06,0-48.12-.08-72.18,0-3.16.84-4.06,4-4,8.1.22,16.21.06,24.31.09,1.11,0,2.29-.31,3.33.38q-.06,36.66-.12,73.32c0,10.17,5.53,16.9,14.33,17.26a19.58,19.58,0,0,0,8,0c8.07-1,13.2-6.42,14.37-15.2.71-1.32.36-2.74.36-4.11,0-22.56.08-45.13,0-67.69,0-3.1.74-4.11,3.95-4,8.11.24,16.23.07,24.34.1C1051.26,191.88,1052.44,191.56,1053.48,192.26Z"/><path class="cls-1" d="M549.87,237.62c5.39.88,10.82.28,16.23.35,8,.1,15.94,0,23.91,0,1.12,2.13.53,4.42.49,6.62-.11,6.14.55,12.3-.35,18.42q-18.28,0-36.56,0c-1.24,0-2.48.17-3.72.27a125.26,125.26,0,0,0,0,22.25c9.06.65,18.13.16,27.19.27,6.94.08,13.88,0,20.81,0,.33,8.61.76,17.24-.21,25.84-25.44,0-50.88-.13-76.32,0-3.38,0-4.16-.84-4.15-4.17.1-38.35,0-76.7,0-115.06,1.09-1,2.43-.51,3.63-.51,24.46,0,48.92,0,73.38-.1,3.09,0,4.18.71,4,3.93-.37,7.46.28,14.93-.35,22.39q-22.32,0-44.65,0c-1.11,0-2.23.18-3.35.28A94.34,94.34,0,0,0,549.87,237.62Z"/><path class="cls-1" d="M319.35,195.66q0-71.68.07-143.38c0-3.15-.73-3.92-3.9-3.91q-142.62.14-285.24,0c-3.15,0-3.91.73-3.91,3.9q.15,143,0,286c0,3.15.73,3.91,3.9,3.91q142.62-.15,285.24,0c3.16,0,3.92-.73,3.91-3.9Q319.26,267,319.35,195.66ZM166.61,309.42c-5.33-.08-10.66-.13-16,0-2.06.06-2.64-.63-2.49-2.59s0-4.05,0-6.94c-11.31,9.89-24,13.46-38.07,12.36C81,310,58.69,288.15,56.11,259,53.82,233,62.7,211.72,85.66,198.61c26.46-15.11,63.88-8.34,82,25.7,1,1.8.46,2.6-1.14,3.51-4.5,2.56-9,5.09-13.33,8-2.06,1.38-2.74.88-3.95-1-6.33-9.56-14.48-16.92-25.91-19.76-20.23-5-40.21,7.73-44.82,28.88-3.22,14.83,1.63,27.46,13,37.06s24.3,11.19,38.05,5.66c6.37-2.56,11.28-7,15.7-13.16-4.82,0-9,.08-13.28,0-5.55-.12-11.11.43-16.65-.3-1-5.64-.2-11.32-.47-17,0-.63.06-1.27,0-1.9-.23-1.94.51-2.64,2.54-2.64q24.54.1,49.07,0c1.84,0,2.38.59,2.37,2.39q-.08,26.63,0,53.25C168.81,309,168.21,309.44,166.61,309.42Zm122.48-49.74c-2,16.95-9.7,30.92-23.31,41.46-17.26,13.36-48.42,16.7-67.3-.06a11.86,11.86,0,0,0-1.56-.88c0,1,0,1.44,0,1.91-.1,7.28-.1,7.28-7.22,7.28-3.55,0-7.1-.09-10.65,0-1.9.07-2.65-.4-2.64-2.49q.12-26.25,0-52.48c0-2.17.66-2.8,2.81-2.79q24.15.12,48.29,0c2.49,0,2.93.86,2.87,3.06-.14,5.32-.18,10.66,0,16,.09,2.49-.84,2.91-3.06,2.88-8.83-.12-17.66-.05-27.27-.05,5.91,8.28,13,13.52,22.32,15.31,25,4.81,47.3-14.85,45.06-40.26-1.22-13.85-8.31-24.72-21-30.88-12.42-6-24.75-4.9-36.37,2.71A47.26,47.26,0,0,0,195.91,235c-1.14,1.82-2,2-3.74.82q-6.54-4.2-13.36-8c-1.95-1.08-2-2-1.05-3.89,17.18-33.86,61.64-43.74,90.53-19.43C285.18,218.77,291.61,237.86,289.09,259.68Z"/><path class="cls-1" d="M826.94,249.31c-.57-3.7-.83-7.47-1.74-11.08-5-19.66-15.72-34.66-35.14-42.38-6.78-2.69-13.94-3.32-21.12-3.8-13.3-.43-26.6,0-39.9-.26-3.28-.08-3.89,1-3.88,4.08.1,37.37.06,74.75.09,112.13,0,1.2-.5,2.54.52,3.62l42.94,0c1.8-.75,3.74,0,5.55-.53,1.85-.31,3.7-.64,5.56-.92,10.84-1.65,20.61-5.57,28.67-13.29,12-11.54,17-26.13,18.47-42.27A14.87,14.87,0,0,0,826.94,249.31ZM792.3,263.45c-2.55,12.75-10.48,19.25-23.7,19.66-2.79.09-5.6-.16-8.37.07-2.54.21-2.87-.93-2.85-3.09.1-9.63,0-19.27,0-28.9,0-9.13.17-18.26-.09-27.38-.09-3.32,1-4.16,4-3.84,2.88.3,5.83.06,8.72.34,11.48,1.1,18.68,7.14,21.48,18.27A55.85,55.85,0,0,1,792.3,263.45Z"/><path class="cls-1" d="M678.26,264c14.62-3.62,24.16-11.91,27-26.87.53-1.26-.18-2.7.54-3.93v-6.54c-.74-1.23,0-2.68-.57-3.94a11.05,11.05,0,0,1-.81-2.08c-1.59-8.56-6.11-15.14-13-20.42-5.92-4.56-12.84-6-19.85-7.37-1.27-.49-2.7.19-3.94-.53l-9.75-.19c-13-.52-26.09,0-39.12-.3-3.27-.08-3.91,1-3.9,4.06.1,37.38.06,74.77.09,112.15,0,1.2-.5,2.54.52,3.62,9.37,0,18.75-.13,28.12,0,2.38,0,3-.66,2.95-3-.17-4.68,0-9.37,0-14.06V269.1c8,12.51,15.76,23.92,22.72,35.8,3,5.15,6.22,7.17,12.26,6.81,10.14-.6,20.34-.16,31.27-.16C701,295.33,689.69,279.74,678.26,264Zm-14.21-16.35c-5.27,1-10.59.09-15.89.21-1.71,0-1.7-1-1.69-2.21,0-4.43,0-8.86,0-13.29s0-8.61,0-12.91c0-1.3.12-2.18,1.79-2.09,5.41.3,10.87-.56,16.25.73,7.34,1.77,11,6.69,10.89,14.7C675.25,241,671.36,246.15,664.05,247.61Z"/><path class="cls-1" d="M947.4,307.48Q926.67,251,906,194.52c-.75-2.07-1.76-2.32-3.56-2.31-10.77,0-21.55.1-32.32,0-2.27,0-3.41.66-4.13,2.78-3.06,9-6.27,17.9-9.37,26.85-6,17.42-12,34.86-18.06,52.28-4.29,12.4-8.63,24.79-13,37.47,10.74,0,20.88-.07,31,0,2.46,0,3.39-.63,3.92-3.23,1.13-5.48,3-10.8,4.37-16.22.43-1.66,1-2.58,3-2.57,12.55.08,25.1.05,37.64,0,1.73,0,2.48.52,3,2.46,1.42,5.43,3.75,10.65,4.91,16.12.65,3.08,1.94,3.43,4.48,3.4,8.87-.09,17.74,0,26.61,0C948.85,311.54,948.89,311.53,947.4,307.48Zm-74.13-43c4.16-14.37,8.27-28.56,12.39-42.75l.76-.15,14.22,42.9Z"/><path class="cls-2" d="M377.72,248.56c.75-12.3,4.16-23.69,11.56-33.7a54.88,54.88,0,0,1,34.59-21.78c4.17-.83,8.44-1.2,12.66-1.79a55.31,55.31,0,0,1,10.61,0c19.11,2.44,33.28,12.36,43.39,28.73-5.8,3.57-12.09,5.95-18.14,8.82-2.8,1.33-5.31,3.71-8.45,3.82-3.67.13-3.75-4.1-5.88-6.06-15.27-14-37.18-8.55-45.12,10.73a26.38,26.38,0,0,0-2.37,12.43,9.81,9.81,0,0,0,.05,5.63,31.78,31.78,0,0,0,21.7,30.66,13.34,13.34,0,0,0,4,.53,21.88,21.88,0,0,0,8.57,0c6.44-.44,11-4.26,15.26-8.55a36.3,36.3,0,0,0,6.13-7.9c.52-.94,1.66-1.85,1.15-2.89s-1.82-.42-2.77-.43c-7.58-.08-15.16-.28-22.73-.07-3.27.1-4-1-3.88-4,.21-6.44,0-12.88,0-19.32.69-.83,1.64-.53,2.49-.53q27.13,0,54.28,0c.84,0,1.79-.3,2.48.53q0,33.71,0,67.4c-3.94,1.09-8,.21-11.94.5-2.11.16-4.27-.39-6.34.37l-8.91,0c-1.18-3-.19-6.18-.57-9.25-.1-.78.75-2.21-1.11-2.11-6.76,6.82-15.06,10.58-24.38,12.33-1.26.54-2.7-.18-3.94.55h-7.29c-1.24-.73-2.68,0-3.94-.55A57.91,57.91,0,0,1,397,297.5c-11.92-10.77-18-24.09-19.23-39.87A48.22,48.22,0,0,1,377.72,248.56Z"/><path class="cls-2" d="M1053.48,192.26c0,24.69.41,49.38-.14,74.05-.34,14.63-4.85,28-17.72,36.86-6.95,4.78-15,6.77-23.23,7.9-1.74.63-3.65-.31-5.36.58l-10.35,0c-1.28-.64-2.71-.07-4-.49a44.21,44.21,0,0,1-26.42-10.54c-6.24-5.38-9.56-12.72-11.5-20.72-.69-2.83-.61-5.69-1-8.52a9.92,9.92,0,0,1-.22-3.39c0-24.06,0-48.12-.08-72.18,0-3.16.84-4.06,4-4,8.1.22,16.21.06,24.31.09,1.11,0,2.29-.31,3.33.38q-.06,36.66-.12,73.32c0,10.17,5.53,16.9,14.33,17.26a19.58,19.58,0,0,0,8,0c8.07-1,13.2-6.42,14.37-15.2.71-1.32.36-2.74.36-4.11,0-22.56.08-45.13,0-67.69,0-3.1.74-4.11,3.95-4,8.11.24,16.23.07,24.34.1C1051.26,191.88,1052.44,191.56,1053.48,192.26Z"/><path class="cls-2" d="M549.87,237.62c5.39.88,10.82.28,16.23.35,8,.1,15.94,0,23.91,0,1.12,2.13.53,4.42.49,6.62-.11,6.14.55,12.3-.35,18.42q-18.28,0-36.56,0c-1.24,0-2.48.17-3.72.27a125.26,125.26,0,0,0,0,22.25c9.06.65,18.13.16,27.19.27,6.94.08,13.88,0,20.81,0,.33,8.61.76,17.24-.21,25.84-25.44,0-50.88-.13-76.32,0-3.38,0-4.16-.84-4.15-4.17.1-38.35,0-76.7,0-115.06,1.09-1,2.43-.51,3.63-.51,24.46,0,48.92,0,73.38-.1,3.09,0,4.18.71,4,3.93-.37,7.46.28,14.93-.35,22.39q-22.32,0-44.65,0c-1.11,0-2.23.18-3.35.28A94.34,94.34,0,0,0,549.87,237.62Z"/><path class="cls-2" d="M319.35,195.66q0-71.68.07-143.38c0-3.15-.73-3.92-3.9-3.91q-142.62.14-285.24,0c-3.15,0-3.91.73-3.91,3.9q.15,143,0,286c0,3.15.73,3.91,3.9,3.91q142.62-.15,285.24,0c3.16,0,3.92-.73,3.91-3.9Q319.26,267,319.35,195.66ZM166.61,309.42c-5.33-.08-10.66-.13-16,0-2.06.06-2.64-.63-2.49-2.59s0-4.05,0-6.94c-11.31,9.89-24,13.46-38.07,12.36C81,310,58.69,288.15,56.11,259,53.82,233,62.7,211.72,85.66,198.61c26.46-15.11,63.88-8.34,82,25.7,1,1.8.46,2.6-1.14,3.51-4.5,2.56-9,5.09-13.33,8-2.06,1.38-2.74.88-3.95-1-6.33-9.56-14.48-16.92-25.91-19.76-20.23-5-40.21,7.73-44.82,28.88-3.22,14.83,1.63,27.46,13,37.06s24.3,11.19,38.05,5.66c6.37-2.56,11.28-7,15.7-13.16-4.82,0-9,.08-13.28,0-5.55-.12-11.11.43-16.65-.3-1-5.64-.2-11.32-.47-17,0-.63.06-1.27,0-1.9-.23-1.94.51-2.64,2.54-2.64q24.54.1,49.07,0c1.84,0,2.38.59,2.37,2.39q-.08,26.63,0,53.25C168.81,309,168.21,309.44,166.61,309.42Zm122.48-49.74c-2,16.95-9.7,30.92-23.31,41.46-17.26,13.36-48.42,16.7-67.3-.06a11.86,11.86,0,0,0-1.56-.88c0,1,0,1.44,0,1.91-.1,7.28-.1,7.28-7.22,7.28-3.55,0-7.1-.09-10.65,0-1.9.07-2.65-.4-2.64-2.49q.12-26.25,0-52.48c0-2.17.66-2.8,2.81-2.79q24.15.12,48.29,0c2.49,0,2.93.86,2.87,3.06-.14,5.32-.18,10.66,0,16,.09,2.49-.84,2.91-3.06,2.88-8.83-.12-17.66-.05-27.27-.05,5.91,8.28,13,13.52,22.32,15.31,25,4.81,47.3-14.85,45.06-40.26-1.22-13.85-8.31-24.72-21-30.88-12.42-6-24.75-4.9-36.37,2.71A47.26,47.26,0,0,0,195.91,235c-1.14,1.82-2,2-3.74.82q-6.54-4.2-13.36-8c-1.95-1.08-2-2-1.05-3.89,17.18-33.86,61.64-43.74,90.53-19.43C285.18,218.77,291.61,237.86,289.09,259.68Z"/><path class="cls-2" d="M826.94,249.31c-.57-3.7-.83-7.47-1.74-11.08-5-19.66-15.72-34.66-35.14-42.38-6.78-2.69-13.94-3.32-21.12-3.8-13.3-.43-26.6,0-39.9-.26-3.28-.08-3.89,1-3.88,4.08.1,37.37.06,74.75.09,112.13,0,1.2-.5,2.54.52,3.62l42.94,0c1.8-.75,3.74,0,5.55-.53,1.85-.31,3.7-.64,5.56-.92,10.84-1.65,20.61-5.57,28.67-13.29,12-11.54,17-26.13,18.47-42.27A14.87,14.87,0,0,0,826.94,249.31ZM792.3,263.45c-2.55,12.75-10.48,19.25-23.7,19.66-2.79.09-5.6-.16-8.37.07-2.54.21-2.87-.93-2.85-3.09.1-9.63,0-19.27,0-28.9,0-9.13.17-18.26-.09-27.38-.09-3.32,1-4.16,4-3.84,2.88.3,5.83.06,8.72.34,11.48,1.1,18.68,7.14,21.48,18.27A55.85,55.85,0,0,1,792.3,263.45Z"/><path class="cls-2" d="M678.26,264c14.62-3.62,24.16-11.91,27-26.87.53-1.26-.18-2.7.54-3.93v-6.54c-.74-1.23,0-2.68-.57-3.94a11.05,11.05,0,0,1-.81-2.08c-1.59-8.56-6.11-15.14-13-20.42-5.92-4.56-12.84-6-19.85-7.37-1.27-.49-2.7.19-3.94-.53l-9.75-.19c-13-.52-26.09,0-39.12-.3-3.27-.08-3.91,1-3.9,4.06.1,37.38.06,74.77.09,112.15,0,1.2-.5,2.54.52,3.62,9.37,0,18.75-.13,28.12,0,2.38,0,3-.66,2.95-3-.17-4.68,0-9.37,0-14.06V269.1c8,12.51,15.76,23.92,22.72,35.8,3,5.15,6.22,7.17,12.26,6.81,10.14-.6,20.34-.16,31.27-.16C701,295.33,689.69,279.74,678.26,264Zm-14.21-16.35c-5.27,1-10.59.09-15.89.21-1.71,0-1.7-1-1.69-2.21,0-4.43,0-8.86,0-13.29s0-8.61,0-12.91c0-1.3.12-2.18,1.79-2.09,5.41.3,10.87-.56,16.25.73,7.34,1.77,11,6.69,10.89,14.7C675.25,241,671.36,246.15,664.05,247.61Z"/><path class="cls-2" d="M947.4,307.48Q926.67,251,906,194.52c-.75-2.07-1.76-2.32-3.56-2.31-10.77,0-21.55.1-32.32,0-2.27,0-3.41.66-4.13,2.78-3.06,9-6.27,17.9-9.37,26.85-6,17.42-12,34.86-18.06,52.28-4.29,12.4-8.63,24.79-13,37.47,10.74,0,20.88-.07,31,0,2.46,0,3.39-.63,3.92-3.23,1.13-5.48,3-10.8,4.37-16.22.43-1.66,1-2.58,3-2.57,12.55.08,25.1.05,37.64,0,1.73,0,2.48.52,3,2.46,1.42,5.43,3.75,10.65,4.91,16.12.65,3.08,1.94,3.43,4.48,3.4,8.87-.09,17.74,0,26.61,0C948.85,311.54,948.89,311.53,947.4,307.48Zm-74.13-43c4.16-14.37,8.27-28.56,12.39-42.75l.76-.15,14.22,42.9Z"/></svg>