<svg id="Camada_1" data-name="Camada 1" xmlns="http://www.w3.org/2000/svg" xmlns:xlink="http://www.w3.org/1999/xlink" viewBox="0 0 1080 836"><defs><style>.cls-1{fill:none;}.cls-2{clip-path:url(#clip-path);}.cls-3{fill:#e21b1b;}</style><clipPath id="clip-path"><rect class="cls-1" x="-5.58" y="-21.62" width="1093.58" height="893.62"/></clipPath></defs><title>image</title><g class="cls-2"><path class="cls-3" d="M432.07,669.4c-4.65-11.55-15.93-20.9-8.33-29.44,6.66-5.16,14.32-7.06,22.32-7.4s16.5,1.27,24.84,2.71,16.71,3.2,24.59,3.17c2,0,3.92-.09,5.85-.27a37.75,37.75,0,0,0,5.7-1,33,33,0,0,0,10.8-4.88c-1.36-6.52-2.63-13-3.91-19.57,27.42,2.21,56.15,7.53,84.3,12l8.83-2.11,4.41-1.08,4.43-1q8.85-2,17.69-4.11,8.88-1.9,17.74-3.93l4.43-1,4.44-.94,8.88-1.91,8.88-2,9.14-1.79q9.15-1.81,18.29-3.76c12-2.76,24.86-4.9,37.45-7.46-2.07-7.07-3.41-13.63,1.49-16.61a63.39,63.39,0,0,1,8.33-2c1.46-.25,3-.47,4.48-.65s3.16-.26,4.78-.34c6.5-.32,13.46-.17,20.72.18,3.64.18,7.35.41,11.11.66l5.7.39c1.92.13,3.93.34,5.91.5,7.95.7,16.07,1.34,24.25,1.68l14.25-3.72c3.62-4.3,4.39-11.18,4.86-15.44a332.58,332.58,0,0,1,41.47,4.53l31.72-7,16-3.54L954.25,549l32.93-6.86,33.77-6.71,8.48-1.7c2.82-.57,5.66-1.13,8.57-1.68l17.33-3.32,34.94-6.71,71.88-13.5,74.07-14,37.93-7.32,19.06-3.69,19.32-3.88,38.81-7.84,39.36-8.34,9.85-2.09c3.3-.7,6.64-1.48,10-2.22l20-4.5,20-4.51,5-1.13,5.09-1.2,10.18-2.41c22.73-9.69,45.15-19.91,67.14-29,22-9.32,43.61-17.54,64.93-23.85,31.92-6.84,68.88-10,106.15-13.26s74.79-6.73,106.75-12.93c-7.66-16.26-4.46-32.79,3.1-49.22,1.9-4.09,4.06-8.25,6.4-12.42s4.88-8.33,7.5-12.47,5.36-8.24,8-12.47l8-12.56c2.63-4.18,5.2-8.31,7.58-12.46s4.58-8.38,6.55-12.52a123.53,123.53,0,0,0,5.13-12.32c.71-2,1.35-4.05,1.89-6.08s1-4.07,1.33-6.09c2.83-16.16-.58-31.47-14-45.89l13.66-3.93c4.66-1.5,9.45-3.07,14.22-4.72,2.39-.82,4.77-1.66,7.12-2.52s4.61-1.85,6.86-2.8c4.5-1.9,8.83-3.86,12.84-5.87,7.89-4.2,14.45-8.67,18.55-13.18s5.54-9.36,3.56-14a313.91,313.91,0,0,1-15.17-44.32,248.91,248.91,0,0,1-7.77-47.62c-.21-4-.45-8.12-.51-12.17s0-8.13.17-12.17q.13-3,.37-6.05c.16-2,.32-4,.5-6.08.34-4.07.83-8.13,1.46-12.15a224,224,0,0,1,5.09-24c.28-1,.58-1.95.87-2.94s.55-2,.83-3c.57-2,1.17-4,1.83-6,1.28-4,2.87-7.76,4.28-11.75a27.33,27.33,0,0,1,6.41-6.67l1-.71,1-.74c.65-.49,1.31-1,2-1.41,1.37-.92,2.82-1.78,4.33-2.59s3.09-1.59,4.7-2.33,3.1-1.55,4.7-2.28c3.16-1.48,6.48-2.8,9.62-4.14s6-2.78,8.71-4.13c1.36-.67,2.66-1.34,3.87-2a36.17,36.17,0,0,0,3.16-2.17c3.81-2.91,5.92-5.89,4.83-9.23-.2-7-4.72-10-11.4-11.06-.84-.13-1.71-.23-2.61-.31a1.62,1.62,0,0,1-.61-.12l-.57-.18-1.15-.33c-1.55-.44-3.14-.83-4.77-1.2-3.27-.74-6.65-1.38-10-2s-6.64-1.34-9.76-2.16a56.89,56.89,0,0,1-8.92-3.12c-5.39-2.49-9.51-5.93-11.38-11-15,9.6-30.41,18.75-47,27.78-1,.56-2,1.18-3.1,1.71l-3.23,1.64c-2.15,1.11-4.27,2.23-6.37,3.38-1,.59-2.2,1.09-3.3,1.65l-3.32,1.64c-2.23,1.09-4.35,2.26-6.61,3.35s-4.61,2.15-6.89,3.25-4.48,2.26-6.92,3.29-4.75,2.14-7.11,3.24c-1.19.54-2.31,1.12-3.55,1.64l-3.7,1.57a886.66,886.66,0,0,1-135.55,46.38,1177.31,1177.31,0,0,1-167.6,30.09c-7.56.73-15,1.56-22.68,2.22l-11.45,1-5.74.48-5.79.4c-7.72.52-15.43,1.1-23.26,1.46l-11.71.61-12.37.41c-16.61.5-33,1.14-50.33,1.1L1345.73,5c-8.71-.06-17.62-.24-26.44-.38a186.61,186.61,0,0,1-24.38,5.17c-10.38,1.51-22.73,2.91-36.8,4.19-3.53.31-7.09.65-10.91.92l-11.76.8q-12.07.78-25.33,1.46l-6.69.34-6.9.31-14.36.54q-14.64.52-30.26.95c-10.53.28-21.57.5-32.78.71l-34.82.54-75.59.78-19.91.17-20.51.26L947.55,22l-10.44.1-10.7.21-43.17.75L838.8,24.28c-14.75.29-30.11,1.08-45.26,1.67l-22.78.94c-3.76.12-7.66.38-11.51.6l-11.57.68L724.6,29.52l-11.51.67c-1.92.12-3.82.2-5.76.35L701.5,31l-46.33,3.66-5.75.45c-1.91.16-3.87.39-5.8.58L632,36.87l-23,2.36c-7.64.8-15.2,1.52-22.79,2.38l-22.74,2.81-11.25,1.4L541.1,47.37l-22,3.07c-7.26,1.07-14.43,2.23-21.56,3.32L486.9,55.42l-5.27.82-5.23.9C365,75.65,274.23,99.21,221.15,112c-6.17,2.23-12.36,4.34-18.46,6.66q-10.66,3.09-21.55,6.4c-3.62,1.11-7.27,2.21-10.91,3.37l-10.93,3.62q-11,3.67-22,7.54-11,4-22,8.25c-3.67,1.41-7.35,2.81-11,4.27l-10.93,4.51c-7.27,3-14.54,6.11-21.75,9.3s-14.3,6.56-21.38,9.92c-3.54,1.69-7.08,3.34-10.57,5.1l-10.39,5.29c-6.89,3.57-13.74,7.13-20.44,10.82s-13.25,7.52-19.72,11.33c-3.23,1.91-6.45,3.8-9.61,5.76l-9.35,5.93q-9.25,5.94-18.12,12T-65,244.42c-5.53,4.13-10.92,8.24-16,12.52-10.24,8.5-19.86,16.87-28.39,25.54-29,35.08-54.31,74.2-77.37,113,12.16-.83,24.15-1.1,35.54-1.2,5.71,0,11.28,0,16.73.14s10.82.44,16,.78c-4.69,2.6-9.46,5.13-14,7.81s-9.13,5.32-13.54,8-8.72,5.28-12.77,8-7.9,5.38-11.51,8-7,5.31-10,7.92a84.85,84.85,0,0,0-8,7.84c-4.63,5.18-7.77,10.19-8.93,15a138.4,138.4,0,0,0-8.51,13.15,104.62,104.62,0,0,0-5.76,11.52,61.44,61.44,0,0,0-3.29,10,37,37,0,0,0-.95,8.62c.14,10.63,5.71,17.84,14.63,23.29s21.17,9.06,35,12.74,29,7.08,43.92,11.91c16.78,1.77,24.19,13.41,33.08,24.11s19.17,20.51,40.55,19.45l-14.13,8.73c-4.26,2.66-8.27,5-12.15,7.57l-12,7.75c-4.22,2.74-8.83,5.63-13.94,9.11a6,6,0,0,0,5.76,2.68,12.58,12.58,0,0,0,3.68-1,29.66,29.66,0,0,0,4.16-2.11c5.8-3.47,12.48-9.36,19.15-14.63s13.42-9.81,18.89-10.91,9.73,1.32,11.79,10.16c-12.21,3.57-21.84,11.32-30.53,20.12-4.33,4.4-8.69,8.81-13,13.19A93.22,93.22,0,0,1-95,654.93c6.59,3.9,14.49,3.29,22.85.54a123.37,123.37,0,0,0,12.93-5.32c4.39-2.09,8.8-4.41,13.12-6.68,17.46-8.94,33.74-16.77,41.2-5.12-1.65,2.92-7.35,4.94-14.8,6.75s-16.69,3.37-25,5.71-16,5.07-20.15,9.16-5,9.32.1,16.32c2.05,2.81,8,.94,14.53-2.43a212.69,212.69,0,0,0,19-11.21q-4.83,4.64-9.13,9.22c-2.88,3-5.57,6.06-8,9.12a145.1,145.1,0,0,0-12.27,17.62c-6.33,11.46-9.34,21.67-8.26,30s6.14,14.61,15.54,18.11a48.14,48.14,0,0,0,7.88,2.1,72.63,72.63,0,0,0,9.64,1.09,137.93,137.93,0,0,0,24.5-1.24,105.5,105.5,0,0,1-15.69,8.5l-9.13,4.07-9.3,4.29c-12.53,5.74-24.34,12.59-31.22,21.39.17.12.36.16.55.27,4.74-3.18,12.13-6.63,19.34-10,3.57-1.73,7.24-3.33,10.45-5a59.66,59.66,0,0,0,8.15-4.71c-5.13,3.76-10.37,7.45-15.47,11.27l-15.26,11.53c5.16,2.08,10.45,4,15.81,5.77a131.7,131.7,0,0,0,14.82-5.18A64,64,0,0,0-25,783.77l-10.14,7.31c-3.36,2.46-6.64,5-10,7.51,6.53,1.94,13.15,3.69,19.77,5.25s13.38,3,20,4.24c4.82-.27,9.73-.4,14.63-.43s9.92.13,14.79.28,9.72.4,14.4.62l6.89.33,6.7.37a220.47,220.47,0,0,0,23,.32c6.48-.35,11.64-1.24,14.81-3.25a1749.77,1749.77,0,0,1,168.4-76.74C315.56,706.94,373.63,687.07,432.07,669.4Z"/></g></svg>