<svg id="Camada_1" data-name="Camada 1" xmlns="http://www.w3.org/2000/svg" xmlns:xlink="http://www.w3.org/1999/xlink" viewBox="0 0 1080 1080"><defs><style>.cls-1{fill:#232323;}.cls-2{fill:none;}.cls-3{fill:#e59567;}.cls-4{clip-path:url(#clip-path);}.cls-5{clip-path:url(#clip-path-2);}.cls-6{clip-path:url(#clip-path-3);}.cls-7{clip-path:url(#clip-path-4);}.cls-8{fill:#e21b1b;}.cls-9{fill:#fff;}.cls-10{fill:#ad0e0e;}.cls-11{fill:#e82a2a;}.cls-12{fill:#312c32;}.cls-13{fill:#ffa6a6;}.cls-14{fill:#e6e6e6;}.cls-15{fill:#222023;}.cls-16{fill:#f3f3f3;}.cls-17{clip-path:url(#clip-path-5);}.cls-18{fill:#171a35;}.cls-19{fill:#809cc5;}.cls-20{clip-path:url(#clip-path-6);}.cls-21{fill:#8ca5d1;}.cls-22{clip-path:url(#clip-path-7);}</style><clipPath id="clip-path"><path id="SVGID" class="cls-1" d="M317.29,696.89A17.23,17.23,0,1,0,330,676.12,17.24,17.24,0,0,0,317.29,696.89Z"/></clipPath><clipPath id="clip-path-2"><path id="SVGID-2" data-name="SVGID" class="cls-1" d="M126.1,673.51l-9.67,15.9-8.58-26.51,28.84-9.36,10.08,9.82-11.33,2.08-1.55,9.26a2.46,2.46,0,0,1-1.87,2h0a2.45,2.45,0,0,1-3-2.09l-.52-4.22Z"/></clipPath><clipPath id="clip-path-3"><path id="SVGID-3" data-name="SVGID" class="cls-1" d="M765.77,512.59l3.07,21.67,18.68-31.47-35.26-21.36-6.79,13.08,14.94,6.62-3.6,15.92a2.08,2.08,0,0,0,1.22,2.37,2.51,2.51,0,0,0,3.38-1.17l1.79-7.75Z"/></clipPath><clipPath id="clip-path-4"><rect class="cls-2" x="-1105.58" y="59.38" width="1093.58" height="893.62"/></clipPath><clipPath id="clip-path-5"><path id="SVGID-4" data-name="SVGID" class="cls-3" d="M317.29,696.89A17.23,17.23,0,1,0,330,676.12,17.24,17.24,0,0,0,317.29,696.89Z"/></clipPath><clipPath id="clip-path-6"><path id="SVGID-5" data-name="SVGID" class="cls-2" d="M126.1,673.51l-9.67,15.9-8.58-26.51,28.84-9.36,10.08,9.82-11.33,2.08-1.55,9.26a2.46,2.46,0,0,1-1.87,2h0a2.45,2.45,0,0,1-3-2.09l-.52-4.22Z"/></clipPath><clipPath id="clip-path-7"><path id="SVGID-6" data-name="SVGID" class="cls-2" d="M765.77,512.59l3.07,21.67,18.68-31.47-35.26-21.36-6.79,13.08,14.94,6.62-3.6,15.92a2.08,2.08,0,0,0,1.22,2.37,2.51,2.51,0,0,0,3.38-1.17l1.79-7.75Z"/></clipPath></defs><title>image</title><path class="cls-1" d="M914.23,235.35h-4.72a57.55,57.55,0,0,0-103,0h-4.72a41.62,41.62,0,0,0,0,83.23H914.23a41.62,41.62,0,0,0,0-83.23Z"/><path class="cls-1" d="M233.36,158.87H231a28.65,28.65,0,0,0-51.28,0h-2.35a20.72,20.72,0,1,0,0,41.43h56a20.72,20.72,0,0,0,0-41.43Z"/><path class="cls-1" d="M974.23,881.28,970,880.9c.47-5.19.17-14.56-2.64-17.63a2.59,2.59,0,0,0-2-.95,5.58,5.58,0,0,0-4.28,1.83c-3.75,4-4,13.49-3.8,16.8l-4.2.28c0-.57-.83-13.82,4.92-20a9.74,9.74,0,0,1,7.36-3.17,6.87,6.87,0,0,1,5.17,2.33C975.49,865.88,974.38,879.72,974.23,881.28Z"/><circle class="cls-1" cx="965.3" cy="879.08" r="9.66"/><path class="cls-1" d="M972.49,874a9.67,9.67,0,1,0,9.66-9.66A9.66,9.66,0,0,0,972.49,874Z"/><path class="cls-1" d="M987.73,881.6a9.67,9.67,0,1,0,9.67-9.67A9.67,9.67,0,0,0,987.73,881.6Z"/><path class="cls-1" d="M1013.76,881.28l-4.2-.38c.48-5.19.18-14.56-2.63-17.63a2.6,2.6,0,0,0-2.06-.95,5.6,5.6,0,0,0-4.28,1.83c-3.75,4-4,13.49-3.79,16.8l-4.21.28c0-.57-.83-13.82,4.93-20a9.73,9.73,0,0,1,7.35-3.17,6.89,6.89,0,0,1,5.18,2.33C1015,865.88,1013.9,879.72,1013.76,881.28Z"/><path class="cls-1" d="M948.35,878.77h66a5.25,5.25,0,0,1,5.24,5.6l-2.39,26.24a23.45,23.45,0,0,1-23.4,21.87H970.27a23.44,23.44,0,0,1-23.31-21l-3.83-26.93A5.25,5.25,0,0,1,948.35,878.77Z"/><path class="cls-1" d="M580.36,881.28l-4.2-.38c.48-5.19.18-14.56-2.63-17.63a2.6,2.6,0,0,0-2.06-.95,5.56,5.56,0,0,0-4.27,1.83c-3.76,4-4,13.49-3.8,16.8l-4.21.28c0-.57-.83-13.82,4.93-20a9.73,9.73,0,0,1,7.35-3.17,6.88,6.88,0,0,1,5.18,2.33C581.62,865.88,580.5,879.72,580.36,881.28Z"/><path class="cls-1" d="M561.89,879.08a9.66,9.66,0,1,0,9.66-9.66A9.66,9.66,0,0,0,561.89,879.08Z"/><circle class="cls-1" cx="588.4" cy="873.97" r="9.66"/><path class="cls-1" d="M594,881.6a9.67,9.67,0,1,0,9.67-9.67A9.67,9.67,0,0,0,594,881.6Z"/><path class="cls-1" d="M614.43,881.28l-4.58-.38c.52-5.19.2-14.56-2.87-17.63a3,3,0,0,0-2.25-.95,6.39,6.39,0,0,0-4.67,1.83c-4.09,4-4.38,13.49-4.14,16.8l-4.59.28c0-.57-.91-13.82,5.38-20a11.08,11.08,0,0,1,8-3.17,7.83,7.83,0,0,1,5.65,2.33C615.81,865.88,614.59,879.72,614.43,881.28Z"/><path class="cls-1" d="M551.76,878.77h66a5.25,5.25,0,0,1,5.24,5.6l-2.39,26.24a23.45,23.45,0,0,1-23.4,21.87H573.68a23.44,23.44,0,0,1-23.31-21l-3.83-26.93A5.25,5.25,0,0,1,551.76,878.77Z"/><path class="cls-1" d="M481.42,719.28l2.67-14.8c-4-.73-95.6-18.51-94.73-109.86a7.52,7.52,0,0,0-7.05-7.62h0a7.53,7.53,0,0,0-8,7.39C373.24,698.63,480.31,719.08,481.42,719.28Z"/><path class="cls-1" d="M499.93,770.14c61-4.69,89.15-43.94,97.94-59.37a6.19,6.19,0,0,0-3-8.75h0a6.22,6.22,0,0,0-7.85,2.62A105,105,0,0,1,569.54,727c-18.8,18.3-42.54,28.66-70.56,30.81Z"/><circle class="cls-1" cx="613.37" cy="628.26" r="87.66"/><polygon class="cls-1" points="473.32 935.2 513.37 935.2 508.89 610.36 477.79 610.36 473.32 935.2"/><circle class="cls-1" cx="501.68" cy="417.99" r="238.56"/><circle class="cls-1" cx="652.81" cy="417.46" r="9.66"/><path class="cls-1" d="M396.31,417.58a9.66,9.66,0,1,0,9.66-9.66A9.66,9.66,0,0,0,396.31,417.58Z"/><circle class="cls-1" cx="355.65" cy="360.85" r="9.66"/><circle class="cls-1" cx="366.71" cy="473.48" r="9.66"/><circle class="cls-1" cx="387.77" cy="541.08" r="9.66"/><circle class="cls-1" cx="570.32" cy="383.11" r="9.66"/><path class="cls-1" d="M498.45,323.25a9.67,9.67,0,1,0,9.67-9.66A9.66,9.66,0,0,0,498.45,323.25Z"/><circle class="cls-1" cx="593.66" cy="557.83" r="9.66"/><path class="cls-1" d="M498.49,250.53a9.66,9.66,0,1,0,10.43-8.83A9.67,9.67,0,0,0,498.49,250.53Z"/><path class="cls-1" d="M406.92,287.35a9.67,9.67,0,1,0,9.67-9.67A9.67,9.67,0,0,0,406.92,287.35Z"/><circle class="cls-1" cx="634.13" cy="470.55" r="9.66"/><path class="cls-1" d="M481.24,417.46a9.66,9.66,0,1,0,9.66-9.67A9.67,9.67,0,0,0,481.24,417.46Z"/><circle class="cls-1" cx="456.05" cy="480.7" r="9.66"/><circle class="cls-1" cx="529.75" cy="526.91" r="9.66"/><circle class="cls-1" cx="543.81" cy="465.34" r="9.66"/><circle class="cls-1" cx="652.81" cy="354.39" r="9.66"/><path class="cls-1" d="M590.81,287.35a9.67,9.67,0,1,0,9.67-9.67A9.67,9.67,0,0,0,590.81,287.35Z"/><circle class="cls-1" cx="453.2" cy="363.78" r="9.66"/><circle class="cls-1" cx="462.86" cy="567.64" r="9.66"/><ellipse class="cls-1" cx="260.05" cy="716.49" rx="8.01" ry="7.6"/><path class="cls-1" d="M294.44,741.38l29-23.92c3.66-2.29,8.15-1.28,10,2.27s.4,8.29-3.27,10.58l-29,23.92c-6,3.74-13.31,3.17-17.84-1.39l-24.71-26,11.66-10.79Z"/><polygon class="cls-1" points="350.99 925.53 343.54 913.7 356.63 910.78 362.78 921.86 350.99 925.53"/><path class="cls-1" d="M326.15,819.91l-1.67,47.64,0,.75a6.58,6.58,0,0,0,1,3.23l18,42.17,13.09-2.92-15.78-47.1,1,4,5.28-47.36Z"/><path class="cls-1" d="M335.4,935.64l35.49-.78L363.71,922l-17.42.66a11.61,11.61,0,0,0-10.89,13Z"/><polygon class="cls-1" points="331.8 720.23 340.79 719.16 340.04 702.45 330.54 702.88 331.8 720.23"/><path class="cls-1" d="M319.47,731.79,327,757.08a2.12,2.12,0,0,0,2.28,1.5l18.29-2.23a2.1,2.1,0,0,0,1.72-1.34l7.36-24.07a9.91,9.91,0,0,0-8.26-13.41L332.57,716A12.38,12.38,0,0,0,319.47,731.79Z"/><polygon class="cls-1" points="387.42 925.53 379.97 913.7 393.06 910.78 399.21 921.86 387.42 925.53"/><path class="cls-1" d="M348.71,821.78l4.53,45.62,0,.75a6.47,6.47,0,0,0,1,3.23L380,913.7l13.09-2.92-23.45-47.25,1,4-.91-45.35Z"/><path class="cls-1" d="M348.39,756.31s16.3,19.08,17.67,30.71l21.24,59.23H317.93l9.54-87.46Z"/><path class="cls-1" d="M315,688.61l4-1.7,2.26,5.23-3.85.93-2.59-1.59A1.62,1.62,0,0,1,315,688.61Z"/><path id="SVGID-7" data-name="SVGID" class="cls-1" d="M317.29,696.89A17.23,17.23,0,1,0,330,676.12,17.24,17.24,0,0,0,317.29,696.89Z"/><g class="cls-4"><polygon class="cls-1" points="328.23 671.08 348.45 712.07 356.27 682.91 328.23 671.08"/></g><path class="cls-1" d="M349.87,706.12a13.15,13.15,0,1,0,5.62-17.73A13.16,13.16,0,0,0,349.87,706.12Z"/><path class="cls-1" d="M336.92,693.73a4.83,4.83,0,1,0,3.57-5.82A4.83,4.83,0,0,0,336.92,693.73Z"/><path class="cls-1" d="M315.14,782.61a8.32,8.32,0,0,1,8.41,7.6,7.34,7.34,0,0,1-7.17,8,8.33,8.33,0,0,1-8.4-7.61A7.33,7.33,0,0,1,315.14,782.61Z"/><path class="cls-1" d="M350.22,765.17l-8.45-38.51a7.37,7.37,0,1,1,14.4-3.16L364.62,762a14.89,14.89,0,0,1-7.52,16.28l-33,16.7-6-13.49Z"/><path class="cls-1" d="M371.83,935.64l35.49-.78L400.14,922l-17.42.66a11.61,11.61,0,0,0-10.89,13Z"/><circle class="cls-1" cx="254.75" cy="703.46" r="9.66"/><rect class="cls-1" x="4.1" y="932.12" width="1071.8" height="4.88"/><path class="cls-1" d="M196.23,726.91l-4.19-.39c.47-5.18.17-14.55-2.64-17.63a2.59,2.59,0,0,0-2.05-.95,5.57,5.57,0,0,0-4.28,1.84c-3.75,4-4,13.48-3.8,16.8l-4.2.27c0-.56-.83-13.81,4.92-20a9.71,9.71,0,0,1,7.36-3.18,6.87,6.87,0,0,1,5.17,2.33C197.49,711.51,196.38,725.35,196.23,726.91Z"/><circle class="cls-1" cx="188.44" cy="727.11" r="9.66"/><circle class="cls-1" cx="205.29" cy="722" r="9.66"/><circle class="cls-1" cx="220.54" cy="729.62" r="9.66"/><path class="cls-1" d="M215.14,733.52a9.59,9.59,0,1,0-5.94,12.19A9.59,9.59,0,0,0,215.14,733.52Z"/><path class="cls-1" d="M156,749.68l-20.3-41.25c-2.93-4.37-8.37-5.27-12.16-2s-4.49,9.46-1.56,13.83l20.3,41.25c4.77,7.12,13.14,9.85,20.36,6.65l40-18.82-7.61-18Z"/><path class="cls-1" d="M186.77,936.6l-30.51.2-4.4-13.75,21-.14a13.77,13.77,0,0,1,13.86,13.69Z"/><polygon class="cls-1" points="154.97 863.71 116.38 912.13 98.26 912.24 136.96 847.18 154.97 863.71"/><path class="cls-1" d="M143.68,773.23l16.87,57.83c3.26,13.31-.77,27.77-10.09,36.24l-1.59,1.44-24-96.42Z"/><path class="cls-1" d="M136.1,769.44l-9.34,9.84-9.29-5c-10.1,8.59-4.48,19.51-4.48,19.51l35.66,118.37,16.08-.13Z"/><polygon class="cls-1" points="130.26 703.54 121.53 701.53 124.05 685.2 133.34 686.63 130.26 703.54"/><path class="cls-1" d="M145.77,683.7A17.34,17.34,0,1,1,140,659.87,17.35,17.35,0,0,1,145.77,683.7Z"/><path class="cls-1" d="M148.15,672.45l3.28,2.86a1.63,1.63,0,0,1-.69,2.81l-3,.73-3.4-2.07Z"/><path class="cls-1" d="M114.48,780.27l30.35,1.23a2.76,2.76,0,0,0,2.86-3l-7.21-68.65a15.52,15.52,0,0,0-16.42-13.88h0A15.53,15.53,0,0,0,109.52,712l2.32,65.63A2.75,2.75,0,0,0,114.48,780.27Z"/><path id="SVGID-8" data-name="SVGID" class="cls-1" d="M126.1,673.51l-9.67,15.9-8.58-26.51,28.84-9.36,10.08,9.82-11.33,2.08-1.55,9.26a2.46,2.46,0,0,1-1.87,2h0a2.45,2.45,0,0,1-3-2.09l-.52-4.22Z"/><g class="cls-5"><path class="cls-1" d="M145.77,683.7A17.34,17.34,0,1,1,140,659.87,17.35,17.35,0,0,1,145.77,683.7Z"/></g><path class="cls-1" d="M128,674.49a5,5,0,1,1-1.68-6.89A5,5,0,0,1,128,674.49Z"/><path class="cls-1" d="M235.76,726.91l-4.2-.39c.48-5.18.18-14.55-2.63-17.63a2.6,2.6,0,0,0-2.06-.95,5.57,5.57,0,0,0-4.28,1.84c-3.75,4-4,13.48-3.79,16.8l-4.21.27c0-.56-.83-13.81,4.93-20a9.7,9.7,0,0,1,7.35-3.18,6.89,6.89,0,0,1,5.18,2.33C237,711.51,235.9,725.35,235.76,726.91Z"/><path class="cls-1" d="M170.35,724.39h66a5.25,5.25,0,0,1,5.24,5.6l-2.39,26.24a23.45,23.45,0,0,1-23.4,21.87H192.28a23.44,23.44,0,0,1-23.32-21l-3.83-26.93A5.25,5.25,0,0,1,170.35,724.39Z"/><path class="cls-1" d="M205,754.42a9.59,9.59,0,1,0-8.83,10.29A9.59,9.59,0,0,0,205,754.42Z"/><path class="cls-1" d="M143.7,755.06l-9.2-45c-1.72-5-6.76-7.22-11.25-5s-6.74,8-5,13l9.19,45c2.8,8.09,10.21,12.86,18,11.59l43.44-8.08-2.81-19.3Z"/><polyline class="cls-1" points="148.65 912.18 151.86 923.05 167.15 923.05 164.72 912.08 148.65 912.18"/><path class="cls-1" d="M920.2,935.2a2.93,2.93,0,0,1-2.86-2.35L837.42,537.58a2.92,2.92,0,1,1,5.73-1.16l79.92,395.27a2.92,2.92,0,0,1-2.28,3.45A3,3,0,0,1,920.2,935.2Z"/><path class="cls-1" d="M861.27,935.2a2.93,2.93,0,0,1-2.86-2.35L778.48,537.58a2.92,2.92,0,1,1,5.73-1.16l79.93,395.27a2.93,2.93,0,0,1-2.29,3.45A2.86,2.86,0,0,1,861.27,935.2Z"/><path class="cls-1" d="M913.71,912.28H856.4a2.92,2.92,0,0,1,0-5.84h57.31a2.92,2.92,0,1,1,0,5.84Z"/><path class="cls-1" d="M907.57,880.71H850.26a2.93,2.93,0,0,1,0-5.85h57.31a2.93,2.93,0,0,1,0,5.85Z"/><path class="cls-1" d="M901.43,849.13H844.12a2.92,2.92,0,1,1,0-5.84h57.31a2.92,2.92,0,1,1,0,5.84Z"/><path class="cls-1" d="M895.29,817.56H838a2.93,2.93,0,0,1,0-5.85h57.32a2.93,2.93,0,0,1,0,5.85Z"/><path class="cls-1" d="M889.14,786H831.83a2.92,2.92,0,0,1,0-5.84h57.31a2.92,2.92,0,1,1,0,5.84Z"/><path class="cls-1" d="M883,754.41H825.69a2.93,2.93,0,0,1,0-5.85H883a2.93,2.93,0,0,1,0,5.85Z"/><path class="cls-1" d="M876.86,722.83H819.55a2.92,2.92,0,1,1,0-5.84h57.31a2.92,2.92,0,0,1,0,5.84Z"/><path class="cls-1" d="M870.72,691.26H813.41a2.92,2.92,0,1,1,0-5.84h57.31a2.92,2.92,0,0,1,0,5.84Z"/><path class="cls-1" d="M864.58,659.69H807.26a2.93,2.93,0,0,1,0-5.85h57.32a2.93,2.93,0,0,1,0,5.85Z"/><path class="cls-1" d="M855.51,628.11H801.12a2.92,2.92,0,1,1,0-5.84h54.39a2.92,2.92,0,1,1,0,5.84Z"/><path class="cls-1" d="M849.37,596.54H795a2.93,2.93,0,0,1,0-5.85h54.39a2.93,2.93,0,0,1,0,5.85Z"/><path class="cls-1" d="M843.23,565H788.84a2.93,2.93,0,0,1,0-5.85h54.39a2.93,2.93,0,0,1,0,5.85Z"/><path class="cls-1" d="M752.61,935.2a3.47,3.47,0,0,1-.63-.07,2.92,2.92,0,0,1-2.22-3.49l87.67-395.28a2.92,2.92,0,1,1,5.7,1.27L755.47,932.91A2.93,2.93,0,0,1,752.61,935.2Z"/><path class="cls-1" d="M693.68,935.2a3.38,3.38,0,0,1-.63-.07,2.92,2.92,0,0,1-2.22-3.49L778.5,536.36a2.92,2.92,0,1,1,5.7,1.27L696.53,932.91A2.92,2.92,0,0,1,693.68,935.2Z"/><path class="cls-1" d="M755.83,912.28H698.52a2.92,2.92,0,1,1,0-5.84h57.31a2.92,2.92,0,1,1,0,5.84Z"/><path class="cls-1" d="M763.08,880.71H705.77a2.93,2.93,0,1,1,0-5.85h57.31a2.93,2.93,0,0,1,0,5.85Z"/><path class="cls-1" d="M770.32,849.13H713a2.92,2.92,0,1,1,0-5.84h57.31a2.92,2.92,0,1,1,0,5.84Z"/><path class="cls-1" d="M777.57,817.56H720.26a2.93,2.93,0,1,1,0-5.85h57.31a2.93,2.93,0,0,1,0,5.85Z"/><path class="cls-1" d="M784.81,786H727.5a2.92,2.92,0,1,1,0-5.84h57.31a2.92,2.92,0,1,1,0,5.84Z"/><path class="cls-1" d="M792.06,754.41H734.75a2.93,2.93,0,1,1,0-5.85h57.31a2.93,2.93,0,0,1,0,5.85Z"/><path class="cls-1" d="M799.31,722.83H742a2.92,2.92,0,1,1,0-5.84h57.32a2.92,2.92,0,1,1,0,5.84Z"/><path class="cls-1" d="M806.55,691.26H749.24a2.92,2.92,0,1,1,0-5.84h57.31a2.92,2.92,0,0,1,0,5.84Z"/><path class="cls-1" d="M813.79,659.69H756.48a2.93,2.93,0,0,1,0-5.85h57.31a2.93,2.93,0,1,1,0,5.85Z"/><path class="cls-1" d="M818.12,628.11H763.73a2.92,2.92,0,0,1,0-5.84h54.39a2.92,2.92,0,0,1,0,5.84Z"/><path class="cls-1" d="M825.36,596.54H771a2.93,2.93,0,0,1,0-5.85h54.39a2.93,2.93,0,1,1,0,5.85Z"/><path class="cls-1" d="M832.61,565H778.22a2.93,2.93,0,0,1,0-5.85h54.39a2.93,2.93,0,0,1,0,5.85Z"/><path class="cls-1" d="M801.79,782.37l-31.83.18V770l19.19-.12a12.55,12.55,0,0,1,12.64,12.47Z"/><path class="cls-1" d="M775.17,779.55l-31.83.18V767.2l19.19-.13a12.57,12.57,0,0,1,12.64,12.48Z"/><path class="cls-1" d="M677.15,487a9.24,9.24,0,1,0-13-.87A9.23,9.23,0,0,0,677.15,487Z"/><path class="cls-1" d="M826.44,548a8,8,0,1,0,11.21-1.05A8,8,0,0,0,826.44,548Z"/><polygon class="cls-1" points="767.71 523.54 768.5 542.14 755.82 543.51 755 524.08 767.71 523.54"/><circle class="cls-1" cx="760.77" cy="512.43" r="16.95" transform="translate(-140.54 342.13) rotate(-23.26)"/><path class="cls-1" d="M745.57,507.12l-5.2,2.2a1.59,1.59,0,0,0-.1,2.82l4.34,2.45,2-2Z"/><path id="SVGID-9" data-name="SVGID" class="cls-1" d="M765.77,512.59l3.07,21.67,18.68-31.47-35.26-21.36-6.79,13.08,14.94,6.62-3.6,15.92a2.08,2.08,0,0,0,1.22,2.37,2.51,2.51,0,0,0,3.38-1.17l1.79-7.75Z"/><g class="cls-6"><path class="cls-1" d="M744.59,517a16.93,16.93,0,1,0,11.76-20.86A16.92,16.92,0,0,0,744.59,517Z"/></g><path class="cls-1" d="M763.07,512.89a4.55,4.55,0,1,0,3.16-5.59A4.55,4.55,0,0,0,763.07,512.89Z"/><path class="cls-1" d="M761.34,491.23c3.08,6.14,6.66,3.74,13,5.85,8.16,2.7,9.25,10.05,6.69,13.72,0,.05-2.49,3.65-3.2,5-1.19,2.24,1.24,4.77-.88,9.75s-9.08,2.22-9.08,2.22l3.88-4.38,3.47-14.68-9.76-8-13-3.06C743,488.21,756.21,481,761.34,491.23Z"/><rect class="cls-1" x="745.49" y="749.23" width="8.54" height="17.82" transform="translate(1499.52 1516.27) rotate(180)"/><rect class="cls-1" x="772.37" y="752.05" width="8.54" height="17.82"/><polygon class="cls-1" points="764.41 608.1 761.98 608.1 738.59 608.1 742.85 757.74 756.33 757.74 758.42 634.26 767.97 634.26 770.07 757.74 783.54 757.74 787.8 608.1 764.41 608.1"/><path class="cls-1" d="M823,551.22l-16.39,17L787.94,545.8a14.46,14.46,0,0,0-13.38-8.48l-22.73-2.55a15.37,15.37,0,0,0-4.31.62q-5.43-2.55-10.78-5.23c-3.85-2-7.72-3.89-11.53-5.92l-5.27-2.81a18.75,18.75,0,0,1-3.59-2.74c-.28-.27-.52-.52-.81-.84l-1.06-1.15-2.21-2.37-4.37-4.79q-4.38-4.8-8.66-9.66-8.6-9.7-16.76-19.81l-13.15,11.59q9,9.31,17.45,19c2.85,3.22,5.66,6.49,8.44,9.76l8.68,10.25a39.2,39.2,0,0,0,6.36,5.49c.58.41,1.17.79,1.77,1.16l1.37.86,2.74,1.73c3.66,2.28,7.26,4.67,10.88,7,3.28,2.16,6.53,4.38,9.76,6.63l1.81,54.5H787.8L789,574.46l10.35,12.44a8.78,8.78,0,0,0,6.41,3.16h.33a8.76,8.76,0,0,0,6.3-2.67l23.18-24Z"/><g class="cls-7"><path class="cls-8" d="M-667.93,750.4c-4.65-11.55-15.93-20.9-8.33-29.44,6.66-5.16,14.32-7.06,22.32-7.4s16.5,1.27,24.84,2.71,16.71,3.2,24.59,3.17c2,0,3.92-.09,5.85-.27a37.75,37.75,0,0,0,5.7-1,33,33,0,0,0,10.8-4.88c-1.36-6.52-2.63-13-3.91-19.57,27.42,2.21,56.15,7.53,84.3,12l8.83-2.11,4.41-1.08,4.43-1q8.85-2,17.69-4.11,8.88-1.9,17.74-3.93l4.43-1,4.44-.94,8.88-1.91,8.88-2,9.14-1.79q9.15-1.81,18.29-3.76c12-2.76,24.86-4.9,37.45-7.46-2.07-7.07-3.41-13.63,1.49-16.61a63.39,63.39,0,0,1,8.33-2c1.46-.25,2.95-.47,4.48-.65s3.16-.26,4.78-.34c6.5-.32,13.46-.17,20.72.18,3.64.18,7.35.41,11.11.66l5.7.39c1.92.13,3.93.34,5.91.5,7.95.7,16.07,1.34,24.25,1.68l14.25-3.72c3.62-4.3,4.39-11.18,4.86-15.44a332.58,332.58,0,0,1,41.47,4.53l31.72-7,16-3.54,16.36-3.39,32.93-6.86L-79,616.39l8.48-1.7c2.82-.57,5.66-1.13,8.57-1.68l17.33-3.32L-9.73,603l71.88-13.5,74.07-14,37.93-7.32,19.06-3.69,19.32-3.88,38.81-7.84,39.36-8.34,9.85-2.09c3.3-.7,6.64-1.48,10-2.22l19.95-4.5,20-4.51,5-1.13,5.09-1.2,10.18-2.41c22.73-9.69,45.15-19.91,67.14-29,22-9.32,43.61-17.54,64.93-23.85,31.92-6.84,68.88-10,106.15-13.26s74.79-6.73,106.75-12.93c-7.66-16.26-4.46-32.79,3.1-49.22,1.9-4.09,4.06-8.25,6.4-12.42s4.88-8.33,7.5-12.47,5.36-8.24,8.05-12.47l8-12.56c2.63-4.18,5.2-8.31,7.58-12.46s4.58-8.38,6.55-12.52A123.53,123.53,0,0,0,768,310.87c.71-2,1.35-4.05,1.89-6.08s1-4.07,1.33-6.09c2.83-16.16-.58-31.47-14-45.89l13.66-3.93c4.66-1.5,9.45-3.07,14.22-4.72,2.39-.82,4.77-1.66,7.12-2.52s4.61-1.85,6.86-2.8c4.5-1.9,8.83-3.86,12.84-5.87,7.89-4.2,14.45-8.67,18.55-13.18s5.54-9.36,3.56-14a313.91,313.91,0,0,1-15.17-44.32,248.91,248.91,0,0,1-7.77-47.62c-.21-4-.45-8.12-.51-12.17s0-8.13.17-12.17q.13-3,.37-6c.16-2,.32-4,.5-6.08.34-4.07.83-8.13,1.46-12.15a224,224,0,0,1,5.09-24c.28-1,.58-1.95.87-2.94s.55-2,.83-3c.57-2,1.17-4,1.83-5.95,1.28-4,2.87-7.76,4.28-11.75a27.33,27.33,0,0,1,6.41-6.67l1-.71.95-.74c.65-.49,1.31-1,2-1.41,1.37-.92,2.82-1.78,4.33-2.59s3.09-1.59,4.7-2.33,3.1-1.55,4.7-2.28c3.16-1.48,6.48-2.8,9.62-4.14s6-2.78,8.71-4.13c1.36-.67,2.66-1.34,3.87-2a36.17,36.17,0,0,0,3.16-2.17c3.81-2.91,5.92-5.89,4.83-9.23-.2-7-4.72-10-11.4-11.06-.84-.13-1.71-.23-2.61-.31a1.62,1.62,0,0,1-.61-.12l-.57-.18-1.15-.33c-1.55-.44-3.14-.83-4.77-1.2-3.27-.74-6.65-1.38-10-2s-6.64-1.34-9.76-2.16a56.89,56.89,0,0,1-8.92-3.12c-5.39-2.49-9.51-5.93-11.38-11-15,9.6-30.41,18.75-47,27.78-1,.56-2,1.18-3.1,1.71l-3.23,1.64c-2.15,1.11-4.27,2.23-6.37,3.38-1,.59-2.2,1.09-3.3,1.65l-3.32,1.64c-2.23,1.09-4.35,2.26-6.61,3.35S741.5-9,739.22-7.94s-4.48,2.26-6.92,3.29-4.75,2.14-7.11,3.24C724-.87,722.88-.29,721.64.23l-3.7,1.57A886.66,886.66,0,0,1,582.39,48.18a1177.31,1177.31,0,0,1-167.6,30.09c-7.56.73-15.05,1.56-22.68,2.22l-11.45,1-5.74.48-5.79.4c-7.72.52-15.43,1.1-23.26,1.46l-11.71.61-12.37.41c-16.61.5-33,1.14-50.33,1.1L245.73,86c-8.71-.06-17.62-.24-26.44-.38a186.61,186.61,0,0,1-24.38,5.17c-10.38,1.51-22.73,2.91-36.8,4.19-3.53.31-7.09.65-10.91.92l-11.76.8q-12.07.78-25.33,1.46l-6.69.34-6.9.31-14.36.54q-14.64.52-30.26.95c-10.53.28-21.57.5-32.78.71l-34.82.54-75.59.78-19.91.17-20.51.26-20.74.22-10.44.1-10.7.21-43.17.75-44.44,1.22c-14.75.29-30.11,1.08-45.26,1.67l-22.78.94c-3.76.12-7.66.38-11.51.6l-11.57.68-23.08,1.35-11.51.67c-1.92.12-3.82.2-5.76.35l-5.83.46-46.33,3.66-5.75.45c-1.91.16-3.87.39-5.8.58L-468,117.87l-23,2.36c-7.64.8-15.2,1.52-22.79,2.38l-22.74,2.81-11.25,1.4-11.13,1.55-22,3.07c-7.26,1.07-14.43,2.23-21.56,3.32l-10.63,1.66-5.27.82-5.23.9C-735,156.65-825.77,180.21-878.85,193c-6.17,2.23-12.36,4.34-18.46,6.66q-10.66,3.09-21.55,6.4c-3.62,1.11-7.27,2.21-10.91,3.37l-10.93,3.62q-10.95,3.67-22,7.54-11,4-22,8.25c-3.67,1.41-7.35,2.81-11,4.27l-10.93,4.51c-7.27,3-14.54,6.11-21.75,9.3s-14.3,6.56-21.38,9.92c-3.54,1.69-7.08,3.34-10.57,5.1l-10.39,5.29c-6.89,3.57-13.74,7.13-20.44,10.82s-13.25,7.52-19.72,11.33c-3.23,1.91-6.45,3.8-9.61,5.76l-9.35,5.93q-9.26,5.94-18.12,12T-1165,325.42c-5.53,4.13-10.92,8.24-16,12.52-10.24,8.5-19.86,16.87-28.39,25.54-29,35.08-54.31,74.2-77.37,113,12.16-.83,24.15-1.1,35.54-1.2,5.71,0,11.28,0,16.73.14s10.82.44,16,.78c-4.69,2.6-9.46,5.13-14,7.81s-9.13,5.32-13.54,8-8.72,5.28-12.77,8-7.9,5.38-11.51,8-7,5.31-10,7.92a84.85,84.85,0,0,0-8,7.84c-4.63,5.18-7.77,10.19-8.93,15a138.4,138.4,0,0,0-8.51,13.15,104.62,104.62,0,0,0-5.76,11.52,61.44,61.44,0,0,0-3.29,10,37,37,0,0,0-1,8.62c.14,10.63,5.71,17.84,14.63,23.29s21.17,9.06,35,12.74,29,7.08,43.92,11.91c16.78,1.77,24.19,13.41,33.08,24.11s19.17,20.51,40.55,19.45l-14.13,8.73c-4.26,2.66-8.27,5-12.15,7.57l-12,7.75c-4.22,2.74-8.83,5.63-13.94,9.11a6,6,0,0,0,5.76,2.68,12.58,12.58,0,0,0,3.68-1,29.66,29.66,0,0,0,4.16-2.11c5.8-3.47,12.48-9.36,19.15-14.63s13.42-9.81,18.89-10.91,9.73,1.32,11.79,10.16c-12.21,3.57-21.84,11.32-30.53,20.12-4.33,4.4-8.69,8.81-13,13.19A93.22,93.22,0,0,1-1195,735.93c6.59,3.9,14.49,3.29,22.85.54a123.37,123.37,0,0,0,12.93-5.32c4.39-2.09,8.8-4.41,13.12-6.68,17.46-8.94,33.74-16.77,41.2-5.12-1.65,2.92-7.35,4.94-14.8,6.75s-16.69,3.37-25,5.71-16,5.07-20.15,9.16-5,9.32.1,16.32c2,2.81,8,.94,14.53-2.43a212.69,212.69,0,0,0,19-11.21q-4.83,4.64-9.13,9.22c-2.88,3-5.57,6.06-8,9.12a145.1,145.1,0,0,0-12.27,17.62c-6.33,11.46-9.34,21.67-8.26,30s6.14,14.61,15.54,18.11a48.14,48.14,0,0,0,7.88,2.1,72.63,72.63,0,0,0,9.64,1.09,137.93,137.93,0,0,0,24.5-1.24,105.5,105.5,0,0,1-15.69,8.5l-9.13,4.07-9.3,4.29c-12.53,5.74-24.34,12.59-31.22,21.39.17.12.36.16.55.27,4.74-3.18,12.13-6.63,19.34-10,3.57-1.73,7.24-3.33,10.45-5a59.66,59.66,0,0,0,8.15-4.71c-5.13,3.76-10.37,7.45-15.47,11.27l-15.26,11.53c5.16,2.08,10.45,4,15.81,5.77a131.7,131.7,0,0,0,14.82-5.18,64,64,0,0,0,13.16-7.08l-10.14,7.31c-3.36,2.46-6.64,5-10,7.51,6.53,1.94,13.15,3.69,19.77,5.25s13.38,3,20,4.24c4.82-.27,9.73-.4,14.63-.43s9.92.13,14.79.28,9.72.4,14.4.62l6.89.33,6.7.37a220.47,220.47,0,0,0,23,.32c6.48-.35,11.64-1.24,14.81-3.25a1749.77,1749.77,0,0,1,168.4-76.74C-784.44,787.94-726.37,768.07-667.93,750.4Z"/></g><path class="cls-9" d="M914.23,235.35h-4.72a57.55,57.55,0,0,0-103,0h-4.72a41.62,41.62,0,0,0,0,83.23H914.23a41.62,41.62,0,0,0,0-83.23Z"/><path class="cls-9" d="M233.36,158.87H231a28.65,28.65,0,0,0-51.28,0h-2.35a20.72,20.72,0,1,0,0,41.43h56a20.72,20.72,0,0,0,0-41.43Z"/><path class="cls-10" d="M974.23,881.28,970,880.9c.47-5.19.17-14.56-2.64-17.63a2.59,2.59,0,0,0-2-.95,5.58,5.58,0,0,0-4.28,1.83c-3.75,4-4,13.49-3.8,16.8l-4.2.28c0-.57-.83-13.82,4.92-20a9.74,9.74,0,0,1,7.36-3.17,6.87,6.87,0,0,1,5.17,2.33C975.49,865.88,974.38,879.72,974.23,881.28Z"/><circle class="cls-9" cx="965.3" cy="879.08" r="9.66"/><path class="cls-9" d="M972.49,874a9.67,9.67,0,1,0,9.66-9.66A9.66,9.66,0,0,0,972.49,874Z"/><path class="cls-9" d="M987.73,881.6a9.67,9.67,0,1,0,9.67-9.67A9.67,9.67,0,0,0,987.73,881.6Z"/><path class="cls-11" d="M1013.76,881.28l-4.2-.38c.48-5.19.18-14.56-2.63-17.63a2.6,2.6,0,0,0-2.06-.95,5.6,5.6,0,0,0-4.28,1.83c-3.75,4-4,13.49-3.79,16.8l-4.21.28c0-.57-.83-13.82,4.93-20a9.73,9.73,0,0,1,7.35-3.17,6.89,6.89,0,0,1,5.18,2.33C1015,865.88,1013.9,879.72,1013.76,881.28Z"/><path class="cls-11" d="M948.35,878.77h66a5.25,5.25,0,0,1,5.24,5.6l-2.39,26.24a23.45,23.45,0,0,1-23.4,21.87H970.27a23.44,23.44,0,0,1-23.31-21l-3.83-26.93A5.25,5.25,0,0,1,948.35,878.77Z"/><path class="cls-10" d="M580.36,881.28l-4.2-.38c.48-5.19.18-14.56-2.63-17.63a2.6,2.6,0,0,0-2.06-.95,5.56,5.56,0,0,0-4.27,1.83c-3.76,4-4,13.49-3.8,16.8l-4.21.28c0-.57-.83-13.82,4.93-20a9.73,9.73,0,0,1,7.35-3.17,6.88,6.88,0,0,1,5.18,2.33C581.62,865.88,580.5,879.72,580.36,881.28Z"/><path class="cls-9" d="M561.89,879.08a9.66,9.66,0,1,0,9.66-9.66A9.66,9.66,0,0,0,561.89,879.08Z"/><circle class="cls-9" cx="588.4" cy="873.97" r="9.66"/><path class="cls-9" d="M594,881.6a9.67,9.67,0,1,0,9.67-9.67A9.67,9.67,0,0,0,594,881.6Z"/><path class="cls-11" d="M614.43,881.28l-4.58-.38c.52-5.19.2-14.56-2.87-17.63a3,3,0,0,0-2.25-.95,6.39,6.39,0,0,0-4.67,1.83c-4.09,4-4.38,13.49-4.14,16.8l-4.59.28c0-.57-.91-13.82,5.38-20a11.08,11.08,0,0,1,8-3.17,7.83,7.83,0,0,1,5.65,2.33C615.81,865.88,614.59,879.72,614.43,881.28Z"/><path class="cls-11" d="M551.76,878.77h66a5.25,5.25,0,0,1,5.24,5.6l-2.39,26.24a23.45,23.45,0,0,1-23.4,21.87H573.68a23.44,23.44,0,0,1-23.31-21l-3.83-26.93A5.25,5.25,0,0,1,551.76,878.77Z"/><path class="cls-12" d="M481.42,719.28l2.67-14.8c-4-.73-95.6-18.51-94.73-109.86a7.52,7.52,0,0,0-7.05-7.62h0a7.53,7.53,0,0,0-8,7.39C373.24,698.63,480.31,719.08,481.42,719.28Z"/><path class="cls-12" d="M499.93,770.14c61-4.69,89.15-43.94,97.94-59.37a6.19,6.19,0,0,0-3-8.75h0a6.22,6.22,0,0,0-7.85,2.62A105,105,0,0,1,569.54,727c-18.8,18.3-42.54,28.66-70.56,30.81Z"/><circle class="cls-8" cx="613.37" cy="628.26" r="87.66"/><polygon class="cls-12" points="473.32 935.2 513.37 935.2 508.89 610.36 477.79 610.36 473.32 935.2"/><circle class="cls-11" cx="501.68" cy="417.99" r="238.56"/><circle class="cls-9" cx="652.81" cy="417.46" r="9.66"/><path class="cls-9" d="M396.31,417.58a9.66,9.66,0,1,0,9.66-9.66A9.66,9.66,0,0,0,396.31,417.58Z"/><circle class="cls-13" cx="355.65" cy="360.85" r="9.66"/><circle class="cls-13" cx="366.71" cy="473.48" r="9.66"/><circle class="cls-9" cx="387.77" cy="541.08" r="9.66"/><circle class="cls-13" cx="570.32" cy="383.11" r="9.66"/><path class="cls-9" d="M498.45,323.25a9.67,9.67,0,1,0,9.67-9.66A9.66,9.66,0,0,0,498.45,323.25Z"/><circle class="cls-9" cx="593.66" cy="557.83" r="9.66"/><path class="cls-13" d="M498.49,250.53a9.66,9.66,0,1,0,10.43-8.83A9.67,9.67,0,0,0,498.49,250.53Z"/><path class="cls-13" d="M406.92,287.35a9.67,9.67,0,1,0,9.67-9.67A9.67,9.67,0,0,0,406.92,287.35Z"/><circle class="cls-13" cx="634.13" cy="470.55" r="9.66"/><path class="cls-13" d="M481.24,417.46a9.66,9.66,0,1,0,9.66-9.67A9.67,9.67,0,0,0,481.24,417.46Z"/><circle class="cls-9" cx="456.05" cy="480.7" r="9.66"/><circle class="cls-13" cx="529.75" cy="526.91" r="9.66"/><circle class="cls-13" cx="543.81" cy="465.34" r="9.66"/><circle class="cls-13" cx="652.81" cy="354.39" r="9.66"/><path class="cls-13" d="M590.81,287.35a9.67,9.67,0,1,0,9.67-9.67A9.67,9.67,0,0,0,590.81,287.35Z"/><circle class="cls-13" cx="453.2" cy="363.78" r="9.66"/><circle class="cls-13" cx="462.86" cy="567.64" r="9.66"/><ellipse class="cls-3" cx="260.05" cy="716.49" rx="8.01" ry="7.6"/><path class="cls-14" d="M294.44,741.38l29-23.92c3.66-2.29,8.15-1.28,10,2.27s.4,8.29-3.27,10.58l-29,23.92c-6,3.74-13.31,3.17-17.84-1.39l-24.71-26,11.66-10.79Z"/><polygon class="cls-9" points="350.99 925.53 343.54 913.7 356.63 910.78 362.78 921.86 350.99 925.53"/><path class="cls-3" d="M326.15,819.91l-1.67,47.64,0,.75a6.58,6.58,0,0,0,1,3.23l18,42.17,13.09-2.92-15.78-47.1,1,4,5.28-47.36Z"/><path class="cls-15" d="M335.4,935.64l35.49-.78L363.71,922l-17.42.66a11.61,11.61,0,0,0-10.89,13Z"/><polygon class="cls-3" points="331.8 720.23 340.79 719.16 340.04 702.45 330.54 702.88 331.8 720.23"/><path class="cls-16" d="M319.47,731.79,327,757.08a2.12,2.12,0,0,0,2.28,1.5l18.29-2.23a2.1,2.1,0,0,0,1.72-1.34l7.36-24.07a9.91,9.91,0,0,0-8.26-13.41L332.57,716A12.38,12.38,0,0,0,319.47,731.79Z"/><polygon class="cls-9" points="387.42 925.53 379.97 913.7 393.06 910.78 399.21 921.86 387.42 925.53"/><path class="cls-3" d="M348.71,821.78l4.53,45.62,0,.75a6.47,6.47,0,0,0,1,3.23L380,913.7l13.09-2.92-23.45-47.25,1,4-.91-45.35Z"/><path class="cls-12" d="M348.39,756.31s16.3,19.08,17.67,30.71l21.24,59.23H317.93l9.54-87.46Z"/><path class="cls-3" d="M315,688.61l4-1.7,2.26,5.23-3.85.93-2.59-1.59A1.62,1.62,0,0,1,315,688.61Z"/><path id="SVGID-10" data-name="SVGID" class="cls-3" d="M317.29,696.89A17.23,17.23,0,1,0,330,676.12,17.24,17.24,0,0,0,317.29,696.89Z"/><g class="cls-17"><polygon class="cls-18" points="328.23 671.08 348.45 712.07 356.27 682.91 328.23 671.08"/></g><path class="cls-18" d="M349.87,706.12a13.15,13.15,0,1,0,5.62-17.73A13.16,13.16,0,0,0,349.87,706.12Z"/><path class="cls-3" d="M336.92,693.73a4.83,4.83,0,1,0,3.57-5.82A4.83,4.83,0,0,0,336.92,693.73Z"/><path class="cls-3" d="M315.14,782.61a8.32,8.32,0,0,1,8.41,7.6,7.34,7.34,0,0,1-7.17,8,8.33,8.33,0,0,1-8.4-7.61A7.33,7.33,0,0,1,315.14,782.61Z"/><path class="cls-9" d="M350.22,765.17l-8.45-38.51a7.37,7.37,0,1,1,14.4-3.16L364.62,762a14.89,14.89,0,0,1-7.52,16.28l-33,16.7-6-13.49Z"/><path class="cls-15" d="M371.83,935.64l35.49-.78L400.14,922l-17.42.66a11.61,11.61,0,0,0-10.89,13Z"/><circle class="cls-9" cx="254.75" cy="703.46" r="9.66"/><rect class="cls-11" x="4.1" y="932.12" width="1071.8" height="4.88"/><path class="cls-19" d="M196.23,726.91l-4.19-.39c.47-5.18.17-14.55-2.64-17.63a2.59,2.59,0,0,0-2.05-.95,5.57,5.57,0,0,0-4.28,1.84c-3.75,4-4,13.48-3.8,16.8l-4.2.27c0-.56-.83-13.81,4.92-20a9.71,9.71,0,0,1,7.36-3.18,6.87,6.87,0,0,1,5.17,2.33C197.49,711.51,196.38,725.35,196.23,726.91Z"/><circle class="cls-9" cx="188.44" cy="727.11" r="9.66"/><circle class="cls-9" cx="205.29" cy="722" r="9.66"/><circle class="cls-9" cx="220.54" cy="729.62" r="9.66"/><path class="cls-3" d="M215.14,733.52a9.59,9.59,0,1,0-5.94,12.19A9.59,9.59,0,0,0,215.14,733.52Z"/><path class="cls-10" d="M156,749.68l-20.3-41.25c-2.93-4.37-8.37-5.27-12.16-2s-4.49,9.46-1.56,13.83l20.3,41.25c4.77,7.12,13.14,9.85,20.36,6.65l40-18.82-7.61-18Z"/><path class="cls-15" d="M186.77,936.6l-30.51.2-4.4-13.75,21-.14a13.77,13.77,0,0,1,13.86,13.69Z"/><polygon class="cls-15" points="154.97 863.71 116.38 912.13 98.26 912.24 136.96 847.18 154.97 863.71"/><path class="cls-15" d="M143.68,773.23l16.87,57.83c3.26,13.31-.77,27.77-10.09,36.24l-1.59,1.44-24-96.42Z"/><path class="cls-12" d="M136.1,769.44l-9.34,9.84-9.29-5c-10.1,8.59-4.48,19.51-4.48,19.51l35.66,118.37,16.08-.13Z"/><polygon class="cls-3" points="130.26 703.54 121.53 701.53 124.05 685.2 133.34 686.63 130.26 703.54"/><path class="cls-3" d="M145.77,683.7A17.34,17.34,0,1,1,140,659.87,17.35,17.35,0,0,1,145.77,683.7Z"/><path class="cls-3" d="M148.15,672.45l3.28,2.86a1.63,1.63,0,0,1-.69,2.81l-3,.73-3.4-2.07Z"/><path class="cls-8" d="M114.48,780.27l30.35,1.23a2.76,2.76,0,0,0,2.86-3l-7.21-68.65a15.52,15.52,0,0,0-16.42-13.88h0A15.53,15.53,0,0,0,109.52,712l2.32,65.63A2.75,2.75,0,0,0,114.48,780.27Z"/><g class="cls-20"><path class="cls-18" d="M145.77,683.7A17.34,17.34,0,1,1,140,659.87,17.35,17.35,0,0,1,145.77,683.7Z"/></g><path class="cls-3" d="M128,674.49a5,5,0,1,1-1.68-6.89A5,5,0,0,1,128,674.49Z"/><path class="cls-19" d="M235.76,726.91l-4.2-.39c.48-5.18.18-14.55-2.63-17.63a2.6,2.6,0,0,0-2.06-.95,5.57,5.57,0,0,0-4.28,1.84c-3.75,4-4,13.48-3.79,16.8l-4.21.27c0-.56-.83-13.81,4.93-20a9.7,9.7,0,0,1,7.35-3.18,6.89,6.89,0,0,1,5.18,2.33C237,711.51,235.9,725.35,235.76,726.91Z"/><path class="cls-21" d="M170.35,724.39h66a5.25,5.25,0,0,1,5.24,5.6l-2.39,26.24a23.45,23.45,0,0,1-23.4,21.87H192.28a23.44,23.44,0,0,1-23.32-21l-3.83-26.93A5.25,5.25,0,0,1,170.35,724.39Z"/><path class="cls-3" d="M205,754.42a9.59,9.59,0,1,0-8.83,10.29A9.59,9.59,0,0,0,205,754.42Z"/><path class="cls-11" d="M143.7,755.06l-9.2-45c-1.72-5-6.76-7.22-11.25-5s-6.74,8-5,13l9.19,45c2.8,8.09,10.21,12.86,18,11.59l43.44-8.08-2.81-19.3Z"/><polyline class="cls-3" points="148.65 912.18 151.86 923.05 167.15 923.05 164.72 912.08 148.65 912.18"/><path class="cls-10" d="M920.2,935.2a2.93,2.93,0,0,1-2.86-2.35L837.42,537.58a2.92,2.92,0,1,1,5.73-1.16l79.92,395.27a2.92,2.92,0,0,1-2.28,3.45A3,3,0,0,1,920.2,935.2Z"/><path class="cls-10" d="M861.27,935.2a2.93,2.93,0,0,1-2.86-2.35L778.48,537.58a2.92,2.92,0,1,1,5.73-1.16l79.93,395.27a2.93,2.93,0,0,1-2.29,3.45A2.86,2.86,0,0,1,861.27,935.2Z"/><path class="cls-10" d="M913.71,912.28H856.4a2.92,2.92,0,0,1,0-5.84h57.31a2.92,2.92,0,1,1,0,5.84Z"/><path class="cls-10" d="M907.57,880.71H850.26a2.93,2.93,0,0,1,0-5.85h57.31a2.93,2.93,0,0,1,0,5.85Z"/><path class="cls-10" d="M901.43,849.13H844.12a2.92,2.92,0,1,1,0-5.84h57.31a2.92,2.92,0,1,1,0,5.84Z"/><path class="cls-10" d="M895.29,817.56H838a2.93,2.93,0,0,1,0-5.85h57.32a2.93,2.93,0,0,1,0,5.85Z"/><path class="cls-10" d="M889.14,786H831.83a2.92,2.92,0,0,1,0-5.84h57.31a2.92,2.92,0,1,1,0,5.84Z"/><path class="cls-10" d="M883,754.41H825.69a2.93,2.93,0,0,1,0-5.85H883a2.93,2.93,0,0,1,0,5.85Z"/><path class="cls-10" d="M876.86,722.83H819.55a2.92,2.92,0,1,1,0-5.84h57.31a2.92,2.92,0,0,1,0,5.84Z"/><path class="cls-10" d="M870.72,691.26H813.41a2.92,2.92,0,1,1,0-5.84h57.31a2.92,2.92,0,0,1,0,5.84Z"/><path class="cls-10" d="M864.58,659.69H807.26a2.93,2.93,0,0,1,0-5.85h57.32a2.93,2.93,0,0,1,0,5.85Z"/><path class="cls-10" d="M855.51,628.11H801.12a2.92,2.92,0,1,1,0-5.84h54.39a2.92,2.92,0,1,1,0,5.84Z"/><path class="cls-10" d="M849.37,596.54H795a2.93,2.93,0,0,1,0-5.85h54.39a2.93,2.93,0,0,1,0,5.85Z"/><path class="cls-10" d="M843.23,565H788.84a2.93,2.93,0,0,1,0-5.85h54.39a2.93,2.93,0,0,1,0,5.85Z"/><path class="cls-11" d="M752.61,935.2a3.47,3.47,0,0,1-.63-.07,2.92,2.92,0,0,1-2.22-3.49l87.67-395.28a2.92,2.92,0,1,1,5.7,1.27L755.47,932.91A2.93,2.93,0,0,1,752.61,935.2Z"/><path class="cls-11" d="M693.68,935.2a3.38,3.38,0,0,1-.63-.07,2.92,2.92,0,0,1-2.22-3.49L778.5,536.36a2.92,2.92,0,1,1,5.7,1.27L696.53,932.91A2.92,2.92,0,0,1,693.68,935.2Z"/><path class="cls-11" d="M755.83,912.28H698.52a2.92,2.92,0,1,1,0-5.84h57.31a2.92,2.92,0,1,1,0,5.84Z"/><path class="cls-11" d="M763.08,880.71H705.77a2.93,2.93,0,1,1,0-5.85h57.31a2.93,2.93,0,0,1,0,5.85Z"/><path class="cls-11" d="M770.32,849.13H713a2.92,2.92,0,1,1,0-5.84h57.31a2.92,2.92,0,1,1,0,5.84Z"/><path class="cls-11" d="M777.57,817.56H720.26a2.93,2.93,0,1,1,0-5.85h57.31a2.93,2.93,0,0,1,0,5.85Z"/><path class="cls-11" d="M784.81,786H727.5a2.92,2.92,0,1,1,0-5.84h57.31a2.92,2.92,0,1,1,0,5.84Z"/><path class="cls-11" d="M792.06,754.41H734.75a2.93,2.93,0,1,1,0-5.85h57.31a2.93,2.93,0,0,1,0,5.85Z"/><path class="cls-11" d="M799.31,722.83H742a2.92,2.92,0,1,1,0-5.84h57.32a2.92,2.92,0,1,1,0,5.84Z"/><path class="cls-11" d="M806.55,691.26H749.24a2.92,2.92,0,1,1,0-5.84h57.31a2.92,2.92,0,0,1,0,5.84Z"/><path class="cls-11" d="M813.79,659.69H756.48a2.93,2.93,0,0,1,0-5.85h57.31a2.93,2.93,0,1,1,0,5.85Z"/><path class="cls-11" d="M818.12,628.11H763.73a2.92,2.92,0,0,1,0-5.84h54.39a2.92,2.92,0,0,1,0,5.84Z"/><path class="cls-11" d="M825.36,596.54H771a2.93,2.93,0,0,1,0-5.85h54.39a2.93,2.93,0,1,1,0,5.85Z"/><path class="cls-11" d="M832.61,565H778.22a2.93,2.93,0,0,1,0-5.85h54.39a2.93,2.93,0,0,1,0,5.85Z"/><path class="cls-15" d="M801.79,782.37l-31.83.18V770l19.19-.12a12.55,12.55,0,0,1,12.64,12.47Z"/><path class="cls-15" d="M775.17,779.55l-31.83.18V767.2l19.19-.13a12.57,12.57,0,0,1,12.64,12.48Z"/><path class="cls-3" d="M677.15,487a9.24,9.24,0,1,0-13-.87A9.23,9.23,0,0,0,677.15,487Z"/><path class="cls-3" d="M826.44,548a8,8,0,1,0,11.21-1.05A8,8,0,0,0,826.44,548Z"/><polygon class="cls-3" points="767.71 523.54 768.5 542.14 755.82 543.51 755 524.08 767.71 523.54"/><circle class="cls-3" cx="760.77" cy="512.43" r="16.95" transform="translate(-140.54 342.13) rotate(-23.26)"/><path class="cls-3" d="M745.57,507.12l-5.2,2.2a1.59,1.59,0,0,0-.1,2.82l4.34,2.45,2-2Z"/><g class="cls-22"><path class="cls-18" d="M744.59,517a16.93,16.93,0,1,0,11.76-20.86A16.92,16.92,0,0,0,744.59,517Z"/></g><path class="cls-3" d="M763.07,512.89a4.55,4.55,0,1,0,3.16-5.59A4.55,4.55,0,0,0,763.07,512.89Z"/><path class="cls-18" d="M761.34,491.23c3.08,6.14,6.66,3.74,13,5.85,8.16,2.7,9.25,10.05,6.69,13.72,0,.05-2.49,3.65-3.2,5-1.19,2.24,1.24,4.77-.88,9.75s-9.08,2.22-9.08,2.22l3.88-4.38,3.47-14.68-9.76-8-13-3.06C743,488.21,756.21,481,761.34,491.23Z"/><rect class="cls-3" x="745.49" y="749.23" width="8.54" height="17.82" transform="translate(1499.52 1516.27) rotate(180)"/><rect class="cls-3" x="772.37" y="752.05" width="8.54" height="17.82"/><polygon class="cls-12" points="764.41 608.1 761.98 608.1 738.59 608.1 742.85 757.74 756.33 757.74 758.42 634.26 767.97 634.26 770.07 757.74 783.54 757.74 787.8 608.1 764.41 608.1"/><path class="cls-8" d="M823,551.22l-16.39,17L787.94,545.8a14.46,14.46,0,0,0-13.38-8.48l-22.73-2.55a15.37,15.37,0,0,0-4.31.62q-5.43-2.55-10.78-5.23c-3.85-2-7.72-3.89-11.53-5.92l-5.27-2.81a18.75,18.75,0,0,1-3.59-2.74c-.28-.27-.52-.52-.81-.84l-1.06-1.15-2.21-2.37-4.37-4.79q-4.38-4.8-8.66-9.66-8.6-9.7-16.76-19.81l-13.15,11.59q9,9.31,17.45,19c2.85,3.22,5.66,6.49,8.44,9.76l8.68,10.25a39.2,39.2,0,0,0,6.36,5.49c.58.41,1.17.79,1.77,1.16l1.37.86,2.74,1.73c3.66,2.28,7.26,4.67,10.88,7,3.28,2.16,6.53,4.38,9.76,6.63l1.81,54.5H787.8L789,574.46l10.35,12.44a8.78,8.78,0,0,0,6.41,3.16h.33a8.76,8.76,0,0,0,6.3-2.67l23.18-24Z"/></svg>