<svg id="Camada_1" data-name="Camada 1" xmlns="http://www.w3.org/2000/svg" xmlns:xlink="http://www.w3.org/1999/xlink" viewBox="0 0 1080 963.3"><defs><style>.cls-1{fill:none;}.cls-2{clip-path:url(#clip-path);}.cls-3{fill:#e21b1b;}</style><clipPath id="clip-path"><polygon class="cls-1" points="1077.28 847.01 -15.7 801.61 5.13 7.5 1098.12 52.9 1077.28 847.01"/></clipPath></defs><title>image</title><g class="cls-2"><path class="cls-3" d="M426.44,639.74c-4.38-10.46-15.43-19.24-7.64-26.51,6.78-4.31,14.47-5.68,22.48-5.65S457.74,609.39,466,611s16.62,3.54,24.5,3.84c2,.07,3.92.08,5.86,0a43.52,43.52,0,0,0,5.72-.64,34.7,34.7,0,0,0,10.9-3.89c-1.2-5.85-2.32-11.69-3.45-17.55,27.36,3.1,55.95,9,84,14.2l8.88-1.51,4.44-.77,4.44-.7q8.9-1.39,17.78-2.91,8.91-1.33,17.82-2.76l4.45-.72,4.46-.65,8.92-1.33,8.93-1.39,9.17-1.21q9.18-1.23,18.37-2.58c12.08-2,25-3.32,37.6-5.07-1.9-6.37-3.09-12.26,1.88-14.7a72.55,72.55,0,0,1,8.37-1.44c1.47-.16,3-.3,4.49-.39s3.16-.1,4.79-.1c6.5,0,13.45.4,20.7,1,3.63.31,7.33.67,11.1,1l5.68.58c1.91.2,3.92.47,5.89.7,7.93.94,16,1.86,24.2,2.49l14.33-2.71c3.72-3.67,4.65-9.75,5.22-13.52a376.54,376.54,0,0,1,41.34,5.74l31.86-4.88,16.06-2.49,16.42-2.33,33.08-4.73,33.91-4.57,8.52-1.15c2.82-.39,5.68-.77,8.6-1.14l17.4-2.23,35.07-4.51,72.16-9,74.35-9.32,38.08-4.93,19.14-2.49,19.4-2.64,39-5.36,39.52-5.78,9.9-1.44c3.31-.49,6.67-1,10-1.57l20-3.17,20.06-3.18,5-.79,5.11-.86,10.24-1.71c22.94-7.67,45.58-15.83,67.78-23A658.18,658.18,0,0,1,1603,442.28c32.06-4.76,69.07-6,106.4-7.38s74.9-2.87,107-7.06c-7.28-14.77-3.69-29.32,4.25-43.61,2-3.55,4.25-7.16,6.69-10.77s5.06-7.2,7.78-10.77,5.54-7.1,8.33-10.75l8.34-10.83c2.72-3.6,5.38-7.16,7.86-10.76s4.77-7.25,6.84-10.85a104.77,104.77,0,0,0,5.41-10.73c.76-1.78,1.44-3.55,2-5.33s1.07-3.58,1.47-5.35c3.21-14.24.16-28-12.93-41.36l13.74-2.93c4.7-1.14,9.52-2.34,14.33-3.6,2.4-.63,4.8-1.28,7.18-1.95s4.65-1.45,6.92-2.2c4.54-1.5,8.91-3.06,13-4.69,8-3.4,14.64-7.1,18.86-10.93s5.75-8.1,3.87-12.32a262.78,262.78,0,0,1-14.12-40,200.54,200.54,0,0,1-6.66-42.64c-.11-3.55-.26-7.23-.22-10.84s.17-7.22.45-10.8q.19-2.7.51-5.37c.2-1.74.42-3.53.64-5.37.44-3.61,1-7.2,1.74-10.74a179.7,179.7,0,0,1,5.65-21.13l.94-2.58c.3-.86.6-1.74.9-2.63q.92-2.62,2-5.21c1.37-3.46,3-6.78,4.55-10.26a25.06,25.06,0,0,1,6.56-5.66l1-.6,1-.61c.65-.41,1.33-.8,2-1.18,1.39-.75,2.86-1.46,4.39-2.12s3.12-1.28,4.75-1.87,3.13-1.25,4.74-1.83c3.2-1.18,6.55-2.22,9.72-3.28s6-2.22,8.8-3.3c1.38-.55,2.69-1.09,3.92-1.64a34.8,34.8,0,0,0,3.2-1.79c3.88-2.43,6.06-5,5-8,0-6.19-4.49-9.07-11.14-10.29-.84-.16-1.7-.28-2.6-.39a1.83,1.83,0,0,1-.61-.13l-.56-.18-1.14-.35c-1.54-.45-3.13-.87-4.75-1.26-3.24-.79-6.61-1.5-9.93-2.22s-6.6-1.46-9.7-2.32a62.59,62.59,0,0,1-8.84-3.15c-5.33-2.43-9.36-5.66-11.12-10.21-15.17,7.9-30.82,15.4-47.66,22.73-1.06.45-2,1-3.14,1.39l-3.27,1.32c-2.17.9-4.31,1.81-6.44,2.74-1,.49-2.23.88-3.33,1.33L1864.14,19c-2.25.88-4.4,1.82-6.68,2.7s-4.65,1.72-7,2.6-4.54,1.83-7,2.64-4.8,1.7-7.18,2.58c-1.2.43-2.34.91-3.59,1.32L1829,32a952.86,952.86,0,0,1-136.56,35.58,1302,1302,0,0,1-168.22,19.79c-7.56.33-15.08.76-22.71,1l-11.47.38-5.74.2-5.8.11c-7.73.14-15.45.33-23.28.32l-11.73.06-12.37-.14c-16.61-.25-33-.36-50.32-1.11l-25.72-1c-8.71-.41-17.61-.94-26.42-1.43a205.23,205.23,0,0,1-24.49,3.58c-10.4.91-22.78,1.64-36.87,2.19-3.54.13-7.11.29-10.93.37l-11.77.22q-12.09.19-25.35.25l-6.69,0h-6.9l-14.38-.11q-14.62-.15-30.26-.42c-10.53-.19-21.57-.44-32.78-.73l-34.81-1-75.57-2.44L998,87.11l-20.51-.62-20.73-.66-10.44-.34-10.69-.26L892.43,84.1,848,83.34c-14.75-.35-30.13-.29-45.28-.39l-22.79-.11c-3.76,0-7.66,0-11.51.06L756.83,83l-23.1.24-11.52.12c-1.93,0-3.82,0-5.77.07l-5.84.17-46.39,1.32-5.75.16c-1.92.07-3.88.19-5.81.27L641,86,618,87.09c-7.66.39-15.23.72-22.83,1.17l-22.79,1.55-11.28.77-11.16.92-22.07,1.82c-7.28.65-14.48,1.38-21.62,2.05l-10.66,1-5.3.52L485,97.5c-111.81,11.82-203,29-256.39,38.18-6.23,1.72-12.46,3.34-18.61,5.15q-10.72,2.31-21.68,4.79c-3.65.84-7.32,1.66-11,2.55l-11,2.76q-11,2.81-22.19,5.79c-7.37,2.08-14.78,4.22-22.18,6.41-3.7,1.1-7.41,2.19-11.11,3.34l-11,3.55c-7.34,2.41-14.68,4.83-22,7.36s-14.45,5.24-21.6,7.93c-3.57,1.36-7.16,2.68-10.68,4.09L35.1,193.68c-7,2.88-13.9,5.76-20.68,8.76s-13.42,6.13-20,9.25c-3.28,1.57-6.54,3.11-9.74,4.72l-9.49,4.88q-9.39,4.91-18.38,9.88t-17.35,10.27c-5.62,3.45-11.1,6.88-16.31,10.46-10.43,7.13-20.24,14.17-29,21.52-29.83,30-56,63.68-80,97.21,12.17-.23,24.16,0,35.55.42,5.7.21,11.27.47,16.71.81s10.81.84,16,1.36c-4.75,2.12-9.57,4.17-14.22,6.36s-9.24,4.35-13.71,6.52-8.84,4.32-12.95,6.55-8,4.45-11.69,6.67-7.09,4.42-10.19,6.61a81.09,81.09,0,0,0-8.22,6.64c-4.75,4.41-8,8.73-9.27,12.93a121,121,0,0,0-8.82,11.33,89.4,89.4,0,0,0-6,10,49.66,49.66,0,0,0-3.51,8.72,28.88,28.88,0,0,0-1.16,7.62c-.1,9.46,5.29,16.09,14.09,21.3s20.94,8.94,34.69,12.78,28.85,7.5,43.61,12.41c16.74,2.26,23.87,12.92,32.51,22.79s18.68,19,40.07,19l-14.33,7.17C-71,560.78-75,562.74-79,564.82l-12.2,6.39c-4.28,2.25-9,4.63-14.14,7.51a6.38,6.38,0,0,0,5.7,2.63,14.1,14.1,0,0,0,3.7-.74,30.84,30.84,0,0,0,4.2-1.7c5.87-2.84,12.69-7.79,19.48-12.2s13.64-8.16,19.13-8.92,9.7,1.58,11.55,9.53c-12.29,2.66-22.09,9.15-31,16.61L-85.84,595.1A90.26,90.26,0,0,1-100,605c6.49,3.74,14.4,3.52,22.83,1.42a127.2,127.2,0,0,0,13-4.19c4.43-1.67,8.9-3.55,13.27-5.39,17.66-7.21,34.11-13.49,41.3-2.84-1.72,2.53-7.46,4.09-14.95,5.39s-16.77,2.3-25.11,4-16.09,3.84-20.35,7.3-5.2,8.07-.28,14.51c2,2.58,7.92,1.16,14.57-1.56s14.26-6.55,19.26-9.17q-4.92,3.91-9.34,7.81c-2.94,2.58-5.71,5.15-8.19,7.78a125.79,125.79,0,0,0-12.67,15.14c-6.6,9.92-9.84,18.87-9,26.29s5.79,13.24,15.11,16.74a50.9,50.9,0,0,0,7.83,2.19A82.43,82.43,0,0,0-43,691.84a155.7,155.7,0,0,0,24.51-.09,109.23,109.23,0,0,1-15.88,6.9l-9.22,3.24-9.4,3.42c-12.65,4.59-24.62,10.18-31.7,17.71a4.68,4.68,0,0,0,.55.27c4.81-2.63,12.28-5.39,19.56-8.12,3.61-1.39,7.31-2.66,10.56-4a61.13,61.13,0,0,0,8.26-3.85c-5.22,3.13-10.54,6.19-15.73,9.38L-77,726.35c5.11,2.06,10.35,3.94,15.66,5.77a139.7,139.7,0,0,0,14.94-4,66.07,66.07,0,0,0,13.32-5.74l-10.31,6.07c-3.41,2-6.75,4.17-10.14,6.26,6.49,2,13.06,3.82,19.64,5.48s13.31,3.25,19.93,4.6c4.83,0,9.73.05,14.64.23s9.9.53,14.77.87,9.71.75,14.37,1.15l6.88.57,6.69.61c8.72.76,16.56,1.31,23,1.24s11.67-.62,14.88-2.28C136.66,724,193.63,703.75,251.36,686S367.62,653,426.44,639.74Z"/></g></svg>