<?xml version="1.0" encoding="UTF-8" standalone="no"?>
<svg
   xmlns:dc="http://purl.org/dc/elements/1.1/"
   xmlns:cc="http://creativecommons.org/ns#"
   xmlns:rdf="http://www.w3.org/1999/02/22-rdf-syntax-ns#"
   xmlns:svg="http://www.w3.org/2000/svg"
   xmlns="http://www.w3.org/2000/svg"
   xmlns:sodipodi="http://sodipodi.sourceforge.net/DTD/sodipodi-0.dtd"
   xmlns:inkscape="http://www.inkscape.org/namespaces/inkscape"
   inkscape:version="1.0 (4035a4fb49, 2020-05-01)"
   sodipodi:docname="compass.svg"
   version="1.1"
   width="512"
   viewBox="0 0 512 512"
   height="512"
   enable-background="new 0 0 512 512"
   id="Layer_1">
  <metadata
     id="metadata17">
    <rdf:RDF>
      <cc:Work
         rdf:about="">
        <dc:format>image/svg+xml</dc:format>
        <dc:type
           rdf:resource="http://purl.org/dc/dcmitype/StillImage" />
      </cc:Work>
    </rdf:RDF>
  </metadata>
  <defs
     id="defs15" />
  <sodipodi:namedview
     inkscape:current-layer="Layer_1"
     inkscape:window-maximized="0"
     inkscape:window-y="0"
     inkscape:window-x="0"
     inkscape:cy="256"
     inkscape:cx="256"
     inkscape:zoom="1.0703125"
     showgrid="false"
     id="namedview13"
     inkscape:window-height="480"
     inkscape:window-width="876"
     inkscape:pageshadow="2"
     inkscape:pageopacity="0"
     guidetolerance="10"
     gridtolerance="10"
     objecttolerance="10"
     borderopacity="1"
     bordercolor="#666666"
     pagecolor="#ffffff" />
  <g
     style="fill:#ffffff"
     id="g10">
    <path
       style="fill:#ffffff"
       id="path2"
       fill="none"
       d="m304 304-96-96" />
    <path
       style="fill:#ffffff"
       id="path4"
       d="m303 319c-4.095 0-8.189-1.562-11.313-4.687l-94-94c-6.249-6.248-6.249-16.379 0-22.627 6.248-6.249 16.379-6.249 22.627 0l94 94c6.249 6.248 6.249 16.379 0 22.627-3.125 3.125-7.219 4.687-11.314 4.687z" />
    <path
       style="fill:#ffffff"
       id="path6"
       d="m144.003 384c-4.167 0-8.258-1.628-11.317-4.687-4.525-4.526-5.919-11.313-3.542-17.256l64-160c1.626-4.065 4.848-7.287 8.913-8.913l160-64c5.944-2.377 12.73-.983 17.256 3.542 4.525 4.526 5.919 11.313 3.542 17.256l-64 160c-1.626 4.065-4.848 7.287-8.913 8.913l-160 64c-1.926.771-3.941 1.145-5.939 1.145zm76.306-163.691-47.588 118.97 118.97-47.588 47.588-118.97z" />
    <path
       style="fill:#ffffff"
       id="path8"
       d="m256 512c-68.38 0-132.667-26.628-181.02-74.98s-74.98-112.64-74.98-181.02 26.628-132.667 74.98-181.02 112.64-74.98 181.02-74.98 132.667 26.628 181.02 74.98 74.98 112.64 74.98 181.02-26.628 132.667-74.98 181.02-112.64 74.98-181.02 74.98zm0-480c-123.514 0-224 100.486-224 224s100.486 224 224 224 224-100.486 224-224-100.486-224-224-224z" />
  </g>
</svg>
