<svg id="Camada_1" data-name="Camada 1" xmlns="http://www.w3.org/2000/svg" viewBox="0 0 1080 1080"><defs><style>.cls-1{fill:#161616;}</style></defs><title>image</title><path class="cls-1" d="M864.69,363c0-81.52-66.33-147.85-147.86-147.85H363c-81.52,0-147.85,66.33-147.85,147.85V716.87c0,81.53,66.33,147.86,147.85,147.85H716.84c81.53,0,147.86-66.32,147.86-147.85h0ZM539.93,743.43c-112.2,0-203.48-91.27-203.48-203.46s91.28-203.48,203.48-203.48S743.4,427.77,743.4,540,652.13,743.43,539.93,743.43ZM788.28,364.8a51.42,51.42,0,1,1,15-36.34A51.9,51.9,0,0,1,788.28,364.8Z"/><path class="cls-1" d="M539.93,406.55c-73.57,0-133.42,59.85-133.42,133.41s59.86,133.4,133.42,133.4S673.34,613.52,673.34,540,613.49,406.55,539.93,406.55Z"/><path class="cls-1" d="M540,0C242.09,0,0,242.09,0,540c0,297.69,242.09,540,540,540,297.69,0,540-242.31,540-540C1080,242.09,837.69,0,540,0ZM716.83,934.79H363C242.85,934.79,145.1,837,145.1,716.87V363c0-120.15,97.75-217.91,217.91-217.91H716.83C837,145.13,934.76,242.89,934.76,363V716.87C934.76,837,837,934.79,716.83,934.79Z"/></svg>