<svg id="Camada_1" data-name="Camada 1" xmlns="http://www.w3.org/2000/svg" viewBox="0 0 1080 1080"><defs><style>.cls-1{fill:#161616;}</style></defs><title>image</title><path class="cls-1" d="M540.11,0C242.26,0,0,242.26,0,540.11,0,837.74,242.26,1080,540.11,1080,837.74,1080,1080,837.74,1080,540.11,1080,242.26,837.74,0,540.11,0ZM897.32,843.53,864.19,876l-.71-.64a188.68,188.68,0,0,1-47.36,26.83,195.89,195.89,0,0,1-48.35,12.15c-7.57.8-183,17.25-400.8-200.48C209.45,556.3,151.4,440.21,166.72,313.19a197.29,197.29,0,0,1,12-48.21,189,189,0,0,1,26.95-47.53l-.89-.89,32.7-32.89c24-24,62.25-24.66,85.3-1.61l116,116.06c23.06,23.09,22.4,61.35-1.56,85.31L418,402.75l-39.23,39.17c2,3.59,4.12,7.36,6.29,11.27,20.51,36.94,48.58,87.55,101.9,140.87s103.7,81.24,140.61,101.7c4,2.25,7.85,4.38,11.54,6.41l58.46-58.44c23.92-23.93,62.19-24.63,85.3-1.61l116,116C921.92,781.29,921.23,819.57,897.32,843.53Z"/></svg>