<svg id="Camada_1" data-name="Camada 1" xmlns="http://www.w3.org/2000/svg" viewBox="0 0 1080 1080"><defs><style>.cls-1{fill:#161616;}</style></defs><title>image</title><polygon class="cls-1" points="188.14 315.81 188.14 763.85 413.08 538.86 188.14 315.81"/><path class="cls-1" d="M558.07,649.89a23.35,23.35,0,0,1-33,.07l-78.87-78.21L221.17,796.88H858.83L635,573Z"/><polygon class="cls-1" points="858.83 283 221.4 283 541.49 600.41 858.83 283"/><polygon class="cls-1" points="891.86 763.85 891.86 316.03 668 539.94 891.86 763.85"/><path class="cls-1" d="M539.89,0C242.26,0,0,242.09,0,540c0,297.69,242.26,540,539.89,540C837.74,1080,1080,837.69,1080,540,1080,242.09,837.74,0,539.89,0ZM868.5,843.59h-657a70.18,70.18,0,0,1-70.06-70.07V306.36a70.19,70.19,0,0,1,70.06-70.08h657a70.18,70.18,0,0,1,70.06,70.08V773.52A70.18,70.18,0,0,1,868.5,843.59Z"/></svg>